SplineFontDB: 3.0
FontName: SecularOne-Regular
FullName: SecularOne-Regular
FamilyName: Secular One
Weight: Book
Copyright: Copyright 2016 Michal Sahar. All rights reserved.
Version: 1.000
ItalicAngle: 0
UnderlinePosition: -100
UnderlineWidth: 50
Ascent: 800
Descent: 200
InvalidEm: 0
sfntRevision: 0x00010000
LayerCount: 2
Layer: 0 1 "Back" 1
Layer: 1 1 "Fore" 0
XUID: [1021 239 -1752255070 7556189]
StyleMap: 0x0040
FSType: 0
OS2Version: 3
OS2_WeightWidthSlopeOnly: 0
OS2_UseTypoMetrics: 0
CreationTime: 1457817321
ModificationTime: 1572461458
PfmFamily: 81
TTFWeight: 400
TTFWidth: 5
LineGap: 0
VLineGap: 0
Panose: 0 0 5 0 0 0 0 0 0 0
OS2TypoAscent: 1022
OS2TypoAOffset: 0
OS2TypoDescent: -433
OS2TypoDOffset: 0
OS2TypoLinegap: 0
OS2WinAscent: 1022
OS2WinAOffset: 0
OS2WinDescent: 433
OS2WinDOffset: 0
HheadAscent: 1022
HheadAOffset: 0
HheadDescent: -433
HheadDOffset: 0
OS2SubXSize: 650
OS2SubYSize: 600
OS2SubXOff: 0
OS2SubYOff: 75
OS2SupXSize: 650
OS2SupYSize: 600
OS2SupXOff: 0
OS2SupYOff: 350
OS2StrikeYSize: 50
OS2StrikeYPos: 309
OS2CapHeight: 666
OS2XHeight: 515
OS2Vendor: 'MCHL'
OS2CodePages: 200000b3.00000000
OS2UnicodeRanges: 00000807.40000000.00000000.00000000
Lookup: 1 0 0 "'aalt' Access All Alternates lookup 0" { "'aalt' Access All Alternates lookup 0 subtable"  } ['aalt' ('DFLT' <'dflt' > 'hebr' <'dflt' > 'latn' <'AZE ' 'CRT ' 'KAZ ' 'MOL ' 'ROM ' 'TAT ' 'TRK ' 'dflt' > ) ]
Lookup: 3 0 0 "'aalt' Access All Alternates lookup 1" { "'aalt' Access All Alternates lookup 1 subtable"  } ['aalt' ('DFLT' <'dflt' > 'hebr' <'dflt' > 'latn' <'AZE ' 'CRT ' 'KAZ ' 'MOL ' 'ROM ' 'TAT ' 'TRK ' 'dflt' > ) ]
Lookup: 6 0 0 "'ccmp' Glyph Composition/Decomposition in Latin lookup 2" { "'ccmp' Glyph Composition/Decomposition in Latin lookup 2 contextual 0"  "'ccmp' Glyph Composition/Decomposition in Latin lookup 2 contextual 1"  } ['ccmp' ('latn' <'dflt' > ) ]

StartChar: .notdef
Encoding: 65536 -1 0
Width: 474
Flags: W
LayerCount: 2
Fore
SplineSet
389 -218 m 1,0,-1
 88 -218 l 1,1,-1
 88 730 l 1,2,-1
 389 730 l 1,3,-1
 389 -218 l 1,0,-1
159 666 m 1,4,-1
 159 635 l 1,5,-1
 221 635 l 1,6,-1
 221 600 l 1,7,-1
 158 600 l 1,8,-1
 158 569 l 1,9,-1
 316 569 l 1,10,-1
 316 600 l 1,11,-1
 253 600 l 1,12,-1
 253 635 l 1,13,-1
 316 635 l 1,14,-1
 316 666 l 1,15,-1
 159 666 l 1,4,-1
158 544 m 1,16,-1
 158 446 l 1,17,-1
 316 446 l 1,18,-1
 316 478 l 1,19,-1
 253 478 l 1,20,-1
 253 544 l 1,21,-1
 158 544 l 1,16,-1
221 478 m 1,22,-1
 190 478 l 1,23,-1
 190 512 l 1,24,-1
 221 512 l 1,25,-1
 221 478 l 1,22,-1
158 420 m 1,26,-1
 158 389 l 1,27,-1
 221 389 l 1,28,-1
 221 354 l 1,29,-1
 158 354 l 1,30,-1
 158 322 l 1,31,-1
 253 322 l 1,32,-1
 253 389 l 1,33,-1
 316 389 l 1,34,-1
 316 420 l 1,35,-1
 158 420 l 1,26,-1
284 363 m 1,36,-1
 284 301 l 1,37,-1
 158 301 l 1,38,-1
 158 268 l 1,39,-1
 316 268 l 1,40,-1
 316 363 l 1,41,-1
 284 363 l 1,36,-1
221 247 m 1,42,-1
 221 194 l 1,43,-1
 253 194 l 1,44,-1
 253 216 l 1,45,-1
 284 216 l 1,46,-1
 284 172 l 1,47,-1
 190 172 l 1,48,-1
 190 247 l 1,49,-1
 158 247 l 1,50,-1
 158 140 l 1,51,-1
 316 140 l 1,52,-1
 316 247 l 1,53,-1
 221 247 l 1,42,-1
158 83 m 1,54,-1
 158 -24 l 1,55,-1
 316 -24 l 1,56,-1
 316 83 l 1,57,-1
 158 83 l 1,54,-1
284 8 m 1,58,-1
 190 8 l 1,59,-1
 190 52 l 1,60,-1
 284 52 l 1,61,-1
 284 8 l 1,58,-1
158 -45 m 1,62,-1
 158 -77 l 1,63,-1
 225 -77 l 1,64,-1
 158 -121 l 1,65,-1
 158 -153 l 1,66,-1
 316 -153 l 1,67,-1
 316 -121 l 1,68,-1
 219 -121 l 1,69,-1
 285 -77 l 1,70,-1
 316 -77 l 1,71,-1
 316 -45 l 1,72,-1
 158 -45 l 1,62,-1
EndSplineSet
PairPos2: "'kern' Horizontal Kerning in Hebrew lookup 3 per glyph data 3" uni05F4 dx=12 dy=0 dh=12 dv=0 dx=0 dy=0 dh=0 dv=0
PairPos2: "'kern' Horizontal Kerning in Hebrew lookup 3 per glyph data 3" uni05F3 dx=12 dy=0 dh=12 dv=0 dx=0 dy=0 dh=0 dv=0
PairPos2: "'kern' Horizontal Kerning in Hebrew lookup 3 per glyph data 3" quoteright dx=12 dy=0 dh=12 dv=0 dx=0 dy=0 dh=0 dv=0
PairPos2: "'kern' Horizontal Kerning in Hebrew lookup 3 per glyph data 3" quotedblright dx=12 dy=0 dh=12 dv=0 dx=0 dy=0 dh=0 dv=0
PairPos2: "'kern' Horizontal Kerning in Hebrew lookup 3 per glyph data 3" quotesingle dx=12 dy=0 dh=12 dv=0 dx=0 dy=0 dh=0 dv=0
PairPos2: "'kern' Horizontal Kerning in Hebrew lookup 3 per glyph data 3" quotedbl dx=12 dy=0 dh=12 dv=0 dx=0 dy=0 dh=0 dv=0
PairPos2: "'kern' Horizontal Kerning in Hebrew lookup 3 per glyph data 2" uni05E5 dx=-25 dy=0 dh=-25 dv=0 dx=0 dy=0 dh=0 dv=0
PairPos2: "'kern' Horizontal Kerning in Hebrew lookup 3 per glyph data 2" uniFB36 dx=-25 dy=0 dh=-25 dv=0 dx=0 dy=0 dh=0 dv=0
PairPos2: "'kern' Horizontal Kerning in Hebrew lookup 3 per glyph data 2" uni05D6 dx=-25 dy=0 dh=-25 dv=0 dx=0 dy=0 dh=0 dv=0
PairPos2: "'kern' Horizontal Kerning in Hebrew lookup 3 per glyph data 2" uniFB46 dx=-20 dy=0 dh=-20 dv=0 dx=0 dy=0 dh=0 dv=0
PairPos2: "'kern' Horizontal Kerning in Hebrew lookup 3 per glyph data 2" uni05E6 dx=-20 dy=0 dh=-20 dv=0 dx=0 dy=0 dh=0 dv=0
PairPos2: "'kern' Horizontal Kerning in Hebrew lookup 3 per glyph data 2" uniFB38 dx=5 dy=0 dh=5 dv=0 dx=0 dy=0 dh=0 dv=0
PairPos2: "'kern' Horizontal Kerning in Hebrew lookup 3 per glyph data 2" uni05D8 dx=5 dy=0 dh=5 dv=0 dx=0 dy=0 dh=0 dv=0
PairPos2: "'kern' Horizontal Kerning in Hebrew lookup 3 per glyph data 2" uniFB41 dx=5 dy=0 dh=5 dv=0 dx=0 dy=0 dh=0 dv=0
PairPos2: "'kern' Horizontal Kerning in Hebrew lookup 3 per glyph data 2" uni05E1 dx=5 dy=0 dh=5 dv=0 dx=0 dy=0 dh=0 dv=0
PairPos2: "'kern' Horizontal Kerning in Hebrew lookup 3 per glyph data 2" uniFB3B dx=10 dy=0 dh=10 dv=0 dx=0 dy=0 dh=0 dv=0
PairPos2: "'kern' Horizontal Kerning in Hebrew lookup 3 per glyph data 2" uni05DB dx=10 dy=0 dh=10 dv=0 dx=0 dy=0 dh=0 dv=0
PairPos2: "'kern' Horizontal Kerning in Hebrew lookup 3 per glyph data 2" uniFB33 dx=-20 dy=0 dh=-20 dv=0 dx=0 dy=0 dh=0 dv=0
PairPos2: "'kern' Horizontal Kerning in Hebrew lookup 3 per glyph data 2" uni05D3 dx=-20 dy=0 dh=-20 dv=0 dx=0 dy=0 dh=0 dv=0
PairPos2: "'kern' Horizontal Kerning in Hebrew lookup 3 per glyph data 2" uniFB31 dx=-15 dy=0 dh=-15 dv=0 dx=0 dy=0 dh=0 dv=0
PairPos2: "'kern' Horizontal Kerning in Hebrew lookup 3 per glyph data 2" uni05D1 dx=-15 dy=0 dh=-15 dv=0 dx=0 dy=0 dh=0 dv=0
PairPos2: "'kern' Horizontal Kerning in Hebrew lookup 3 per glyph data 2" uniFB30 dx=-12 dy=0 dh=-12 dv=0 dx=0 dy=0 dh=0 dv=0
PairPos2: "'kern' Horizontal Kerning in Hebrew lookup 3 per glyph data 2" uniFB2F dx=-12 dy=0 dh=-12 dv=0 dx=0 dy=0 dh=0 dv=0
PairPos2: "'kern' Horizontal Kerning in Hebrew lookup 3 per glyph data 2" uniFB2E dx=-12 dy=0 dh=-12 dv=0 dx=0 dy=0 dh=0 dv=0
PairPos2: "'kern' Horizontal Kerning in Hebrew lookup 3 per glyph data 2" uni05D0 dx=-12 dy=0 dh=-12 dv=0 dx=0 dy=0 dh=0 dv=0
PairPos2: "'kern' Horizontal Kerning in Hebrew lookup 3 per glyph data 1" uni05E5 dx=-5 dy=0 dh=-5 dv=0 dx=0 dy=0 dh=0 dv=0
PairPos2: "'kern' Horizontal Kerning in Hebrew lookup 3 per glyph data 1" uniFB36 dx=-10 dy=0 dh=-10 dv=0 dx=0 dy=0 dh=0 dv=0
PairPos2: "'kern' Horizontal Kerning in Hebrew lookup 3 per glyph data 1" uni05D6 dx=-10 dy=0 dh=-10 dv=0 dx=0 dy=0 dh=0 dv=0
PairPos2: "'kern' Horizontal Kerning in Hebrew lookup 3 per glyph data 1" uniFB39 dx=-5 dy=0 dh=-5 dv=0 dx=0 dy=0 dh=0 dv=0
PairPos2: "'kern' Horizontal Kerning in Hebrew lookup 3 per glyph data 1" uni05D9 dx=-5 dy=0 dh=-5 dv=0 dx=0 dy=0 dh=0 dv=0
PairPos2: "'kern' Horizontal Kerning in Hebrew lookup 3 per glyph data 1" uniFB38 dx=-10 dy=0 dh=-10 dv=0 dx=0 dy=0 dh=0 dv=0
PairPos2: "'kern' Horizontal Kerning in Hebrew lookup 3 per glyph data 1" uni05D8 dx=-10 dy=0 dh=-10 dv=0 dx=0 dy=0 dh=0 dv=0
PairPos2: "'kern' Horizontal Kerning in Hebrew lookup 3 per glyph data 1" uniFB41 dx=-7 dy=0 dh=-7 dv=0 dx=0 dy=0 dh=0 dv=0
PairPos2: "'kern' Horizontal Kerning in Hebrew lookup 3 per glyph data 1" uni05E1 dx=-7 dy=0 dh=-7 dv=0 dx=0 dy=0 dh=0 dv=0
PairPos2: "'kern' Horizontal Kerning in Hebrew lookup 3 per glyph data 1" uni05F4 dx=5 dy=0 dh=5 dv=0 dx=0 dy=0 dh=0 dv=0
PairPos2: "'kern' Horizontal Kerning in Hebrew lookup 3 per glyph data 1" uni05F3 dx=5 dy=0 dh=5 dv=0 dx=0 dy=0 dh=0 dv=0
PairPos2: "'kern' Horizontal Kerning in Hebrew lookup 3 per glyph data 1" quoteright dx=5 dy=0 dh=5 dv=0 dx=0 dy=0 dh=0 dv=0
PairPos2: "'kern' Horizontal Kerning in Hebrew lookup 3 per glyph data 1" quotedblright dx=5 dy=0 dh=5 dv=0 dx=0 dy=0 dh=0 dv=0
PairPos2: "'kern' Horizontal Kerning in Hebrew lookup 3 per glyph data 1" quotesingle dx=5 dy=0 dh=5 dv=0 dx=0 dy=0 dh=0 dv=0
PairPos2: "'kern' Horizontal Kerning in Hebrew lookup 3 per glyph data 1" quotedbl dx=5 dy=0 dh=5 dv=0 dx=0 dy=0 dh=0 dv=0
PairPos2: "'kern' Horizontal Kerning in Hebrew lookup 3 per glyph data 1" period dx=10 dy=0 dh=10 dv=0 dx=0 dy=0 dh=0 dv=0
PairPos2: "'kern' Horizontal Kerning in Hebrew lookup 3 per glyph data 1" ellipsis dx=10 dy=0 dh=10 dv=0 dx=0 dy=0 dh=0 dv=0
PairPos2: "'kern' Horizontal Kerning in Hebrew lookup 3 per glyph data 1" uniFB3C dx=-5 dy=0 dh=-5 dv=0 dx=0 dy=0 dh=0 dv=0
PairPos2: "'kern' Horizontal Kerning in Hebrew lookup 3 per glyph data 1" uni05DC dx=-5 dy=0 dh=-5 dv=0 dx=0 dy=0 dh=0 dv=0
PairPos2: "'kern' Horizontal Kerning in Hebrew lookup 3 per glyph data 1" uniFB3B dx=-5 dy=0 dh=-5 dv=0 dx=0 dy=0 dh=0 dv=0
PairPos2: "'kern' Horizontal Kerning in Hebrew lookup 3 per glyph data 1" uni05DB dx=-5 dy=0 dh=-5 dv=0 dx=0 dy=0 dh=0 dv=0
PairPos2: "'kern' Horizontal Kerning in Hebrew lookup 3 per glyph data 1" hyphen dx=-25 dy=0 dh=-25 dv=0 dx=0 dy=0 dh=0 dv=0
PairPos2: "'kern' Horizontal Kerning in Hebrew lookup 3 per glyph data 1" endash dx=-25 dy=0 dh=-25 dv=0 dx=0 dy=0 dh=0 dv=0
PairPos2: "'kern' Horizontal Kerning in Hebrew lookup 3 per glyph data 1" emdash dx=-25 dy=0 dh=-25 dv=0 dx=0 dy=0 dh=0 dv=0
PairPos2: "'kern' Horizontal Kerning in Hebrew lookup 3 per glyph data 1" uniFB33 dx=-4 dy=0 dh=-4 dv=0 dx=0 dy=0 dh=0 dv=0
PairPos2: "'kern' Horizontal Kerning in Hebrew lookup 3 per glyph data 1" uni05D3 dx=-4 dy=0 dh=-4 dv=0 dx=0 dy=0 dh=0 dv=0
PairPos2: "'kern' Horizontal Kerning in Hebrew lookup 3 per glyph data 1" uniFB31 dx=7 dy=0 dh=7 dv=0 dx=0 dy=0 dh=0 dv=0
PairPos2: "'kern' Horizontal Kerning in Hebrew lookup 3 per glyph data 1" uni05D1 dx=7 dy=0 dh=7 dv=0 dx=0 dy=0 dh=0 dv=0
PairPos2: "'kern' Horizontal Kerning in Hebrew lookup 3 per glyph data 1" uniFB30 dx=5 dy=0 dh=5 dv=0 dx=0 dy=0 dh=0 dv=0
PairPos2: "'kern' Horizontal Kerning in Hebrew lookup 3 per glyph data 1" uniFB2F dx=5 dy=0 dh=5 dv=0 dx=0 dy=0 dh=0 dv=0
PairPos2: "'kern' Horizontal Kerning in Hebrew lookup 3 per glyph data 1" uniFB2E dx=5 dy=0 dh=5 dv=0 dx=0 dy=0 dh=0 dv=0
PairPos2: "'kern' Horizontal Kerning in Hebrew lookup 3 per glyph data 1" uni05D0 dx=5 dy=0 dh=5 dv=0 dx=0 dy=0 dh=0 dv=0
EndChar

StartChar: A
Encoding: 65 65 2
Width: 679
GlyphClass: 2
Flags: W
AnchorPoint: "Anchor-10" 0 0 basechar 0
AnchorPoint: "Anchor-9" 0 0 basechar 0
AnchorPoint: "Anchor-8" 0 0 basechar 0
AnchorPoint: "Anchor-7" 340 666 basechar 0
AnchorPoint: "Anchor-6" 619 0 basechar 0
AnchorPoint: "Anchor-5" 340 0 basechar 0
LayerCount: 2
Fore
SplineSet
251 666 m 1,0,-1
 425 666 l 1,1,-1
 672 0 l 1,2,-1
 522 0 l 1,3,-1
 468 152 l 1,4,-1
 206 152 l 1,5,-1
 155 0 l 1,6,-1
 7 0 l 1,7,-1
 251 666 l 1,0,-1
425 276 m 1,8,-1
 335 531 l 1,9,-1
 248 276 l 1,10,-1
 425 276 l 1,8,-1
EndSplineSet
Substitution2: "Single Substitution lookup 16 subtable" ordfeminine
Substitution2: "'aalt' Access All Alternates lookup 0 subtable" ordfeminine
PairPos2: "'kern' Horizontal Kerning in Hebrew lookup 3 per glyph data 3" uni05F4 dx=12 dy=0 dh=12 dv=0 dx=0 dy=0 dh=0 dv=0
PairPos2: "'kern' Horizontal Kerning in Hebrew lookup 3 per glyph data 3" uni05F3 dx=12 dy=0 dh=12 dv=0 dx=0 dy=0 dh=0 dv=0
PairPos2: "'kern' Horizontal Kerning in Hebrew lookup 3 per glyph data 3" quoteright dx=12 dy=0 dh=12 dv=0 dx=0 dy=0 dh=0 dv=0
PairPos2: "'kern' Horizontal Kerning in Hebrew lookup 3 per glyph data 3" quotedblright dx=12 dy=0 dh=12 dv=0 dx=0 dy=0 dh=0 dv=0
PairPos2: "'kern' Horizontal Kerning in Hebrew lookup 3 per glyph data 3" quotesingle dx=12 dy=0 dh=12 dv=0 dx=0 dy=0 dh=0 dv=0
PairPos2: "'kern' Horizontal Kerning in Hebrew lookup 3 per glyph data 3" quotedbl dx=12 dy=0 dh=12 dv=0 dx=0 dy=0 dh=0 dv=0
PairPos2: "'kern' Horizontal Kerning in Hebrew lookup 3 per glyph data 2" uni05E5 dx=-25 dy=0 dh=-25 dv=0 dx=0 dy=0 dh=0 dv=0
PairPos2: "'kern' Horizontal Kerning in Hebrew lookup 3 per glyph data 2" uniFB36 dx=-25 dy=0 dh=-25 dv=0 dx=0 dy=0 dh=0 dv=0
PairPos2: "'kern' Horizontal Kerning in Hebrew lookup 3 per glyph data 2" uni05D6 dx=-25 dy=0 dh=-25 dv=0 dx=0 dy=0 dh=0 dv=0
PairPos2: "'kern' Horizontal Kerning in Hebrew lookup 3 per glyph data 2" uniFB46 dx=-20 dy=0 dh=-20 dv=0 dx=0 dy=0 dh=0 dv=0
PairPos2: "'kern' Horizontal Kerning in Hebrew lookup 3 per glyph data 2" uni05E6 dx=-20 dy=0 dh=-20 dv=0 dx=0 dy=0 dh=0 dv=0
PairPos2: "'kern' Horizontal Kerning in Hebrew lookup 3 per glyph data 2" uniFB38 dx=5 dy=0 dh=5 dv=0 dx=0 dy=0 dh=0 dv=0
PairPos2: "'kern' Horizontal Kerning in Hebrew lookup 3 per glyph data 2" uni05D8 dx=5 dy=0 dh=5 dv=0 dx=0 dy=0 dh=0 dv=0
PairPos2: "'kern' Horizontal Kerning in Hebrew lookup 3 per glyph data 2" uniFB41 dx=5 dy=0 dh=5 dv=0 dx=0 dy=0 dh=0 dv=0
PairPos2: "'kern' Horizontal Kerning in Hebrew lookup 3 per glyph data 2" uni05E1 dx=5 dy=0 dh=5 dv=0 dx=0 dy=0 dh=0 dv=0
PairPos2: "'kern' Horizontal Kerning in Hebrew lookup 3 per glyph data 2" uniFB3B dx=10 dy=0 dh=10 dv=0 dx=0 dy=0 dh=0 dv=0
PairPos2: "'kern' Horizontal Kerning in Hebrew lookup 3 per glyph data 2" uni05DB dx=10 dy=0 dh=10 dv=0 dx=0 dy=0 dh=0 dv=0
PairPos2: "'kern' Horizontal Kerning in Hebrew lookup 3 per glyph data 2" uniFB33 dx=-20 dy=0 dh=-20 dv=0 dx=0 dy=0 dh=0 dv=0
PairPos2: "'kern' Horizontal Kerning in Hebrew lookup 3 per glyph data 2" uni05D3 dx=-20 dy=0 dh=-20 dv=0 dx=0 dy=0 dh=0 dv=0
PairPos2: "'kern' Horizontal Kerning in Hebrew lookup 3 per glyph data 2" uniFB31 dx=-15 dy=0 dh=-15 dv=0 dx=0 dy=0 dh=0 dv=0
PairPos2: "'kern' Horizontal Kerning in Hebrew lookup 3 per glyph data 2" uni05D1 dx=-15 dy=0 dh=-15 dv=0 dx=0 dy=0 dh=0 dv=0
PairPos2: "'kern' Horizontal Kerning in Hebrew lookup 3 per glyph data 2" uniFB30 dx=-12 dy=0 dh=-12 dv=0 dx=0 dy=0 dh=0 dv=0
PairPos2: "'kern' Horizontal Kerning in Hebrew lookup 3 per glyph data 2" uniFB2F dx=-12 dy=0 dh=-12 dv=0 dx=0 dy=0 dh=0 dv=0
PairPos2: "'kern' Horizontal Kerning in Hebrew lookup 3 per glyph data 2" uniFB2E dx=-12 dy=0 dh=-12 dv=0 dx=0 dy=0 dh=0 dv=0
PairPos2: "'kern' Horizontal Kerning in Hebrew lookup 3 per glyph data 2" uni05D0 dx=-12 dy=0 dh=-12 dv=0 dx=0 dy=0 dh=0 dv=0
PairPos2: "'kern' Horizontal Kerning in Hebrew lookup 3 per glyph data 1" uni05E5 dx=-5 dy=0 dh=-5 dv=0 dx=0 dy=0 dh=0 dv=0
PairPos2: "'kern' Horizontal Kerning in Hebrew lookup 3 per glyph data 1" uniFB36 dx=-10 dy=0 dh=-10 dv=0 dx=0 dy=0 dh=0 dv=0
PairPos2: "'kern' Horizontal Kerning in Hebrew lookup 3 per glyph data 1" uni05D6 dx=-10 dy=0 dh=-10 dv=0 dx=0 dy=0 dh=0 dv=0
PairPos2: "'kern' Horizontal Kerning in Hebrew lookup 3 per glyph data 1" uniFB39 dx=-5 dy=0 dh=-5 dv=0 dx=0 dy=0 dh=0 dv=0
PairPos2: "'kern' Horizontal Kerning in Hebrew lookup 3 per glyph data 1" uni05D9 dx=-5 dy=0 dh=-5 dv=0 dx=0 dy=0 dh=0 dv=0
PairPos2: "'kern' Horizontal Kerning in Hebrew lookup 3 per glyph data 1" uniFB38 dx=-10 dy=0 dh=-10 dv=0 dx=0 dy=0 dh=0 dv=0
PairPos2: "'kern' Horizontal Kerning in Hebrew lookup 3 per glyph data 1" uni05D8 dx=-10 dy=0 dh=-10 dv=0 dx=0 dy=0 dh=0 dv=0
PairPos2: "'kern' Horizontal Kerning in Hebrew lookup 3 per glyph data 1" uniFB41 dx=-7 dy=0 dh=-7 dv=0 dx=0 dy=0 dh=0 dv=0
PairPos2: "'kern' Horizontal Kerning in Hebrew lookup 3 per glyph data 1" uni05E1 dx=-7 dy=0 dh=-7 dv=0 dx=0 dy=0 dh=0 dv=0
PairPos2: "'kern' Horizontal Kerning in Hebrew lookup 3 per glyph data 1" uni05F4 dx=5 dy=0 dh=5 dv=0 dx=0 dy=0 dh=0 dv=0
PairPos2: "'kern' Horizontal Kerning in Hebrew lookup 3 per glyph data 1" uni05F3 dx=5 dy=0 dh=5 dv=0 dx=0 dy=0 dh=0 dv=0
PairPos2: "'kern' Horizontal Kerning in Hebrew lookup 3 per glyph data 1" quoteright dx=5 dy=0 dh=5 dv=0 dx=0 dy=0 dh=0 dv=0
PairPos2: "'kern' Horizontal Kerning in Hebrew lookup 3 per glyph data 1" quotedblright dx=5 dy=0 dh=5 dv=0 dx=0 dy=0 dh=0 dv=0
PairPos2: "'kern' Horizontal Kerning in Hebrew lookup 3 per glyph data 1" quotesingle dx=5 dy=0 dh=5 dv=0 dx=0 dy=0 dh=0 dv=0
PairPos2: "'kern' Horizontal Kerning in Hebrew lookup 3 per glyph data 1" quotedbl dx=5 dy=0 dh=5 dv=0 dx=0 dy=0 dh=0 dv=0
PairPos2: "'kern' Horizontal Kerning in Hebrew lookup 3 per glyph data 1" period dx=10 dy=0 dh=10 dv=0 dx=0 dy=0 dh=0 dv=0
PairPos2: "'kern' Horizontal Kerning in Hebrew lookup 3 per glyph data 1" ellipsis dx=10 dy=0 dh=10 dv=0 dx=0 dy=0 dh=0 dv=0
PairPos2: "'kern' Horizontal Kerning in Hebrew lookup 3 per glyph data 1" uniFB3C dx=-5 dy=0 dh=-5 dv=0 dx=0 dy=0 dh=0 dv=0
PairPos2: "'kern' Horizontal Kerning in Hebrew lookup 3 per glyph data 1" uni05DC dx=-5 dy=0 dh=-5 dv=0 dx=0 dy=0 dh=0 dv=0
PairPos2: "'kern' Horizontal Kerning in Hebrew lookup 3 per glyph data 1" uniFB3B dx=-5 dy=0 dh=-5 dv=0 dx=0 dy=0 dh=0 dv=0
PairPos2: "'kern' Horizontal Kerning in Hebrew lookup 3 per glyph data 1" uni05DB dx=-5 dy=0 dh=-5 dv=0 dx=0 dy=0 dh=0 dv=0
PairPos2: "'kern' Horizontal Kerning in Hebrew lookup 3 per glyph data 1" hyphen dx=-25 dy=0 dh=-25 dv=0 dx=0 dy=0 dh=0 dv=0
PairPos2: "'kern' Horizontal Kerning in Hebrew lookup 3 per glyph data 1" endash dx=-25 dy=0 dh=-25 dv=0 dx=0 dy=0 dh=0 dv=0
PairPos2: "'kern' Horizontal Kerning in Hebrew lookup 3 per glyph data 1" emdash dx=-25 dy=0 dh=-25 dv=0 dx=0 dy=0 dh=0 dv=0
PairPos2: "'kern' Horizontal Kerning in Hebrew lookup 3 per glyph data 1" uniFB33 dx=-4 dy=0 dh=-4 dv=0 dx=0 dy=0 dh=0 dv=0
PairPos2: "'kern' Horizontal Kerning in Hebrew lookup 3 per glyph data 1" uni05D3 dx=-4 dy=0 dh=-4 dv=0 dx=0 dy=0 dh=0 dv=0
PairPos2: "'kern' Horizontal Kerning in Hebrew lookup 3 per glyph data 1" uniFB31 dx=7 dy=0 dh=7 dv=0 dx=0 dy=0 dh=0 dv=0
PairPos2: "'kern' Horizontal Kerning in Hebrew lookup 3 per glyph data 1" uni05D1 dx=7 dy=0 dh=7 dv=0 dx=0 dy=0 dh=0 dv=0
PairPos2: "'kern' Horizontal Kerning in Hebrew lookup 3 per glyph data 1" uniFB30 dx=5 dy=0 dh=5 dv=0 dx=0 dy=0 dh=0 dv=0
PairPos2: "'kern' Horizontal Kerning in Hebrew lookup 3 per glyph data 1" uniFB2F dx=5 dy=0 dh=5 dv=0 dx=0 dy=0 dh=0 dv=0
PairPos2: "'kern' Horizontal Kerning in Hebrew lookup 3 per glyph data 1" uniFB2E dx=5 dy=0 dh=5 dv=0 dx=0 dy=0 dh=0 dv=0
PairPos2: "'kern' Horizontal Kerning in Hebrew lookup 3 per glyph data 1" uni05D0 dx=5 dy=0 dh=5 dv=0 dx=0 dy=0 dh=0 dv=0
EndChar

StartChar: Aogonek
Encoding: 260 260 9
Width: 680
GlyphClass: 2
Flags: W
LayerCount: 2
Fore
SplineSet
500.5 -193.5 m 128,-1,1
 470 -167 470 -167 470 -122 c 0,2,3
 470 -89 470 -89 486 -62.5 c 128,-1,4
 502 -36 502 -36 529 -18 c 1,5,-1
 469 152 l 1,6,-1
 206 152 l 1,7,-1
 155 0 l 1,8,-1
 7 0 l 1,9,-1
 251 666 l 1,10,-1
 425 666 l 1,11,-1
 672 0 l 1,12,-1
 660 -3 l 2,13,14
 617 -14 617 -14 589 -39 c 128,-1,15
 561 -64 561 -64 561 -93 c 0,16,17
 561 -114 561 -114 576.5 -125.5 c 128,-1,18
 592 -137 592 -137 615 -137 c 0,19,20
 645 -137 645 -137 673 -120 c 1,21,-1
 668 -197 l 1,22,23
 653 -208 653 -208 631 -214 c 128,-1,24
 609 -220 609 -220 584 -220 c 0,25,0
 531 -220 531 -220 500.5 -193.5 c 128,-1,1
425 276 m 1,26,-1
 335 531 l 1,27,-1
 248 276 l 1,28,-1
 425 276 l 1,26,-1
EndSplineSet
PairPos2: "'kern' Horizontal Kerning in Hebrew lookup 3 per glyph data 3" uni05F4 dx=12 dy=0 dh=12 dv=0 dx=0 dy=0 dh=0 dv=0
PairPos2: "'kern' Horizontal Kerning in Hebrew lookup 3 per glyph data 3" uni05F3 dx=12 dy=0 dh=12 dv=0 dx=0 dy=0 dh=0 dv=0
PairPos2: "'kern' Horizontal Kerning in Hebrew lookup 3 per glyph data 3" quoteright dx=12 dy=0 dh=12 dv=0 dx=0 dy=0 dh=0 dv=0
PairPos2: "'kern' Horizontal Kerning in Hebrew lookup 3 per glyph data 3" quotedblright dx=12 dy=0 dh=12 dv=0 dx=0 dy=0 dh=0 dv=0
PairPos2: "'kern' Horizontal Kerning in Hebrew lookup 3 per glyph data 3" quotesingle dx=12 dy=0 dh=12 dv=0 dx=0 dy=0 dh=0 dv=0
PairPos2: "'kern' Horizontal Kerning in Hebrew lookup 3 per glyph data 3" quotedbl dx=12 dy=0 dh=12 dv=0 dx=0 dy=0 dh=0 dv=0
PairPos2: "'kern' Horizontal Kerning in Hebrew lookup 3 per glyph data 2" uni05E5 dx=-25 dy=0 dh=-25 dv=0 dx=0 dy=0 dh=0 dv=0
PairPos2: "'kern' Horizontal Kerning in Hebrew lookup 3 per glyph data 2" uniFB36 dx=-25 dy=0 dh=-25 dv=0 dx=0 dy=0 dh=0 dv=0
PairPos2: "'kern' Horizontal Kerning in Hebrew lookup 3 per glyph data 2" uni05D6 dx=-25 dy=0 dh=-25 dv=0 dx=0 dy=0 dh=0 dv=0
PairPos2: "'kern' Horizontal Kerning in Hebrew lookup 3 per glyph data 2" uniFB46 dx=-20 dy=0 dh=-20 dv=0 dx=0 dy=0 dh=0 dv=0
PairPos2: "'kern' Horizontal Kerning in Hebrew lookup 3 per glyph data 2" uni05E6 dx=-20 dy=0 dh=-20 dv=0 dx=0 dy=0 dh=0 dv=0
PairPos2: "'kern' Horizontal Kerning in Hebrew lookup 3 per glyph data 2" uniFB38 dx=5 dy=0 dh=5 dv=0 dx=0 dy=0 dh=0 dv=0
PairPos2: "'kern' Horizontal Kerning in Hebrew lookup 3 per glyph data 2" uni05D8 dx=5 dy=0 dh=5 dv=0 dx=0 dy=0 dh=0 dv=0
PairPos2: "'kern' Horizontal Kerning in Hebrew lookup 3 per glyph data 2" uniFB41 dx=5 dy=0 dh=5 dv=0 dx=0 dy=0 dh=0 dv=0
PairPos2: "'kern' Horizontal Kerning in Hebrew lookup 3 per glyph data 2" uni05E1 dx=5 dy=0 dh=5 dv=0 dx=0 dy=0 dh=0 dv=0
PairPos2: "'kern' Horizontal Kerning in Hebrew lookup 3 per glyph data 2" uniFB3B dx=10 dy=0 dh=10 dv=0 dx=0 dy=0 dh=0 dv=0
PairPos2: "'kern' Horizontal Kerning in Hebrew lookup 3 per glyph data 2" uni05DB dx=10 dy=0 dh=10 dv=0 dx=0 dy=0 dh=0 dv=0
PairPos2: "'kern' Horizontal Kerning in Hebrew lookup 3 per glyph data 2" uniFB33 dx=-20 dy=0 dh=-20 dv=0 dx=0 dy=0 dh=0 dv=0
PairPos2: "'kern' Horizontal Kerning in Hebrew lookup 3 per glyph data 2" uni05D3 dx=-20 dy=0 dh=-20 dv=0 dx=0 dy=0 dh=0 dv=0
PairPos2: "'kern' Horizontal Kerning in Hebrew lookup 3 per glyph data 2" uniFB31 dx=-15 dy=0 dh=-15 dv=0 dx=0 dy=0 dh=0 dv=0
PairPos2: "'kern' Horizontal Kerning in Hebrew lookup 3 per glyph data 2" uni05D1 dx=-15 dy=0 dh=-15 dv=0 dx=0 dy=0 dh=0 dv=0
PairPos2: "'kern' Horizontal Kerning in Hebrew lookup 3 per glyph data 2" uniFB30 dx=-12 dy=0 dh=-12 dv=0 dx=0 dy=0 dh=0 dv=0
PairPos2: "'kern' Horizontal Kerning in Hebrew lookup 3 per glyph data 2" uniFB2F dx=-12 dy=0 dh=-12 dv=0 dx=0 dy=0 dh=0 dv=0
PairPos2: "'kern' Horizontal Kerning in Hebrew lookup 3 per glyph data 2" uniFB2E dx=-12 dy=0 dh=-12 dv=0 dx=0 dy=0 dh=0 dv=0
PairPos2: "'kern' Horizontal Kerning in Hebrew lookup 3 per glyph data 2" uni05D0 dx=-12 dy=0 dh=-12 dv=0 dx=0 dy=0 dh=0 dv=0
PairPos2: "'kern' Horizontal Kerning in Hebrew lookup 3 per glyph data 1" uni05E5 dx=-5 dy=0 dh=-5 dv=0 dx=0 dy=0 dh=0 dv=0
PairPos2: "'kern' Horizontal Kerning in Hebrew lookup 3 per glyph data 1" uniFB36 dx=-10 dy=0 dh=-10 dv=0 dx=0 dy=0 dh=0 dv=0
PairPos2: "'kern' Horizontal Kerning in Hebrew lookup 3 per glyph data 1" uni05D6 dx=-10 dy=0 dh=-10 dv=0 dx=0 dy=0 dh=0 dv=0
PairPos2: "'kern' Horizontal Kerning in Hebrew lookup 3 per glyph data 1" uniFB39 dx=-5 dy=0 dh=-5 dv=0 dx=0 dy=0 dh=0 dv=0
PairPos2: "'kern' Horizontal Kerning in Hebrew lookup 3 per glyph data 1" uni05D9 dx=-5 dy=0 dh=-5 dv=0 dx=0 dy=0 dh=0 dv=0
PairPos2: "'kern' Horizontal Kerning in Hebrew lookup 3 per glyph data 1" uniFB38 dx=-10 dy=0 dh=-10 dv=0 dx=0 dy=0 dh=0 dv=0
PairPos2: "'kern' Horizontal Kerning in Hebrew lookup 3 per glyph data 1" uni05D8 dx=-10 dy=0 dh=-10 dv=0 dx=0 dy=0 dh=0 dv=0
PairPos2: "'kern' Horizontal Kerning in Hebrew lookup 3 per glyph data 1" uniFB41 dx=-7 dy=0 dh=-7 dv=0 dx=0 dy=0 dh=0 dv=0
PairPos2: "'kern' Horizontal Kerning in Hebrew lookup 3 per glyph data 1" uni05E1 dx=-7 dy=0 dh=-7 dv=0 dx=0 dy=0 dh=0 dv=0
PairPos2: "'kern' Horizontal Kerning in Hebrew lookup 3 per glyph data 1" uni05F4 dx=5 dy=0 dh=5 dv=0 dx=0 dy=0 dh=0 dv=0
PairPos2: "'kern' Horizontal Kerning in Hebrew lookup 3 per glyph data 1" uni05F3 dx=5 dy=0 dh=5 dv=0 dx=0 dy=0 dh=0 dv=0
PairPos2: "'kern' Horizontal Kerning in Hebrew lookup 3 per glyph data 1" quoteright dx=5 dy=0 dh=5 dv=0 dx=0 dy=0 dh=0 dv=0
PairPos2: "'kern' Horizontal Kerning in Hebrew lookup 3 per glyph data 1" quotedblright dx=5 dy=0 dh=5 dv=0 dx=0 dy=0 dh=0 dv=0
PairPos2: "'kern' Horizontal Kerning in Hebrew lookup 3 per glyph data 1" quotesingle dx=5 dy=0 dh=5 dv=0 dx=0 dy=0 dh=0 dv=0
PairPos2: "'kern' Horizontal Kerning in Hebrew lookup 3 per glyph data 1" quotedbl dx=5 dy=0 dh=5 dv=0 dx=0 dy=0 dh=0 dv=0
PairPos2: "'kern' Horizontal Kerning in Hebrew lookup 3 per glyph data 1" period dx=10 dy=0 dh=10 dv=0 dx=0 dy=0 dh=0 dv=0
PairPos2: "'kern' Horizontal Kerning in Hebrew lookup 3 per glyph data 1" ellipsis dx=10 dy=0 dh=10 dv=0 dx=0 dy=0 dh=0 dv=0
PairPos2: "'kern' Horizontal Kerning in Hebrew lookup 3 per glyph data 1" uniFB3C dx=-5 dy=0 dh=-5 dv=0 dx=0 dy=0 dh=0 dv=0
PairPos2: "'kern' Horizontal Kerning in Hebrew lookup 3 per glyph data 1" uni05DC dx=-5 dy=0 dh=-5 dv=0 dx=0 dy=0 dh=0 dv=0
PairPos2: "'kern' Horizontal Kerning in Hebrew lookup 3 per glyph data 1" uniFB3B dx=-5 dy=0 dh=-5 dv=0 dx=0 dy=0 dh=0 dv=0
PairPos2: "'kern' Horizontal Kerning in Hebrew lookup 3 per glyph data 1" uni05DB dx=-5 dy=0 dh=-5 dv=0 dx=0 dy=0 dh=0 dv=0
PairPos2: "'kern' Horizontal Kerning in Hebrew lookup 3 per glyph data 1" hyphen dx=-25 dy=0 dh=-25 dv=0 dx=0 dy=0 dh=0 dv=0
PairPos2: "'kern' Horizontal Kerning in Hebrew lookup 3 per glyph data 1" endash dx=-25 dy=0 dh=-25 dv=0 dx=0 dy=0 dh=0 dv=0
PairPos2: "'kern' Horizontal Kerning in Hebrew lookup 3 per glyph data 1" emdash dx=-25 dy=0 dh=-25 dv=0 dx=0 dy=0 dh=0 dv=0
PairPos2: "'kern' Horizontal Kerning in Hebrew lookup 3 per glyph data 1" uniFB33 dx=-4 dy=0 dh=-4 dv=0 dx=0 dy=0 dh=0 dv=0
PairPos2: "'kern' Horizontal Kerning in Hebrew lookup 3 per glyph data 1" uni05D3 dx=-4 dy=0 dh=-4 dv=0 dx=0 dy=0 dh=0 dv=0
PairPos2: "'kern' Horizontal Kerning in Hebrew lookup 3 per glyph data 1" uniFB31 dx=7 dy=0 dh=7 dv=0 dx=0 dy=0 dh=0 dv=0
PairPos2: "'kern' Horizontal Kerning in Hebrew lookup 3 per glyph data 1" uni05D1 dx=7 dy=0 dh=7 dv=0 dx=0 dy=0 dh=0 dv=0
PairPos2: "'kern' Horizontal Kerning in Hebrew lookup 3 per glyph data 1" uniFB30 dx=5 dy=0 dh=5 dv=0 dx=0 dy=0 dh=0 dv=0
PairPos2: "'kern' Horizontal Kerning in Hebrew lookup 3 per glyph data 1" uniFB2F dx=5 dy=0 dh=5 dv=0 dx=0 dy=0 dh=0 dv=0
PairPos2: "'kern' Horizontal Kerning in Hebrew lookup 3 per glyph data 1" uniFB2E dx=5 dy=0 dh=5 dv=0 dx=0 dy=0 dh=0 dv=0
PairPos2: "'kern' Horizontal Kerning in Hebrew lookup 3 per glyph data 1" uni05D0 dx=5 dy=0 dh=5 dv=0 dx=0 dy=0 dh=0 dv=0
EndChar

StartChar: AE
Encoding: 198 198 12
Width: 893
GlyphClass: 2
Flags: W
AnchorPoint: "Anchor-10" 0 0 basechar 0
AnchorPoint: "Anchor-9" 0 0 basechar 0
AnchorPoint: "Anchor-8" 0 0 basechar 0
AnchorPoint: "Anchor-7" 447 666 basechar 0
AnchorPoint: "Anchor-6" 0 0 basechar 0
AnchorPoint: "Anchor-5" 447 0 basechar 0
LayerCount: 2
Fore
SplineSet
328 666 m 1,0,-1
 838 666 l 1,1,-1
 838 540 l 1,2,-1
 576 540 l 1,3,-1
 576 407 l 1,4,-1
 793 407 l 1,5,-1
 793 285 l 1,6,-1
 576 285 l 1,7,-1
 576 126 l 1,8,-1
 838 126 l 1,9,-1
 838 0 l 1,10,-1
 433 0 l 1,11,-1
 433 152 l 1,12,-1
 222 152 l 1,13,-1
 148 0 l 1,14,-1
 0 0 l 1,15,-1
 328 666 l 1,0,-1
433 276 m 1,16,-1
 433 548 l 1,17,-1
 415 548 l 1,18,-1
 283 276 l 1,19,-1
 433 276 l 1,16,-1
EndSplineSet
PairPos2: "'kern' Horizontal Kerning in Hebrew lookup 3 per glyph data 3" uni05F4 dx=12 dy=0 dh=12 dv=0 dx=0 dy=0 dh=0 dv=0
PairPos2: "'kern' Horizontal Kerning in Hebrew lookup 3 per glyph data 3" uni05F3 dx=12 dy=0 dh=12 dv=0 dx=0 dy=0 dh=0 dv=0
PairPos2: "'kern' Horizontal Kerning in Hebrew lookup 3 per glyph data 3" quoteright dx=12 dy=0 dh=12 dv=0 dx=0 dy=0 dh=0 dv=0
PairPos2: "'kern' Horizontal Kerning in Hebrew lookup 3 per glyph data 3" quotedblright dx=12 dy=0 dh=12 dv=0 dx=0 dy=0 dh=0 dv=0
PairPos2: "'kern' Horizontal Kerning in Hebrew lookup 3 per glyph data 3" quotesingle dx=12 dy=0 dh=12 dv=0 dx=0 dy=0 dh=0 dv=0
PairPos2: "'kern' Horizontal Kerning in Hebrew lookup 3 per glyph data 3" quotedbl dx=12 dy=0 dh=12 dv=0 dx=0 dy=0 dh=0 dv=0
PairPos2: "'kern' Horizontal Kerning in Hebrew lookup 3 per glyph data 2" uni05E5 dx=-25 dy=0 dh=-25 dv=0 dx=0 dy=0 dh=0 dv=0
PairPos2: "'kern' Horizontal Kerning in Hebrew lookup 3 per glyph data 2" uniFB36 dx=-25 dy=0 dh=-25 dv=0 dx=0 dy=0 dh=0 dv=0
PairPos2: "'kern' Horizontal Kerning in Hebrew lookup 3 per glyph data 2" uni05D6 dx=-25 dy=0 dh=-25 dv=0 dx=0 dy=0 dh=0 dv=0
PairPos2: "'kern' Horizontal Kerning in Hebrew lookup 3 per glyph data 2" uniFB46 dx=-20 dy=0 dh=-20 dv=0 dx=0 dy=0 dh=0 dv=0
PairPos2: "'kern' Horizontal Kerning in Hebrew lookup 3 per glyph data 2" uni05E6 dx=-20 dy=0 dh=-20 dv=0 dx=0 dy=0 dh=0 dv=0
PairPos2: "'kern' Horizontal Kerning in Hebrew lookup 3 per glyph data 2" uniFB38 dx=5 dy=0 dh=5 dv=0 dx=0 dy=0 dh=0 dv=0
PairPos2: "'kern' Horizontal Kerning in Hebrew lookup 3 per glyph data 2" uni05D8 dx=5 dy=0 dh=5 dv=0 dx=0 dy=0 dh=0 dv=0
PairPos2: "'kern' Horizontal Kerning in Hebrew lookup 3 per glyph data 2" uniFB41 dx=5 dy=0 dh=5 dv=0 dx=0 dy=0 dh=0 dv=0
PairPos2: "'kern' Horizontal Kerning in Hebrew lookup 3 per glyph data 2" uni05E1 dx=5 dy=0 dh=5 dv=0 dx=0 dy=0 dh=0 dv=0
PairPos2: "'kern' Horizontal Kerning in Hebrew lookup 3 per glyph data 2" uniFB3B dx=10 dy=0 dh=10 dv=0 dx=0 dy=0 dh=0 dv=0
PairPos2: "'kern' Horizontal Kerning in Hebrew lookup 3 per glyph data 2" uni05DB dx=10 dy=0 dh=10 dv=0 dx=0 dy=0 dh=0 dv=0
PairPos2: "'kern' Horizontal Kerning in Hebrew lookup 3 per glyph data 2" uniFB33 dx=-20 dy=0 dh=-20 dv=0 dx=0 dy=0 dh=0 dv=0
PairPos2: "'kern' Horizontal Kerning in Hebrew lookup 3 per glyph data 2" uni05D3 dx=-20 dy=0 dh=-20 dv=0 dx=0 dy=0 dh=0 dv=0
PairPos2: "'kern' Horizontal Kerning in Hebrew lookup 3 per glyph data 2" uniFB31 dx=-15 dy=0 dh=-15 dv=0 dx=0 dy=0 dh=0 dv=0
PairPos2: "'kern' Horizontal Kerning in Hebrew lookup 3 per glyph data 2" uni05D1 dx=-15 dy=0 dh=-15 dv=0 dx=0 dy=0 dh=0 dv=0
PairPos2: "'kern' Horizontal Kerning in Hebrew lookup 3 per glyph data 2" uniFB30 dx=-12 dy=0 dh=-12 dv=0 dx=0 dy=0 dh=0 dv=0
PairPos2: "'kern' Horizontal Kerning in Hebrew lookup 3 per glyph data 2" uniFB2F dx=-12 dy=0 dh=-12 dv=0 dx=0 dy=0 dh=0 dv=0
PairPos2: "'kern' Horizontal Kerning in Hebrew lookup 3 per glyph data 2" uniFB2E dx=-12 dy=0 dh=-12 dv=0 dx=0 dy=0 dh=0 dv=0
PairPos2: "'kern' Horizontal Kerning in Hebrew lookup 3 per glyph data 2" uni05D0 dx=-12 dy=0 dh=-12 dv=0 dx=0 dy=0 dh=0 dv=0
PairPos2: "'kern' Horizontal Kerning in Hebrew lookup 3 per glyph data 1" uni05E5 dx=-5 dy=0 dh=-5 dv=0 dx=0 dy=0 dh=0 dv=0
PairPos2: "'kern' Horizontal Kerning in Hebrew lookup 3 per glyph data 1" uniFB36 dx=-10 dy=0 dh=-10 dv=0 dx=0 dy=0 dh=0 dv=0
PairPos2: "'kern' Horizontal Kerning in Hebrew lookup 3 per glyph data 1" uni05D6 dx=-10 dy=0 dh=-10 dv=0 dx=0 dy=0 dh=0 dv=0
PairPos2: "'kern' Horizontal Kerning in Hebrew lookup 3 per glyph data 1" uniFB39 dx=-5 dy=0 dh=-5 dv=0 dx=0 dy=0 dh=0 dv=0
PairPos2: "'kern' Horizontal Kerning in Hebrew lookup 3 per glyph data 1" uni05D9 dx=-5 dy=0 dh=-5 dv=0 dx=0 dy=0 dh=0 dv=0
PairPos2: "'kern' Horizontal Kerning in Hebrew lookup 3 per glyph data 1" uniFB38 dx=-10 dy=0 dh=-10 dv=0 dx=0 dy=0 dh=0 dv=0
PairPos2: "'kern' Horizontal Kerning in Hebrew lookup 3 per glyph data 1" uni05D8 dx=-10 dy=0 dh=-10 dv=0 dx=0 dy=0 dh=0 dv=0
PairPos2: "'kern' Horizontal Kerning in Hebrew lookup 3 per glyph data 1" uniFB41 dx=-7 dy=0 dh=-7 dv=0 dx=0 dy=0 dh=0 dv=0
PairPos2: "'kern' Horizontal Kerning in Hebrew lookup 3 per glyph data 1" uni05E1 dx=-7 dy=0 dh=-7 dv=0 dx=0 dy=0 dh=0 dv=0
PairPos2: "'kern' Horizontal Kerning in Hebrew lookup 3 per glyph data 1" uni05F4 dx=5 dy=0 dh=5 dv=0 dx=0 dy=0 dh=0 dv=0
PairPos2: "'kern' Horizontal Kerning in Hebrew lookup 3 per glyph data 1" uni05F3 dx=5 dy=0 dh=5 dv=0 dx=0 dy=0 dh=0 dv=0
PairPos2: "'kern' Horizontal Kerning in Hebrew lookup 3 per glyph data 1" quoteright dx=5 dy=0 dh=5 dv=0 dx=0 dy=0 dh=0 dv=0
PairPos2: "'kern' Horizontal Kerning in Hebrew lookup 3 per glyph data 1" quotedblright dx=5 dy=0 dh=5 dv=0 dx=0 dy=0 dh=0 dv=0
PairPos2: "'kern' Horizontal Kerning in Hebrew lookup 3 per glyph data 1" quotesingle dx=5 dy=0 dh=5 dv=0 dx=0 dy=0 dh=0 dv=0
PairPos2: "'kern' Horizontal Kerning in Hebrew lookup 3 per glyph data 1" quotedbl dx=5 dy=0 dh=5 dv=0 dx=0 dy=0 dh=0 dv=0
PairPos2: "'kern' Horizontal Kerning in Hebrew lookup 3 per glyph data 1" period dx=10 dy=0 dh=10 dv=0 dx=0 dy=0 dh=0 dv=0
PairPos2: "'kern' Horizontal Kerning in Hebrew lookup 3 per glyph data 1" ellipsis dx=10 dy=0 dh=10 dv=0 dx=0 dy=0 dh=0 dv=0
PairPos2: "'kern' Horizontal Kerning in Hebrew lookup 3 per glyph data 1" uniFB3C dx=-5 dy=0 dh=-5 dv=0 dx=0 dy=0 dh=0 dv=0
PairPos2: "'kern' Horizontal Kerning in Hebrew lookup 3 per glyph data 1" uni05DC dx=-5 dy=0 dh=-5 dv=0 dx=0 dy=0 dh=0 dv=0
PairPos2: "'kern' Horizontal Kerning in Hebrew lookup 3 per glyph data 1" uniFB3B dx=-5 dy=0 dh=-5 dv=0 dx=0 dy=0 dh=0 dv=0
PairPos2: "'kern' Horizontal Kerning in Hebrew lookup 3 per glyph data 1" uni05DB dx=-5 dy=0 dh=-5 dv=0 dx=0 dy=0 dh=0 dv=0
PairPos2: "'kern' Horizontal Kerning in Hebrew lookup 3 per glyph data 1" hyphen dx=-25 dy=0 dh=-25 dv=0 dx=0 dy=0 dh=0 dv=0
PairPos2: "'kern' Horizontal Kerning in Hebrew lookup 3 per glyph data 1" endash dx=-25 dy=0 dh=-25 dv=0 dx=0 dy=0 dh=0 dv=0
PairPos2: "'kern' Horizontal Kerning in Hebrew lookup 3 per glyph data 1" emdash dx=-25 dy=0 dh=-25 dv=0 dx=0 dy=0 dh=0 dv=0
PairPos2: "'kern' Horizontal Kerning in Hebrew lookup 3 per glyph data 1" uniFB33 dx=-4 dy=0 dh=-4 dv=0 dx=0 dy=0 dh=0 dv=0
PairPos2: "'kern' Horizontal Kerning in Hebrew lookup 3 per glyph data 1" uni05D3 dx=-4 dy=0 dh=-4 dv=0 dx=0 dy=0 dh=0 dv=0
PairPos2: "'kern' Horizontal Kerning in Hebrew lookup 3 per glyph data 1" uniFB31 dx=7 dy=0 dh=7 dv=0 dx=0 dy=0 dh=0 dv=0
PairPos2: "'kern' Horizontal Kerning in Hebrew lookup 3 per glyph data 1" uni05D1 dx=7 dy=0 dh=7 dv=0 dx=0 dy=0 dh=0 dv=0
PairPos2: "'kern' Horizontal Kerning in Hebrew lookup 3 per glyph data 1" uniFB30 dx=5 dy=0 dh=5 dv=0 dx=0 dy=0 dh=0 dv=0
PairPos2: "'kern' Horizontal Kerning in Hebrew lookup 3 per glyph data 1" uniFB2F dx=5 dy=0 dh=5 dv=0 dx=0 dy=0 dh=0 dv=0
PairPos2: "'kern' Horizontal Kerning in Hebrew lookup 3 per glyph data 1" uniFB2E dx=5 dy=0 dh=5 dv=0 dx=0 dy=0 dh=0 dv=0
PairPos2: "'kern' Horizontal Kerning in Hebrew lookup 3 per glyph data 1" uni05D0 dx=5 dy=0 dh=5 dv=0 dx=0 dy=0 dh=0 dv=0
EndChar

StartChar: B
Encoding: 66 66 13
Width: 569
GlyphClass: 2
Flags: W
AnchorPoint: "Anchor-10" 0 0 basechar 0
AnchorPoint: "Anchor-9" 0 0 basechar 0
AnchorPoint: "Anchor-8" 0 0 basechar 0
AnchorPoint: "Anchor-7" 285 666 basechar 0
AnchorPoint: "Anchor-6" 0 0 basechar 0
AnchorPoint: "Anchor-5" 285 0 basechar 0
LayerCount: 2
Fore
SplineSet
70 666 m 1,0,-1
 293 666 l 2,1,2
 390 666 390 666 446.5 619.5 c 128,-1,3
 503 573 503 573 503 493 c 0,4,5
 503 402 503 402 424 353 c 1,6,7
 529 311 529 311 529 205 c 0,8,9
 529 145 529 145 499 98.5 c 128,-1,10
 469 52 469 52 415.5 26 c 128,-1,11
 362 0 362 0 295 0 c 2,12,-1
 70 0 l 1,13,-1
 70 666 l 1,0,-1
259 395 m 2,14,15
 309 395 309 395 336.5 418 c 128,-1,16
 364 441 364 441 364 482 c 0,17,18
 364 556 364 556 272 556 c 2,19,-1
 209 556 l 1,20,-1
 209 395 l 1,21,-1
 259 395 l 2,14,15
273 111 m 2,22,23
 327 111 327 111 357.5 136 c 128,-1,24
 388 161 388 161 388 203 c 0,25,26
 388 241 388 241 362 262 c 128,-1,27
 336 283 336 283 287 283 c 2,28,-1
 209 283 l 1,29,-1
 209 111 l 1,30,-1
 273 111 l 2,22,23
EndSplineSet
PairPos2: "'kern' Horizontal Kerning in Hebrew lookup 3 per glyph data 3" uni05F4 dx=12 dy=0 dh=12 dv=0 dx=0 dy=0 dh=0 dv=0
PairPos2: "'kern' Horizontal Kerning in Hebrew lookup 3 per glyph data 3" uni05F3 dx=12 dy=0 dh=12 dv=0 dx=0 dy=0 dh=0 dv=0
PairPos2: "'kern' Horizontal Kerning in Hebrew lookup 3 per glyph data 3" quoteright dx=12 dy=0 dh=12 dv=0 dx=0 dy=0 dh=0 dv=0
PairPos2: "'kern' Horizontal Kerning in Hebrew lookup 3 per glyph data 3" quotedblright dx=12 dy=0 dh=12 dv=0 dx=0 dy=0 dh=0 dv=0
PairPos2: "'kern' Horizontal Kerning in Hebrew lookup 3 per glyph data 3" quotesingle dx=12 dy=0 dh=12 dv=0 dx=0 dy=0 dh=0 dv=0
PairPos2: "'kern' Horizontal Kerning in Hebrew lookup 3 per glyph data 3" quotedbl dx=12 dy=0 dh=12 dv=0 dx=0 dy=0 dh=0 dv=0
PairPos2: "'kern' Horizontal Kerning in Hebrew lookup 3 per glyph data 2" uni05E5 dx=-25 dy=0 dh=-25 dv=0 dx=0 dy=0 dh=0 dv=0
PairPos2: "'kern' Horizontal Kerning in Hebrew lookup 3 per glyph data 2" uniFB36 dx=-25 dy=0 dh=-25 dv=0 dx=0 dy=0 dh=0 dv=0
PairPos2: "'kern' Horizontal Kerning in Hebrew lookup 3 per glyph data 2" uni05D6 dx=-25 dy=0 dh=-25 dv=0 dx=0 dy=0 dh=0 dv=0
PairPos2: "'kern' Horizontal Kerning in Hebrew lookup 3 per glyph data 2" uniFB46 dx=-20 dy=0 dh=-20 dv=0 dx=0 dy=0 dh=0 dv=0
PairPos2: "'kern' Horizontal Kerning in Hebrew lookup 3 per glyph data 2" uni05E6 dx=-20 dy=0 dh=-20 dv=0 dx=0 dy=0 dh=0 dv=0
PairPos2: "'kern' Horizontal Kerning in Hebrew lookup 3 per glyph data 2" uniFB38 dx=5 dy=0 dh=5 dv=0 dx=0 dy=0 dh=0 dv=0
PairPos2: "'kern' Horizontal Kerning in Hebrew lookup 3 per glyph data 2" uni05D8 dx=5 dy=0 dh=5 dv=0 dx=0 dy=0 dh=0 dv=0
PairPos2: "'kern' Horizontal Kerning in Hebrew lookup 3 per glyph data 2" uniFB41 dx=5 dy=0 dh=5 dv=0 dx=0 dy=0 dh=0 dv=0
PairPos2: "'kern' Horizontal Kerning in Hebrew lookup 3 per glyph data 2" uni05E1 dx=5 dy=0 dh=5 dv=0 dx=0 dy=0 dh=0 dv=0
PairPos2: "'kern' Horizontal Kerning in Hebrew lookup 3 per glyph data 2" uniFB3B dx=10 dy=0 dh=10 dv=0 dx=0 dy=0 dh=0 dv=0
PairPos2: "'kern' Horizontal Kerning in Hebrew lookup 3 per glyph data 2" uni05DB dx=10 dy=0 dh=10 dv=0 dx=0 dy=0 dh=0 dv=0
PairPos2: "'kern' Horizontal Kerning in Hebrew lookup 3 per glyph data 2" uniFB33 dx=-20 dy=0 dh=-20 dv=0 dx=0 dy=0 dh=0 dv=0
PairPos2: "'kern' Horizontal Kerning in Hebrew lookup 3 per glyph data 2" uni05D3 dx=-20 dy=0 dh=-20 dv=0 dx=0 dy=0 dh=0 dv=0
PairPos2: "'kern' Horizontal Kerning in Hebrew lookup 3 per glyph data 2" uniFB31 dx=-15 dy=0 dh=-15 dv=0 dx=0 dy=0 dh=0 dv=0
PairPos2: "'kern' Horizontal Kerning in Hebrew lookup 3 per glyph data 2" uni05D1 dx=-15 dy=0 dh=-15 dv=0 dx=0 dy=0 dh=0 dv=0
PairPos2: "'kern' Horizontal Kerning in Hebrew lookup 3 per glyph data 2" uniFB30 dx=-12 dy=0 dh=-12 dv=0 dx=0 dy=0 dh=0 dv=0
PairPos2: "'kern' Horizontal Kerning in Hebrew lookup 3 per glyph data 2" uniFB2F dx=-12 dy=0 dh=-12 dv=0 dx=0 dy=0 dh=0 dv=0
PairPos2: "'kern' Horizontal Kerning in Hebrew lookup 3 per glyph data 2" uniFB2E dx=-12 dy=0 dh=-12 dv=0 dx=0 dy=0 dh=0 dv=0
PairPos2: "'kern' Horizontal Kerning in Hebrew lookup 3 per glyph data 2" uni05D0 dx=-12 dy=0 dh=-12 dv=0 dx=0 dy=0 dh=0 dv=0
PairPos2: "'kern' Horizontal Kerning in Hebrew lookup 3 per glyph data 1" uni05E5 dx=-5 dy=0 dh=-5 dv=0 dx=0 dy=0 dh=0 dv=0
PairPos2: "'kern' Horizontal Kerning in Hebrew lookup 3 per glyph data 1" uniFB36 dx=-10 dy=0 dh=-10 dv=0 dx=0 dy=0 dh=0 dv=0
PairPos2: "'kern' Horizontal Kerning in Hebrew lookup 3 per glyph data 1" uni05D6 dx=-10 dy=0 dh=-10 dv=0 dx=0 dy=0 dh=0 dv=0
PairPos2: "'kern' Horizontal Kerning in Hebrew lookup 3 per glyph data 1" uniFB39 dx=-5 dy=0 dh=-5 dv=0 dx=0 dy=0 dh=0 dv=0
PairPos2: "'kern' Horizontal Kerning in Hebrew lookup 3 per glyph data 1" uni05D9 dx=-5 dy=0 dh=-5 dv=0 dx=0 dy=0 dh=0 dv=0
PairPos2: "'kern' Horizontal Kerning in Hebrew lookup 3 per glyph data 1" uniFB38 dx=-10 dy=0 dh=-10 dv=0 dx=0 dy=0 dh=0 dv=0
PairPos2: "'kern' Horizontal Kerning in Hebrew lookup 3 per glyph data 1" uni05D8 dx=-10 dy=0 dh=-10 dv=0 dx=0 dy=0 dh=0 dv=0
PairPos2: "'kern' Horizontal Kerning in Hebrew lookup 3 per glyph data 1" uniFB41 dx=-7 dy=0 dh=-7 dv=0 dx=0 dy=0 dh=0 dv=0
PairPos2: "'kern' Horizontal Kerning in Hebrew lookup 3 per glyph data 1" uni05E1 dx=-7 dy=0 dh=-7 dv=0 dx=0 dy=0 dh=0 dv=0
PairPos2: "'kern' Horizontal Kerning in Hebrew lookup 3 per glyph data 1" uni05F4 dx=5 dy=0 dh=5 dv=0 dx=0 dy=0 dh=0 dv=0
PairPos2: "'kern' Horizontal Kerning in Hebrew lookup 3 per glyph data 1" uni05F3 dx=5 dy=0 dh=5 dv=0 dx=0 dy=0 dh=0 dv=0
PairPos2: "'kern' Horizontal Kerning in Hebrew lookup 3 per glyph data 1" quoteright dx=5 dy=0 dh=5 dv=0 dx=0 dy=0 dh=0 dv=0
PairPos2: "'kern' Horizontal Kerning in Hebrew lookup 3 per glyph data 1" quotedblright dx=5 dy=0 dh=5 dv=0 dx=0 dy=0 dh=0 dv=0
PairPos2: "'kern' Horizontal Kerning in Hebrew lookup 3 per glyph data 1" quotesingle dx=5 dy=0 dh=5 dv=0 dx=0 dy=0 dh=0 dv=0
PairPos2: "'kern' Horizontal Kerning in Hebrew lookup 3 per glyph data 1" quotedbl dx=5 dy=0 dh=5 dv=0 dx=0 dy=0 dh=0 dv=0
PairPos2: "'kern' Horizontal Kerning in Hebrew lookup 3 per glyph data 1" period dx=10 dy=0 dh=10 dv=0 dx=0 dy=0 dh=0 dv=0
PairPos2: "'kern' Horizontal Kerning in Hebrew lookup 3 per glyph data 1" ellipsis dx=10 dy=0 dh=10 dv=0 dx=0 dy=0 dh=0 dv=0
PairPos2: "'kern' Horizontal Kerning in Hebrew lookup 3 per glyph data 1" uniFB3C dx=-5 dy=0 dh=-5 dv=0 dx=0 dy=0 dh=0 dv=0
PairPos2: "'kern' Horizontal Kerning in Hebrew lookup 3 per glyph data 1" uni05DC dx=-5 dy=0 dh=-5 dv=0 dx=0 dy=0 dh=0 dv=0
PairPos2: "'kern' Horizontal Kerning in Hebrew lookup 3 per glyph data 1" uniFB3B dx=-5 dy=0 dh=-5 dv=0 dx=0 dy=0 dh=0 dv=0
PairPos2: "'kern' Horizontal Kerning in Hebrew lookup 3 per glyph data 1" uni05DB dx=-5 dy=0 dh=-5 dv=0 dx=0 dy=0 dh=0 dv=0
PairPos2: "'kern' Horizontal Kerning in Hebrew lookup 3 per glyph data 1" hyphen dx=-25 dy=0 dh=-25 dv=0 dx=0 dy=0 dh=0 dv=0
PairPos2: "'kern' Horizontal Kerning in Hebrew lookup 3 per glyph data 1" endash dx=-25 dy=0 dh=-25 dv=0 dx=0 dy=0 dh=0 dv=0
PairPos2: "'kern' Horizontal Kerning in Hebrew lookup 3 per glyph data 1" emdash dx=-25 dy=0 dh=-25 dv=0 dx=0 dy=0 dh=0 dv=0
PairPos2: "'kern' Horizontal Kerning in Hebrew lookup 3 per glyph data 1" uniFB33 dx=-4 dy=0 dh=-4 dv=0 dx=0 dy=0 dh=0 dv=0
PairPos2: "'kern' Horizontal Kerning in Hebrew lookup 3 per glyph data 1" uni05D3 dx=-4 dy=0 dh=-4 dv=0 dx=0 dy=0 dh=0 dv=0
PairPos2: "'kern' Horizontal Kerning in Hebrew lookup 3 per glyph data 1" uniFB31 dx=7 dy=0 dh=7 dv=0 dx=0 dy=0 dh=0 dv=0
PairPos2: "'kern' Horizontal Kerning in Hebrew lookup 3 per glyph data 1" uni05D1 dx=7 dy=0 dh=7 dv=0 dx=0 dy=0 dh=0 dv=0
PairPos2: "'kern' Horizontal Kerning in Hebrew lookup 3 per glyph data 1" uniFB30 dx=5 dy=0 dh=5 dv=0 dx=0 dy=0 dh=0 dv=0
PairPos2: "'kern' Horizontal Kerning in Hebrew lookup 3 per glyph data 1" uniFB2F dx=5 dy=0 dh=5 dv=0 dx=0 dy=0 dh=0 dv=0
PairPos2: "'kern' Horizontal Kerning in Hebrew lookup 3 per glyph data 1" uniFB2E dx=5 dy=0 dh=5 dv=0 dx=0 dy=0 dh=0 dv=0
PairPos2: "'kern' Horizontal Kerning in Hebrew lookup 3 per glyph data 1" uni05D0 dx=5 dy=0 dh=5 dv=0 dx=0 dy=0 dh=0 dv=0
EndChar

StartChar: C
Encoding: 67 67 14
Width: 594
GlyphClass: 2
Flags: W
AnchorPoint: "Anchor-10" 0 0 basechar 0
AnchorPoint: "Anchor-9" 0 0 basechar 0
AnchorPoint: "Anchor-8" 0 0 basechar 0
AnchorPoint: "Anchor-7" 352 666 basechar 0
AnchorPoint: "Anchor-6" 0 0 basechar 0
AnchorPoint: "Anchor-5" 342 0 basechar 0
LayerCount: 2
Fore
SplineSet
131 73 m 128,-1,1
 41 159 41 159 41 316 c 0,2,3
 41 423 41 423 83.5 505 c 128,-1,4
 126 587 126 587 204 631.5 c 128,-1,5
 282 676 282 676 384 676 c 0,6,7
 467 676 467 676 544 646 c 1,8,-1
 517 517 l 1,9,10
 449 548 449 548 385 548 c 0,11,12
 294 548 294 548 241 488.5 c 128,-1,13
 188 429 188 429 188 330 c 0,14,15
 188 229 188 229 244 173 c 128,-1,16
 300 117 300 117 399 117 c 0,17,18
 464 117 464 117 525 138 c 1,19,-1
 547 15 l 1,20,21
 474 -13 474 -13 381 -13 c 0,22,0
 221 -13 221 -13 131 73 c 128,-1,1
EndSplineSet
PairPos2: "'kern' Horizontal Kerning in Hebrew lookup 3 per glyph data 3" uni05F4 dx=12 dy=0 dh=12 dv=0 dx=0 dy=0 dh=0 dv=0
PairPos2: "'kern' Horizontal Kerning in Hebrew lookup 3 per glyph data 3" uni05F3 dx=12 dy=0 dh=12 dv=0 dx=0 dy=0 dh=0 dv=0
PairPos2: "'kern' Horizontal Kerning in Hebrew lookup 3 per glyph data 3" quoteright dx=12 dy=0 dh=12 dv=0 dx=0 dy=0 dh=0 dv=0
PairPos2: "'kern' Horizontal Kerning in Hebrew lookup 3 per glyph data 3" quotedblright dx=12 dy=0 dh=12 dv=0 dx=0 dy=0 dh=0 dv=0
PairPos2: "'kern' Horizontal Kerning in Hebrew lookup 3 per glyph data 3" quotesingle dx=12 dy=0 dh=12 dv=0 dx=0 dy=0 dh=0 dv=0
PairPos2: "'kern' Horizontal Kerning in Hebrew lookup 3 per glyph data 3" quotedbl dx=12 dy=0 dh=12 dv=0 dx=0 dy=0 dh=0 dv=0
PairPos2: "'kern' Horizontal Kerning in Hebrew lookup 3 per glyph data 2" uni05E5 dx=-25 dy=0 dh=-25 dv=0 dx=0 dy=0 dh=0 dv=0
PairPos2: "'kern' Horizontal Kerning in Hebrew lookup 3 per glyph data 2" uniFB36 dx=-25 dy=0 dh=-25 dv=0 dx=0 dy=0 dh=0 dv=0
PairPos2: "'kern' Horizontal Kerning in Hebrew lookup 3 per glyph data 2" uni05D6 dx=-25 dy=0 dh=-25 dv=0 dx=0 dy=0 dh=0 dv=0
PairPos2: "'kern' Horizontal Kerning in Hebrew lookup 3 per glyph data 2" uniFB46 dx=-20 dy=0 dh=-20 dv=0 dx=0 dy=0 dh=0 dv=0
PairPos2: "'kern' Horizontal Kerning in Hebrew lookup 3 per glyph data 2" uni05E6 dx=-20 dy=0 dh=-20 dv=0 dx=0 dy=0 dh=0 dv=0
PairPos2: "'kern' Horizontal Kerning in Hebrew lookup 3 per glyph data 2" uniFB38 dx=5 dy=0 dh=5 dv=0 dx=0 dy=0 dh=0 dv=0
PairPos2: "'kern' Horizontal Kerning in Hebrew lookup 3 per glyph data 2" uni05D8 dx=5 dy=0 dh=5 dv=0 dx=0 dy=0 dh=0 dv=0
PairPos2: "'kern' Horizontal Kerning in Hebrew lookup 3 per glyph data 2" uniFB41 dx=5 dy=0 dh=5 dv=0 dx=0 dy=0 dh=0 dv=0
PairPos2: "'kern' Horizontal Kerning in Hebrew lookup 3 per glyph data 2" uni05E1 dx=5 dy=0 dh=5 dv=0 dx=0 dy=0 dh=0 dv=0
PairPos2: "'kern' Horizontal Kerning in Hebrew lookup 3 per glyph data 2" uniFB3B dx=10 dy=0 dh=10 dv=0 dx=0 dy=0 dh=0 dv=0
PairPos2: "'kern' Horizontal Kerning in Hebrew lookup 3 per glyph data 2" uni05DB dx=10 dy=0 dh=10 dv=0 dx=0 dy=0 dh=0 dv=0
PairPos2: "'kern' Horizontal Kerning in Hebrew lookup 3 per glyph data 2" uniFB33 dx=-20 dy=0 dh=-20 dv=0 dx=0 dy=0 dh=0 dv=0
PairPos2: "'kern' Horizontal Kerning in Hebrew lookup 3 per glyph data 2" uni05D3 dx=-20 dy=0 dh=-20 dv=0 dx=0 dy=0 dh=0 dv=0
PairPos2: "'kern' Horizontal Kerning in Hebrew lookup 3 per glyph data 2" uniFB31 dx=-15 dy=0 dh=-15 dv=0 dx=0 dy=0 dh=0 dv=0
PairPos2: "'kern' Horizontal Kerning in Hebrew lookup 3 per glyph data 2" uni05D1 dx=-15 dy=0 dh=-15 dv=0 dx=0 dy=0 dh=0 dv=0
PairPos2: "'kern' Horizontal Kerning in Hebrew lookup 3 per glyph data 2" uniFB30 dx=-12 dy=0 dh=-12 dv=0 dx=0 dy=0 dh=0 dv=0
PairPos2: "'kern' Horizontal Kerning in Hebrew lookup 3 per glyph data 2" uniFB2F dx=-12 dy=0 dh=-12 dv=0 dx=0 dy=0 dh=0 dv=0
PairPos2: "'kern' Horizontal Kerning in Hebrew lookup 3 per glyph data 2" uniFB2E dx=-12 dy=0 dh=-12 dv=0 dx=0 dy=0 dh=0 dv=0
PairPos2: "'kern' Horizontal Kerning in Hebrew lookup 3 per glyph data 2" uni05D0 dx=-12 dy=0 dh=-12 dv=0 dx=0 dy=0 dh=0 dv=0
PairPos2: "'kern' Horizontal Kerning in Hebrew lookup 3 per glyph data 1" uni05E5 dx=-5 dy=0 dh=-5 dv=0 dx=0 dy=0 dh=0 dv=0
PairPos2: "'kern' Horizontal Kerning in Hebrew lookup 3 per glyph data 1" uniFB36 dx=-10 dy=0 dh=-10 dv=0 dx=0 dy=0 dh=0 dv=0
PairPos2: "'kern' Horizontal Kerning in Hebrew lookup 3 per glyph data 1" uni05D6 dx=-10 dy=0 dh=-10 dv=0 dx=0 dy=0 dh=0 dv=0
PairPos2: "'kern' Horizontal Kerning in Hebrew lookup 3 per glyph data 1" uniFB39 dx=-5 dy=0 dh=-5 dv=0 dx=0 dy=0 dh=0 dv=0
PairPos2: "'kern' Horizontal Kerning in Hebrew lookup 3 per glyph data 1" uni05D9 dx=-5 dy=0 dh=-5 dv=0 dx=0 dy=0 dh=0 dv=0
PairPos2: "'kern' Horizontal Kerning in Hebrew lookup 3 per glyph data 1" uniFB38 dx=-10 dy=0 dh=-10 dv=0 dx=0 dy=0 dh=0 dv=0
PairPos2: "'kern' Horizontal Kerning in Hebrew lookup 3 per glyph data 1" uni05D8 dx=-10 dy=0 dh=-10 dv=0 dx=0 dy=0 dh=0 dv=0
PairPos2: "'kern' Horizontal Kerning in Hebrew lookup 3 per glyph data 1" uniFB41 dx=-7 dy=0 dh=-7 dv=0 dx=0 dy=0 dh=0 dv=0
PairPos2: "'kern' Horizontal Kerning in Hebrew lookup 3 per glyph data 1" uni05E1 dx=-7 dy=0 dh=-7 dv=0 dx=0 dy=0 dh=0 dv=0
PairPos2: "'kern' Horizontal Kerning in Hebrew lookup 3 per glyph data 1" uni05F4 dx=5 dy=0 dh=5 dv=0 dx=0 dy=0 dh=0 dv=0
PairPos2: "'kern' Horizontal Kerning in Hebrew lookup 3 per glyph data 1" uni05F3 dx=5 dy=0 dh=5 dv=0 dx=0 dy=0 dh=0 dv=0
PairPos2: "'kern' Horizontal Kerning in Hebrew lookup 3 per glyph data 1" quoteright dx=5 dy=0 dh=5 dv=0 dx=0 dy=0 dh=0 dv=0
PairPos2: "'kern' Horizontal Kerning in Hebrew lookup 3 per glyph data 1" quotedblright dx=5 dy=0 dh=5 dv=0 dx=0 dy=0 dh=0 dv=0
PairPos2: "'kern' Horizontal Kerning in Hebrew lookup 3 per glyph data 1" quotesingle dx=5 dy=0 dh=5 dv=0 dx=0 dy=0 dh=0 dv=0
PairPos2: "'kern' Horizontal Kerning in Hebrew lookup 3 per glyph data 1" quotedbl dx=5 dy=0 dh=5 dv=0 dx=0 dy=0 dh=0 dv=0
PairPos2: "'kern' Horizontal Kerning in Hebrew lookup 3 per glyph data 1" period dx=10 dy=0 dh=10 dv=0 dx=0 dy=0 dh=0 dv=0
PairPos2: "'kern' Horizontal Kerning in Hebrew lookup 3 per glyph data 1" ellipsis dx=10 dy=0 dh=10 dv=0 dx=0 dy=0 dh=0 dv=0
PairPos2: "'kern' Horizontal Kerning in Hebrew lookup 3 per glyph data 1" uniFB3C dx=-5 dy=0 dh=-5 dv=0 dx=0 dy=0 dh=0 dv=0
PairPos2: "'kern' Horizontal Kerning in Hebrew lookup 3 per glyph data 1" uni05DC dx=-5 dy=0 dh=-5 dv=0 dx=0 dy=0 dh=0 dv=0
PairPos2: "'kern' Horizontal Kerning in Hebrew lookup 3 per glyph data 1" uniFB3B dx=-5 dy=0 dh=-5 dv=0 dx=0 dy=0 dh=0 dv=0
PairPos2: "'kern' Horizontal Kerning in Hebrew lookup 3 per glyph data 1" uni05DB dx=-5 dy=0 dh=-5 dv=0 dx=0 dy=0 dh=0 dv=0
PairPos2: "'kern' Horizontal Kerning in Hebrew lookup 3 per glyph data 1" hyphen dx=-25 dy=0 dh=-25 dv=0 dx=0 dy=0 dh=0 dv=0
PairPos2: "'kern' Horizontal Kerning in Hebrew lookup 3 per glyph data 1" endash dx=-25 dy=0 dh=-25 dv=0 dx=0 dy=0 dh=0 dv=0
PairPos2: "'kern' Horizontal Kerning in Hebrew lookup 3 per glyph data 1" emdash dx=-25 dy=0 dh=-25 dv=0 dx=0 dy=0 dh=0 dv=0
PairPos2: "'kern' Horizontal Kerning in Hebrew lookup 3 per glyph data 1" uniFB33 dx=-4 dy=0 dh=-4 dv=0 dx=0 dy=0 dh=0 dv=0
PairPos2: "'kern' Horizontal Kerning in Hebrew lookup 3 per glyph data 1" uni05D3 dx=-4 dy=0 dh=-4 dv=0 dx=0 dy=0 dh=0 dv=0
PairPos2: "'kern' Horizontal Kerning in Hebrew lookup 3 per glyph data 1" uniFB31 dx=7 dy=0 dh=7 dv=0 dx=0 dy=0 dh=0 dv=0
PairPos2: "'kern' Horizontal Kerning in Hebrew lookup 3 per glyph data 1" uni05D1 dx=7 dy=0 dh=7 dv=0 dx=0 dy=0 dh=0 dv=0
PairPos2: "'kern' Horizontal Kerning in Hebrew lookup 3 per glyph data 1" uniFB30 dx=5 dy=0 dh=5 dv=0 dx=0 dy=0 dh=0 dv=0
PairPos2: "'kern' Horizontal Kerning in Hebrew lookup 3 per glyph data 1" uniFB2F dx=5 dy=0 dh=5 dv=0 dx=0 dy=0 dh=0 dv=0
PairPos2: "'kern' Horizontal Kerning in Hebrew lookup 3 per glyph data 1" uniFB2E dx=5 dy=0 dh=5 dv=0 dx=0 dy=0 dh=0 dv=0
PairPos2: "'kern' Horizontal Kerning in Hebrew lookup 3 per glyph data 1" uni05D0 dx=5 dy=0 dh=5 dv=0 dx=0 dy=0 dh=0 dv=0
EndChar

StartChar: Ccedilla
Encoding: 199 199 17
Width: 594
GlyphClass: 2
Flags: W
AnchorPoint: "Anchor-10" 0 0 basechar 0
AnchorPoint: "Anchor-9" 0 0 basechar 0
AnchorPoint: "Anchor-8" 0 0 basechar 0
AnchorPoint: "Anchor-7" 352 666 basechar 0
AnchorPoint: "Anchor-6" 0 0 basechar 0
AnchorPoint: "Anchor-5" 342 -218 basechar 0
LayerCount: 2
Fore
SplineSet
433 -88.5 m 128,-1,1
 462 -113 462 -113 462 -151 c 0,2,3
 462 -191 462 -191 427 -217 c 128,-1,4
 392 -243 392 -243 343 -243 c 0,5,6
 307 -243 307 -243 272 -230.5 c 128,-1,7
 237 -218 237 -218 214 -198 c 1,8,-1
 244 -155 l 1,9,10
 265 -170 265 -170 288.5 -178.5 c 128,-1,11
 312 -187 312 -187 330 -187 c 0,12,13
 366 -187 366 -187 366 -156 c 0,14,15
 366 -124 366 -124 291 -126 c 1,16,-1
 270 -112 l 1,17,-1
 306 -8 l 1,18,19
 180 12 180 12 110.5 95.5 c 128,-1,20
 41 179 41 179 41 316 c 0,21,22
 41 423 41 423 83.5 505 c 128,-1,23
 126 587 126 587 204 631.5 c 128,-1,24
 282 676 282 676 384 676 c 0,25,26
 467 676 467 676 544 646 c 1,27,-1
 517 517 l 1,28,29
 449 548 449 548 385 548 c 0,30,31
 294 548 294 548 241 488.5 c 128,-1,32
 188 429 188 429 188 330 c 0,33,34
 188 229 188 229 244 173 c 128,-1,35
 300 117 300 117 399 117 c 0,36,37
 464 117 464 117 525 138 c 1,38,-1
 547 15 l 1,39,40
 474 -13 474 -13 381 -13 c 2,41,-1
 375 -13 l 1,42,-1
 356 -56 l 1,43,0
 404 -64 404 -64 433 -88.5 c 128,-1,1
EndSplineSet
PairPos2: "'kern' Horizontal Kerning in Hebrew lookup 3 per glyph data 3" uni05F4 dx=12 dy=0 dh=12 dv=0 dx=0 dy=0 dh=0 dv=0
PairPos2: "'kern' Horizontal Kerning in Hebrew lookup 3 per glyph data 3" uni05F3 dx=12 dy=0 dh=12 dv=0 dx=0 dy=0 dh=0 dv=0
PairPos2: "'kern' Horizontal Kerning in Hebrew lookup 3 per glyph data 3" quoteright dx=12 dy=0 dh=12 dv=0 dx=0 dy=0 dh=0 dv=0
PairPos2: "'kern' Horizontal Kerning in Hebrew lookup 3 per glyph data 3" quotedblright dx=12 dy=0 dh=12 dv=0 dx=0 dy=0 dh=0 dv=0
PairPos2: "'kern' Horizontal Kerning in Hebrew lookup 3 per glyph data 3" quotesingle dx=12 dy=0 dh=12 dv=0 dx=0 dy=0 dh=0 dv=0
PairPos2: "'kern' Horizontal Kerning in Hebrew lookup 3 per glyph data 3" quotedbl dx=12 dy=0 dh=12 dv=0 dx=0 dy=0 dh=0 dv=0
PairPos2: "'kern' Horizontal Kerning in Hebrew lookup 3 per glyph data 2" uni05E5 dx=-25 dy=0 dh=-25 dv=0 dx=0 dy=0 dh=0 dv=0
PairPos2: "'kern' Horizontal Kerning in Hebrew lookup 3 per glyph data 2" uniFB36 dx=-25 dy=0 dh=-25 dv=0 dx=0 dy=0 dh=0 dv=0
PairPos2: "'kern' Horizontal Kerning in Hebrew lookup 3 per glyph data 2" uni05D6 dx=-25 dy=0 dh=-25 dv=0 dx=0 dy=0 dh=0 dv=0
PairPos2: "'kern' Horizontal Kerning in Hebrew lookup 3 per glyph data 2" uniFB46 dx=-20 dy=0 dh=-20 dv=0 dx=0 dy=0 dh=0 dv=0
PairPos2: "'kern' Horizontal Kerning in Hebrew lookup 3 per glyph data 2" uni05E6 dx=-20 dy=0 dh=-20 dv=0 dx=0 dy=0 dh=0 dv=0
PairPos2: "'kern' Horizontal Kerning in Hebrew lookup 3 per glyph data 2" uniFB38 dx=5 dy=0 dh=5 dv=0 dx=0 dy=0 dh=0 dv=0
PairPos2: "'kern' Horizontal Kerning in Hebrew lookup 3 per glyph data 2" uni05D8 dx=5 dy=0 dh=5 dv=0 dx=0 dy=0 dh=0 dv=0
PairPos2: "'kern' Horizontal Kerning in Hebrew lookup 3 per glyph data 2" uniFB41 dx=5 dy=0 dh=5 dv=0 dx=0 dy=0 dh=0 dv=0
PairPos2: "'kern' Horizontal Kerning in Hebrew lookup 3 per glyph data 2" uni05E1 dx=5 dy=0 dh=5 dv=0 dx=0 dy=0 dh=0 dv=0
PairPos2: "'kern' Horizontal Kerning in Hebrew lookup 3 per glyph data 2" uniFB3B dx=10 dy=0 dh=10 dv=0 dx=0 dy=0 dh=0 dv=0
PairPos2: "'kern' Horizontal Kerning in Hebrew lookup 3 per glyph data 2" uni05DB dx=10 dy=0 dh=10 dv=0 dx=0 dy=0 dh=0 dv=0
PairPos2: "'kern' Horizontal Kerning in Hebrew lookup 3 per glyph data 2" uniFB33 dx=-20 dy=0 dh=-20 dv=0 dx=0 dy=0 dh=0 dv=0
PairPos2: "'kern' Horizontal Kerning in Hebrew lookup 3 per glyph data 2" uni05D3 dx=-20 dy=0 dh=-20 dv=0 dx=0 dy=0 dh=0 dv=0
PairPos2: "'kern' Horizontal Kerning in Hebrew lookup 3 per glyph data 2" uniFB31 dx=-15 dy=0 dh=-15 dv=0 dx=0 dy=0 dh=0 dv=0
PairPos2: "'kern' Horizontal Kerning in Hebrew lookup 3 per glyph data 2" uni05D1 dx=-15 dy=0 dh=-15 dv=0 dx=0 dy=0 dh=0 dv=0
PairPos2: "'kern' Horizontal Kerning in Hebrew lookup 3 per glyph data 2" uniFB30 dx=-12 dy=0 dh=-12 dv=0 dx=0 dy=0 dh=0 dv=0
PairPos2: "'kern' Horizontal Kerning in Hebrew lookup 3 per glyph data 2" uniFB2F dx=-12 dy=0 dh=-12 dv=0 dx=0 dy=0 dh=0 dv=0
PairPos2: "'kern' Horizontal Kerning in Hebrew lookup 3 per glyph data 2" uniFB2E dx=-12 dy=0 dh=-12 dv=0 dx=0 dy=0 dh=0 dv=0
PairPos2: "'kern' Horizontal Kerning in Hebrew lookup 3 per glyph data 2" uni05D0 dx=-12 dy=0 dh=-12 dv=0 dx=0 dy=0 dh=0 dv=0
PairPos2: "'kern' Horizontal Kerning in Hebrew lookup 3 per glyph data 1" uni05E5 dx=-5 dy=0 dh=-5 dv=0 dx=0 dy=0 dh=0 dv=0
PairPos2: "'kern' Horizontal Kerning in Hebrew lookup 3 per glyph data 1" uniFB36 dx=-10 dy=0 dh=-10 dv=0 dx=0 dy=0 dh=0 dv=0
PairPos2: "'kern' Horizontal Kerning in Hebrew lookup 3 per glyph data 1" uni05D6 dx=-10 dy=0 dh=-10 dv=0 dx=0 dy=0 dh=0 dv=0
PairPos2: "'kern' Horizontal Kerning in Hebrew lookup 3 per glyph data 1" uniFB39 dx=-5 dy=0 dh=-5 dv=0 dx=0 dy=0 dh=0 dv=0
PairPos2: "'kern' Horizontal Kerning in Hebrew lookup 3 per glyph data 1" uni05D9 dx=-5 dy=0 dh=-5 dv=0 dx=0 dy=0 dh=0 dv=0
PairPos2: "'kern' Horizontal Kerning in Hebrew lookup 3 per glyph data 1" uniFB38 dx=-10 dy=0 dh=-10 dv=0 dx=0 dy=0 dh=0 dv=0
PairPos2: "'kern' Horizontal Kerning in Hebrew lookup 3 per glyph data 1" uni05D8 dx=-10 dy=0 dh=-10 dv=0 dx=0 dy=0 dh=0 dv=0
PairPos2: "'kern' Horizontal Kerning in Hebrew lookup 3 per glyph data 1" uniFB41 dx=-7 dy=0 dh=-7 dv=0 dx=0 dy=0 dh=0 dv=0
PairPos2: "'kern' Horizontal Kerning in Hebrew lookup 3 per glyph data 1" uni05E1 dx=-7 dy=0 dh=-7 dv=0 dx=0 dy=0 dh=0 dv=0
PairPos2: "'kern' Horizontal Kerning in Hebrew lookup 3 per glyph data 1" uni05F4 dx=5 dy=0 dh=5 dv=0 dx=0 dy=0 dh=0 dv=0
PairPos2: "'kern' Horizontal Kerning in Hebrew lookup 3 per glyph data 1" uni05F3 dx=5 dy=0 dh=5 dv=0 dx=0 dy=0 dh=0 dv=0
PairPos2: "'kern' Horizontal Kerning in Hebrew lookup 3 per glyph data 1" quoteright dx=5 dy=0 dh=5 dv=0 dx=0 dy=0 dh=0 dv=0
PairPos2: "'kern' Horizontal Kerning in Hebrew lookup 3 per glyph data 1" quotedblright dx=5 dy=0 dh=5 dv=0 dx=0 dy=0 dh=0 dv=0
PairPos2: "'kern' Horizontal Kerning in Hebrew lookup 3 per glyph data 1" quotesingle dx=5 dy=0 dh=5 dv=0 dx=0 dy=0 dh=0 dv=0
PairPos2: "'kern' Horizontal Kerning in Hebrew lookup 3 per glyph data 1" quotedbl dx=5 dy=0 dh=5 dv=0 dx=0 dy=0 dh=0 dv=0
PairPos2: "'kern' Horizontal Kerning in Hebrew lookup 3 per glyph data 1" period dx=10 dy=0 dh=10 dv=0 dx=0 dy=0 dh=0 dv=0
PairPos2: "'kern' Horizontal Kerning in Hebrew lookup 3 per glyph data 1" ellipsis dx=10 dy=0 dh=10 dv=0 dx=0 dy=0 dh=0 dv=0
PairPos2: "'kern' Horizontal Kerning in Hebrew lookup 3 per glyph data 1" uniFB3C dx=-5 dy=0 dh=-5 dv=0 dx=0 dy=0 dh=0 dv=0
PairPos2: "'kern' Horizontal Kerning in Hebrew lookup 3 per glyph data 1" uni05DC dx=-5 dy=0 dh=-5 dv=0 dx=0 dy=0 dh=0 dv=0
PairPos2: "'kern' Horizontal Kerning in Hebrew lookup 3 per glyph data 1" uniFB3B dx=-5 dy=0 dh=-5 dv=0 dx=0 dy=0 dh=0 dv=0
PairPos2: "'kern' Horizontal Kerning in Hebrew lookup 3 per glyph data 1" uni05DB dx=-5 dy=0 dh=-5 dv=0 dx=0 dy=0 dh=0 dv=0
PairPos2: "'kern' Horizontal Kerning in Hebrew lookup 3 per glyph data 1" hyphen dx=-25 dy=0 dh=-25 dv=0 dx=0 dy=0 dh=0 dv=0
PairPos2: "'kern' Horizontal Kerning in Hebrew lookup 3 per glyph data 1" endash dx=-25 dy=0 dh=-25 dv=0 dx=0 dy=0 dh=0 dv=0
PairPos2: "'kern' Horizontal Kerning in Hebrew lookup 3 per glyph data 1" emdash dx=-25 dy=0 dh=-25 dv=0 dx=0 dy=0 dh=0 dv=0
PairPos2: "'kern' Horizontal Kerning in Hebrew lookup 3 per glyph data 1" uniFB33 dx=-4 dy=0 dh=-4 dv=0 dx=0 dy=0 dh=0 dv=0
PairPos2: "'kern' Horizontal Kerning in Hebrew lookup 3 per glyph data 1" uni05D3 dx=-4 dy=0 dh=-4 dv=0 dx=0 dy=0 dh=0 dv=0
PairPos2: "'kern' Horizontal Kerning in Hebrew lookup 3 per glyph data 1" uniFB31 dx=7 dy=0 dh=7 dv=0 dx=0 dy=0 dh=0 dv=0
PairPos2: "'kern' Horizontal Kerning in Hebrew lookup 3 per glyph data 1" uni05D1 dx=7 dy=0 dh=7 dv=0 dx=0 dy=0 dh=0 dv=0
PairPos2: "'kern' Horizontal Kerning in Hebrew lookup 3 per glyph data 1" uniFB30 dx=5 dy=0 dh=5 dv=0 dx=0 dy=0 dh=0 dv=0
PairPos2: "'kern' Horizontal Kerning in Hebrew lookup 3 per glyph data 1" uniFB2F dx=5 dy=0 dh=5 dv=0 dx=0 dy=0 dh=0 dv=0
PairPos2: "'kern' Horizontal Kerning in Hebrew lookup 3 per glyph data 1" uniFB2E dx=5 dy=0 dh=5 dv=0 dx=0 dy=0 dh=0 dv=0
PairPos2: "'kern' Horizontal Kerning in Hebrew lookup 3 per glyph data 1" uni05D0 dx=5 dy=0 dh=5 dv=0 dx=0 dy=0 dh=0 dv=0
EndChar

StartChar: D
Encoding: 68 68 19
Width: 685
GlyphClass: 2
Flags: W
AnchorPoint: "Anchor-10" 0 0 basechar 0
AnchorPoint: "Anchor-9" 0 0 basechar 0
AnchorPoint: "Anchor-8" 162 324 basechar 0
AnchorPoint: "Anchor-7" 303 666 basechar 0
AnchorPoint: "Anchor-6" 0 0 basechar 0
AnchorPoint: "Anchor-5" 313 0 basechar 0
LayerCount: 2
Fore
SplineSet
69 0 m 1,1,-1
 69 666 l 1,2,3
 112 667 112 667 196 667 c 0,4,5
 281 667 281 667 323 666 c 0,6,7
 421 665 421 665 493.5 626.5 c 128,-1,8
 566 588 566 588 605.5 517 c 128,-1,9
 645 446 645 446 645 351 c 0,10,11
 645 247 645 247 599.5 168 c 128,-1,12
 554 89 554 89 471.5 45 c 128,-1,13
 389 1 389 1 280 0 c 0,14,15
 245 -1 245 -1 175 -1 c 0,16,0
 104 -1 104 -1 69 0 c 1,1,-1
279 126 m 2,17,18
 380 126 380 126 438 185 c 128,-1,19
 496 244 496 244 496 347 c 0,20,21
 496 440 496 440 446.5 490 c 128,-1,22
 397 540 397 540 304 540 c 2,23,-1
 214 540 l 1,24,-1
 214 126 l 1,25,-1
 279 126 l 2,17,18
EndSplineSet
PairPos2: "'kern' Horizontal Kerning in Hebrew lookup 3 per glyph data 3" uni05F4 dx=12 dy=0 dh=12 dv=0 dx=0 dy=0 dh=0 dv=0
PairPos2: "'kern' Horizontal Kerning in Hebrew lookup 3 per glyph data 3" uni05F3 dx=12 dy=0 dh=12 dv=0 dx=0 dy=0 dh=0 dv=0
PairPos2: "'kern' Horizontal Kerning in Hebrew lookup 3 per glyph data 3" quoteright dx=12 dy=0 dh=12 dv=0 dx=0 dy=0 dh=0 dv=0
PairPos2: "'kern' Horizontal Kerning in Hebrew lookup 3 per glyph data 3" quotedblright dx=12 dy=0 dh=12 dv=0 dx=0 dy=0 dh=0 dv=0
PairPos2: "'kern' Horizontal Kerning in Hebrew lookup 3 per glyph data 3" quotesingle dx=12 dy=0 dh=12 dv=0 dx=0 dy=0 dh=0 dv=0
PairPos2: "'kern' Horizontal Kerning in Hebrew lookup 3 per glyph data 3" quotedbl dx=12 dy=0 dh=12 dv=0 dx=0 dy=0 dh=0 dv=0
PairPos2: "'kern' Horizontal Kerning in Hebrew lookup 3 per glyph data 2" uni05E5 dx=-25 dy=0 dh=-25 dv=0 dx=0 dy=0 dh=0 dv=0
PairPos2: "'kern' Horizontal Kerning in Hebrew lookup 3 per glyph data 2" uniFB36 dx=-25 dy=0 dh=-25 dv=0 dx=0 dy=0 dh=0 dv=0
PairPos2: "'kern' Horizontal Kerning in Hebrew lookup 3 per glyph data 2" uni05D6 dx=-25 dy=0 dh=-25 dv=0 dx=0 dy=0 dh=0 dv=0
PairPos2: "'kern' Horizontal Kerning in Hebrew lookup 3 per glyph data 2" uniFB46 dx=-20 dy=0 dh=-20 dv=0 dx=0 dy=0 dh=0 dv=0
PairPos2: "'kern' Horizontal Kerning in Hebrew lookup 3 per glyph data 2" uni05E6 dx=-20 dy=0 dh=-20 dv=0 dx=0 dy=0 dh=0 dv=0
PairPos2: "'kern' Horizontal Kerning in Hebrew lookup 3 per glyph data 2" uniFB38 dx=5 dy=0 dh=5 dv=0 dx=0 dy=0 dh=0 dv=0
PairPos2: "'kern' Horizontal Kerning in Hebrew lookup 3 per glyph data 2" uni05D8 dx=5 dy=0 dh=5 dv=0 dx=0 dy=0 dh=0 dv=0
PairPos2: "'kern' Horizontal Kerning in Hebrew lookup 3 per glyph data 2" uniFB41 dx=5 dy=0 dh=5 dv=0 dx=0 dy=0 dh=0 dv=0
PairPos2: "'kern' Horizontal Kerning in Hebrew lookup 3 per glyph data 2" uni05E1 dx=5 dy=0 dh=5 dv=0 dx=0 dy=0 dh=0 dv=0
PairPos2: "'kern' Horizontal Kerning in Hebrew lookup 3 per glyph data 2" uniFB3B dx=10 dy=0 dh=10 dv=0 dx=0 dy=0 dh=0 dv=0
PairPos2: "'kern' Horizontal Kerning in Hebrew lookup 3 per glyph data 2" uni05DB dx=10 dy=0 dh=10 dv=0 dx=0 dy=0 dh=0 dv=0
PairPos2: "'kern' Horizontal Kerning in Hebrew lookup 3 per glyph data 2" uniFB33 dx=-20 dy=0 dh=-20 dv=0 dx=0 dy=0 dh=0 dv=0
PairPos2: "'kern' Horizontal Kerning in Hebrew lookup 3 per glyph data 2" uni05D3 dx=-20 dy=0 dh=-20 dv=0 dx=0 dy=0 dh=0 dv=0
PairPos2: "'kern' Horizontal Kerning in Hebrew lookup 3 per glyph data 2" uniFB31 dx=-15 dy=0 dh=-15 dv=0 dx=0 dy=0 dh=0 dv=0
PairPos2: "'kern' Horizontal Kerning in Hebrew lookup 3 per glyph data 2" uni05D1 dx=-15 dy=0 dh=-15 dv=0 dx=0 dy=0 dh=0 dv=0
PairPos2: "'kern' Horizontal Kerning in Hebrew lookup 3 per glyph data 2" uniFB30 dx=-12 dy=0 dh=-12 dv=0 dx=0 dy=0 dh=0 dv=0
PairPos2: "'kern' Horizontal Kerning in Hebrew lookup 3 per glyph data 2" uniFB2F dx=-12 dy=0 dh=-12 dv=0 dx=0 dy=0 dh=0 dv=0
PairPos2: "'kern' Horizontal Kerning in Hebrew lookup 3 per glyph data 2" uniFB2E dx=-12 dy=0 dh=-12 dv=0 dx=0 dy=0 dh=0 dv=0
PairPos2: "'kern' Horizontal Kerning in Hebrew lookup 3 per glyph data 2" uni05D0 dx=-12 dy=0 dh=-12 dv=0 dx=0 dy=0 dh=0 dv=0
PairPos2: "'kern' Horizontal Kerning in Hebrew lookup 3 per glyph data 1" uni05E5 dx=-5 dy=0 dh=-5 dv=0 dx=0 dy=0 dh=0 dv=0
PairPos2: "'kern' Horizontal Kerning in Hebrew lookup 3 per glyph data 1" uniFB36 dx=-10 dy=0 dh=-10 dv=0 dx=0 dy=0 dh=0 dv=0
PairPos2: "'kern' Horizontal Kerning in Hebrew lookup 3 per glyph data 1" uni05D6 dx=-10 dy=0 dh=-10 dv=0 dx=0 dy=0 dh=0 dv=0
PairPos2: "'kern' Horizontal Kerning in Hebrew lookup 3 per glyph data 1" uniFB39 dx=-5 dy=0 dh=-5 dv=0 dx=0 dy=0 dh=0 dv=0
PairPos2: "'kern' Horizontal Kerning in Hebrew lookup 3 per glyph data 1" uni05D9 dx=-5 dy=0 dh=-5 dv=0 dx=0 dy=0 dh=0 dv=0
PairPos2: "'kern' Horizontal Kerning in Hebrew lookup 3 per glyph data 1" uniFB38 dx=-10 dy=0 dh=-10 dv=0 dx=0 dy=0 dh=0 dv=0
PairPos2: "'kern' Horizontal Kerning in Hebrew lookup 3 per glyph data 1" uni05D8 dx=-10 dy=0 dh=-10 dv=0 dx=0 dy=0 dh=0 dv=0
PairPos2: "'kern' Horizontal Kerning in Hebrew lookup 3 per glyph data 1" uniFB41 dx=-7 dy=0 dh=-7 dv=0 dx=0 dy=0 dh=0 dv=0
PairPos2: "'kern' Horizontal Kerning in Hebrew lookup 3 per glyph data 1" uni05E1 dx=-7 dy=0 dh=-7 dv=0 dx=0 dy=0 dh=0 dv=0
PairPos2: "'kern' Horizontal Kerning in Hebrew lookup 3 per glyph data 1" uni05F4 dx=5 dy=0 dh=5 dv=0 dx=0 dy=0 dh=0 dv=0
PairPos2: "'kern' Horizontal Kerning in Hebrew lookup 3 per glyph data 1" uni05F3 dx=5 dy=0 dh=5 dv=0 dx=0 dy=0 dh=0 dv=0
PairPos2: "'kern' Horizontal Kerning in Hebrew lookup 3 per glyph data 1" quoteright dx=5 dy=0 dh=5 dv=0 dx=0 dy=0 dh=0 dv=0
PairPos2: "'kern' Horizontal Kerning in Hebrew lookup 3 per glyph data 1" quotedblright dx=5 dy=0 dh=5 dv=0 dx=0 dy=0 dh=0 dv=0
PairPos2: "'kern' Horizontal Kerning in Hebrew lookup 3 per glyph data 1" quotesingle dx=5 dy=0 dh=5 dv=0 dx=0 dy=0 dh=0 dv=0
PairPos2: "'kern' Horizontal Kerning in Hebrew lookup 3 per glyph data 1" quotedbl dx=5 dy=0 dh=5 dv=0 dx=0 dy=0 dh=0 dv=0
PairPos2: "'kern' Horizontal Kerning in Hebrew lookup 3 per glyph data 1" period dx=10 dy=0 dh=10 dv=0 dx=0 dy=0 dh=0 dv=0
PairPos2: "'kern' Horizontal Kerning in Hebrew lookup 3 per glyph data 1" ellipsis dx=10 dy=0 dh=10 dv=0 dx=0 dy=0 dh=0 dv=0
PairPos2: "'kern' Horizontal Kerning in Hebrew lookup 3 per glyph data 1" uniFB3C dx=-5 dy=0 dh=-5 dv=0 dx=0 dy=0 dh=0 dv=0
PairPos2: "'kern' Horizontal Kerning in Hebrew lookup 3 per glyph data 1" uni05DC dx=-5 dy=0 dh=-5 dv=0 dx=0 dy=0 dh=0 dv=0
PairPos2: "'kern' Horizontal Kerning in Hebrew lookup 3 per glyph data 1" uniFB3B dx=-5 dy=0 dh=-5 dv=0 dx=0 dy=0 dh=0 dv=0
PairPos2: "'kern' Horizontal Kerning in Hebrew lookup 3 per glyph data 1" uni05DB dx=-5 dy=0 dh=-5 dv=0 dx=0 dy=0 dh=0 dv=0
PairPos2: "'kern' Horizontal Kerning in Hebrew lookup 3 per glyph data 1" hyphen dx=-25 dy=0 dh=-25 dv=0 dx=0 dy=0 dh=0 dv=0
PairPos2: "'kern' Horizontal Kerning in Hebrew lookup 3 per glyph data 1" endash dx=-25 dy=0 dh=-25 dv=0 dx=0 dy=0 dh=0 dv=0
PairPos2: "'kern' Horizontal Kerning in Hebrew lookup 3 per glyph data 1" emdash dx=-25 dy=0 dh=-25 dv=0 dx=0 dy=0 dh=0 dv=0
PairPos2: "'kern' Horizontal Kerning in Hebrew lookup 3 per glyph data 1" uniFB33 dx=-4 dy=0 dh=-4 dv=0 dx=0 dy=0 dh=0 dv=0
PairPos2: "'kern' Horizontal Kerning in Hebrew lookup 3 per glyph data 1" uni05D3 dx=-4 dy=0 dh=-4 dv=0 dx=0 dy=0 dh=0 dv=0
PairPos2: "'kern' Horizontal Kerning in Hebrew lookup 3 per glyph data 1" uniFB31 dx=7 dy=0 dh=7 dv=0 dx=0 dy=0 dh=0 dv=0
PairPos2: "'kern' Horizontal Kerning in Hebrew lookup 3 per glyph data 1" uni05D1 dx=7 dy=0 dh=7 dv=0 dx=0 dy=0 dh=0 dv=0
PairPos2: "'kern' Horizontal Kerning in Hebrew lookup 3 per glyph data 1" uniFB30 dx=5 dy=0 dh=5 dv=0 dx=0 dy=0 dh=0 dv=0
PairPos2: "'kern' Horizontal Kerning in Hebrew lookup 3 per glyph data 1" uniFB2F dx=5 dy=0 dh=5 dv=0 dx=0 dy=0 dh=0 dv=0
PairPos2: "'kern' Horizontal Kerning in Hebrew lookup 3 per glyph data 1" uniFB2E dx=5 dy=0 dh=5 dv=0 dx=0 dy=0 dh=0 dv=0
PairPos2: "'kern' Horizontal Kerning in Hebrew lookup 3 per glyph data 1" uni05D0 dx=5 dy=0 dh=5 dv=0 dx=0 dy=0 dh=0 dv=0
EndChar

StartChar: Eth
Encoding: 208 208 20
Width: 685
GlyphClass: 2
Flags: W
AnchorPoint: "Anchor-10" 0 0 basechar 0
AnchorPoint: "Anchor-9" 0 0 basechar 0
AnchorPoint: "Anchor-8" 162 324 basechar 0
AnchorPoint: "Anchor-7" 303 666 basechar 0
AnchorPoint: "Anchor-6" 0 0 basechar 0
AnchorPoint: "Anchor-5" 313 0 basechar 0
LayerCount: 2
Fore
SplineSet
493.5 626.5 m 128,-1,1
 566 588 566 588 605.5 517 c 128,-1,2
 645 446 645 446 645 351 c 0,3,4
 645 247 645 247 599.5 168 c 128,-1,5
 554 89 554 89 471.5 45 c 128,-1,6
 389 1 389 1 280 0 c 0,7,8
 245 -1 245 -1 175 -1 c 0,9,10
 104 -1 104 -1 69 0 c 1,11,-1
 69 282 l 1,12,-1
 -23 282 l 1,13,-1
 -13 367 l 1,14,-1
 69 367 l 1,15,-1
 69 666 l 1,16,17
 112 667 112 667 196 667 c 0,18,19
 281 667 281 667 323 666 c 0,20,0
 421 665 421 665 493.5 626.5 c 128,-1,1
438 185 m 128,-1,22
 496 244 496 244 496 347 c 0,23,24
 496 440 496 440 446.5 490 c 128,-1,25
 397 540 397 540 304 540 c 2,26,-1
 214 540 l 1,27,-1
 214 367 l 1,28,-1
 345 367 l 1,29,-1
 335 282 l 1,30,-1
 214 282 l 1,31,-1
 214 126 l 1,32,-1
 279 126 l 2,33,21
 380 126 380 126 438 185 c 128,-1,22
EndSplineSet
PairPos2: "'kern' Horizontal Kerning in Hebrew lookup 3 per glyph data 3" uni05F4 dx=12 dy=0 dh=12 dv=0 dx=0 dy=0 dh=0 dv=0
PairPos2: "'kern' Horizontal Kerning in Hebrew lookup 3 per glyph data 3" uni05F3 dx=12 dy=0 dh=12 dv=0 dx=0 dy=0 dh=0 dv=0
PairPos2: "'kern' Horizontal Kerning in Hebrew lookup 3 per glyph data 3" quoteright dx=12 dy=0 dh=12 dv=0 dx=0 dy=0 dh=0 dv=0
PairPos2: "'kern' Horizontal Kerning in Hebrew lookup 3 per glyph data 3" quotedblright dx=12 dy=0 dh=12 dv=0 dx=0 dy=0 dh=0 dv=0
PairPos2: "'kern' Horizontal Kerning in Hebrew lookup 3 per glyph data 3" quotesingle dx=12 dy=0 dh=12 dv=0 dx=0 dy=0 dh=0 dv=0
PairPos2: "'kern' Horizontal Kerning in Hebrew lookup 3 per glyph data 3" quotedbl dx=12 dy=0 dh=12 dv=0 dx=0 dy=0 dh=0 dv=0
PairPos2: "'kern' Horizontal Kerning in Hebrew lookup 3 per glyph data 2" uni05E5 dx=-25 dy=0 dh=-25 dv=0 dx=0 dy=0 dh=0 dv=0
PairPos2: "'kern' Horizontal Kerning in Hebrew lookup 3 per glyph data 2" uniFB36 dx=-25 dy=0 dh=-25 dv=0 dx=0 dy=0 dh=0 dv=0
PairPos2: "'kern' Horizontal Kerning in Hebrew lookup 3 per glyph data 2" uni05D6 dx=-25 dy=0 dh=-25 dv=0 dx=0 dy=0 dh=0 dv=0
PairPos2: "'kern' Horizontal Kerning in Hebrew lookup 3 per glyph data 2" uniFB46 dx=-20 dy=0 dh=-20 dv=0 dx=0 dy=0 dh=0 dv=0
PairPos2: "'kern' Horizontal Kerning in Hebrew lookup 3 per glyph data 2" uni05E6 dx=-20 dy=0 dh=-20 dv=0 dx=0 dy=0 dh=0 dv=0
PairPos2: "'kern' Horizontal Kerning in Hebrew lookup 3 per glyph data 2" uniFB38 dx=5 dy=0 dh=5 dv=0 dx=0 dy=0 dh=0 dv=0
PairPos2: "'kern' Horizontal Kerning in Hebrew lookup 3 per glyph data 2" uni05D8 dx=5 dy=0 dh=5 dv=0 dx=0 dy=0 dh=0 dv=0
PairPos2: "'kern' Horizontal Kerning in Hebrew lookup 3 per glyph data 2" uniFB41 dx=5 dy=0 dh=5 dv=0 dx=0 dy=0 dh=0 dv=0
PairPos2: "'kern' Horizontal Kerning in Hebrew lookup 3 per glyph data 2" uni05E1 dx=5 dy=0 dh=5 dv=0 dx=0 dy=0 dh=0 dv=0
PairPos2: "'kern' Horizontal Kerning in Hebrew lookup 3 per glyph data 2" uniFB3B dx=10 dy=0 dh=10 dv=0 dx=0 dy=0 dh=0 dv=0
PairPos2: "'kern' Horizontal Kerning in Hebrew lookup 3 per glyph data 2" uni05DB dx=10 dy=0 dh=10 dv=0 dx=0 dy=0 dh=0 dv=0
PairPos2: "'kern' Horizontal Kerning in Hebrew lookup 3 per glyph data 2" uniFB33 dx=-20 dy=0 dh=-20 dv=0 dx=0 dy=0 dh=0 dv=0
PairPos2: "'kern' Horizontal Kerning in Hebrew lookup 3 per glyph data 2" uni05D3 dx=-20 dy=0 dh=-20 dv=0 dx=0 dy=0 dh=0 dv=0
PairPos2: "'kern' Horizontal Kerning in Hebrew lookup 3 per glyph data 2" uniFB31 dx=-15 dy=0 dh=-15 dv=0 dx=0 dy=0 dh=0 dv=0
PairPos2: "'kern' Horizontal Kerning in Hebrew lookup 3 per glyph data 2" uni05D1 dx=-15 dy=0 dh=-15 dv=0 dx=0 dy=0 dh=0 dv=0
PairPos2: "'kern' Horizontal Kerning in Hebrew lookup 3 per glyph data 2" uniFB30 dx=-12 dy=0 dh=-12 dv=0 dx=0 dy=0 dh=0 dv=0
PairPos2: "'kern' Horizontal Kerning in Hebrew lookup 3 per glyph data 2" uniFB2F dx=-12 dy=0 dh=-12 dv=0 dx=0 dy=0 dh=0 dv=0
PairPos2: "'kern' Horizontal Kerning in Hebrew lookup 3 per glyph data 2" uniFB2E dx=-12 dy=0 dh=-12 dv=0 dx=0 dy=0 dh=0 dv=0
PairPos2: "'kern' Horizontal Kerning in Hebrew lookup 3 per glyph data 2" uni05D0 dx=-12 dy=0 dh=-12 dv=0 dx=0 dy=0 dh=0 dv=0
PairPos2: "'kern' Horizontal Kerning in Hebrew lookup 3 per glyph data 1" uni05E5 dx=-5 dy=0 dh=-5 dv=0 dx=0 dy=0 dh=0 dv=0
PairPos2: "'kern' Horizontal Kerning in Hebrew lookup 3 per glyph data 1" uniFB36 dx=-10 dy=0 dh=-10 dv=0 dx=0 dy=0 dh=0 dv=0
PairPos2: "'kern' Horizontal Kerning in Hebrew lookup 3 per glyph data 1" uni05D6 dx=-10 dy=0 dh=-10 dv=0 dx=0 dy=0 dh=0 dv=0
PairPos2: "'kern' Horizontal Kerning in Hebrew lookup 3 per glyph data 1" uniFB39 dx=-5 dy=0 dh=-5 dv=0 dx=0 dy=0 dh=0 dv=0
PairPos2: "'kern' Horizontal Kerning in Hebrew lookup 3 per glyph data 1" uni05D9 dx=-5 dy=0 dh=-5 dv=0 dx=0 dy=0 dh=0 dv=0
PairPos2: "'kern' Horizontal Kerning in Hebrew lookup 3 per glyph data 1" uniFB38 dx=-10 dy=0 dh=-10 dv=0 dx=0 dy=0 dh=0 dv=0
PairPos2: "'kern' Horizontal Kerning in Hebrew lookup 3 per glyph data 1" uni05D8 dx=-10 dy=0 dh=-10 dv=0 dx=0 dy=0 dh=0 dv=0
PairPos2: "'kern' Horizontal Kerning in Hebrew lookup 3 per glyph data 1" uniFB41 dx=-7 dy=0 dh=-7 dv=0 dx=0 dy=0 dh=0 dv=0
PairPos2: "'kern' Horizontal Kerning in Hebrew lookup 3 per glyph data 1" uni05E1 dx=-7 dy=0 dh=-7 dv=0 dx=0 dy=0 dh=0 dv=0
PairPos2: "'kern' Horizontal Kerning in Hebrew lookup 3 per glyph data 1" uni05F4 dx=5 dy=0 dh=5 dv=0 dx=0 dy=0 dh=0 dv=0
PairPos2: "'kern' Horizontal Kerning in Hebrew lookup 3 per glyph data 1" uni05F3 dx=5 dy=0 dh=5 dv=0 dx=0 dy=0 dh=0 dv=0
PairPos2: "'kern' Horizontal Kerning in Hebrew lookup 3 per glyph data 1" quoteright dx=5 dy=0 dh=5 dv=0 dx=0 dy=0 dh=0 dv=0
PairPos2: "'kern' Horizontal Kerning in Hebrew lookup 3 per glyph data 1" quotedblright dx=5 dy=0 dh=5 dv=0 dx=0 dy=0 dh=0 dv=0
PairPos2: "'kern' Horizontal Kerning in Hebrew lookup 3 per glyph data 1" quotesingle dx=5 dy=0 dh=5 dv=0 dx=0 dy=0 dh=0 dv=0
PairPos2: "'kern' Horizontal Kerning in Hebrew lookup 3 per glyph data 1" quotedbl dx=5 dy=0 dh=5 dv=0 dx=0 dy=0 dh=0 dv=0
PairPos2: "'kern' Horizontal Kerning in Hebrew lookup 3 per glyph data 1" period dx=10 dy=0 dh=10 dv=0 dx=0 dy=0 dh=0 dv=0
PairPos2: "'kern' Horizontal Kerning in Hebrew lookup 3 per glyph data 1" ellipsis dx=10 dy=0 dh=10 dv=0 dx=0 dy=0 dh=0 dv=0
PairPos2: "'kern' Horizontal Kerning in Hebrew lookup 3 per glyph data 1" uniFB3C dx=-5 dy=0 dh=-5 dv=0 dx=0 dy=0 dh=0 dv=0
PairPos2: "'kern' Horizontal Kerning in Hebrew lookup 3 per glyph data 1" uni05DC dx=-5 dy=0 dh=-5 dv=0 dx=0 dy=0 dh=0 dv=0
PairPos2: "'kern' Horizontal Kerning in Hebrew lookup 3 per glyph data 1" uniFB3B dx=-5 dy=0 dh=-5 dv=0 dx=0 dy=0 dh=0 dv=0
PairPos2: "'kern' Horizontal Kerning in Hebrew lookup 3 per glyph data 1" uni05DB dx=-5 dy=0 dh=-5 dv=0 dx=0 dy=0 dh=0 dv=0
PairPos2: "'kern' Horizontal Kerning in Hebrew lookup 3 per glyph data 1" hyphen dx=-25 dy=0 dh=-25 dv=0 dx=0 dy=0 dh=0 dv=0
PairPos2: "'kern' Horizontal Kerning in Hebrew lookup 3 per glyph data 1" endash dx=-25 dy=0 dh=-25 dv=0 dx=0 dy=0 dh=0 dv=0
PairPos2: "'kern' Horizontal Kerning in Hebrew lookup 3 per glyph data 1" emdash dx=-25 dy=0 dh=-25 dv=0 dx=0 dy=0 dh=0 dv=0
PairPos2: "'kern' Horizontal Kerning in Hebrew lookup 3 per glyph data 1" uniFB33 dx=-4 dy=0 dh=-4 dv=0 dx=0 dy=0 dh=0 dv=0
PairPos2: "'kern' Horizontal Kerning in Hebrew lookup 3 per glyph data 1" uni05D3 dx=-4 dy=0 dh=-4 dv=0 dx=0 dy=0 dh=0 dv=0
PairPos2: "'kern' Horizontal Kerning in Hebrew lookup 3 per glyph data 1" uniFB31 dx=7 dy=0 dh=7 dv=0 dx=0 dy=0 dh=0 dv=0
PairPos2: "'kern' Horizontal Kerning in Hebrew lookup 3 per glyph data 1" uni05D1 dx=7 dy=0 dh=7 dv=0 dx=0 dy=0 dh=0 dv=0
PairPos2: "'kern' Horizontal Kerning in Hebrew lookup 3 per glyph data 1" uniFB30 dx=5 dy=0 dh=5 dv=0 dx=0 dy=0 dh=0 dv=0
PairPos2: "'kern' Horizontal Kerning in Hebrew lookup 3 per glyph data 1" uniFB2F dx=5 dy=0 dh=5 dv=0 dx=0 dy=0 dh=0 dv=0
PairPos2: "'kern' Horizontal Kerning in Hebrew lookup 3 per glyph data 1" uniFB2E dx=5 dy=0 dh=5 dv=0 dx=0 dy=0 dh=0 dv=0
PairPos2: "'kern' Horizontal Kerning in Hebrew lookup 3 per glyph data 1" uni05D0 dx=5 dy=0 dh=5 dv=0 dx=0 dy=0 dh=0 dv=0
EndChar

StartChar: E
Encoding: 69 69 23
Width: 530
GlyphClass: 2
Flags: W
AnchorPoint: "Anchor-10" 0 0 basechar 0
AnchorPoint: "Anchor-9" 20 666 basechar 0
AnchorPoint: "Anchor-8" 0 0 basechar 0
AnchorPoint: "Anchor-7" 275 666 basechar 0
AnchorPoint: "Anchor-6" 424 0 basechar 0
AnchorPoint: "Anchor-5" 275 0 basechar 0
LayerCount: 2
Fore
SplineSet
70 666 m 1,0,-1
 475 666 l 1,1,-1
 475 540 l 1,2,-1
 213 540 l 1,3,-1
 213 407 l 1,4,-1
 430 407 l 1,5,-1
 430 285 l 1,6,-1
 213 285 l 1,7,-1
 213 126 l 1,8,-1
 475 126 l 1,9,-1
 475 0 l 1,10,-1
 70 0 l 1,11,-1
 70 666 l 1,0,-1
EndSplineSet
PairPos2: "'kern' Horizontal Kerning in Hebrew lookup 3 per glyph data 3" uni05F4 dx=12 dy=0 dh=12 dv=0 dx=0 dy=0 dh=0 dv=0
PairPos2: "'kern' Horizontal Kerning in Hebrew lookup 3 per glyph data 3" uni05F3 dx=12 dy=0 dh=12 dv=0 dx=0 dy=0 dh=0 dv=0
PairPos2: "'kern' Horizontal Kerning in Hebrew lookup 3 per glyph data 3" quoteright dx=12 dy=0 dh=12 dv=0 dx=0 dy=0 dh=0 dv=0
PairPos2: "'kern' Horizontal Kerning in Hebrew lookup 3 per glyph data 3" quotedblright dx=12 dy=0 dh=12 dv=0 dx=0 dy=0 dh=0 dv=0
PairPos2: "'kern' Horizontal Kerning in Hebrew lookup 3 per glyph data 3" quotesingle dx=12 dy=0 dh=12 dv=0 dx=0 dy=0 dh=0 dv=0
PairPos2: "'kern' Horizontal Kerning in Hebrew lookup 3 per glyph data 3" quotedbl dx=12 dy=0 dh=12 dv=0 dx=0 dy=0 dh=0 dv=0
PairPos2: "'kern' Horizontal Kerning in Hebrew lookup 3 per glyph data 2" uni05E5 dx=-25 dy=0 dh=-25 dv=0 dx=0 dy=0 dh=0 dv=0
PairPos2: "'kern' Horizontal Kerning in Hebrew lookup 3 per glyph data 2" uniFB36 dx=-25 dy=0 dh=-25 dv=0 dx=0 dy=0 dh=0 dv=0
PairPos2: "'kern' Horizontal Kerning in Hebrew lookup 3 per glyph data 2" uni05D6 dx=-25 dy=0 dh=-25 dv=0 dx=0 dy=0 dh=0 dv=0
PairPos2: "'kern' Horizontal Kerning in Hebrew lookup 3 per glyph data 2" uniFB46 dx=-20 dy=0 dh=-20 dv=0 dx=0 dy=0 dh=0 dv=0
PairPos2: "'kern' Horizontal Kerning in Hebrew lookup 3 per glyph data 2" uni05E6 dx=-20 dy=0 dh=-20 dv=0 dx=0 dy=0 dh=0 dv=0
PairPos2: "'kern' Horizontal Kerning in Hebrew lookup 3 per glyph data 2" uniFB38 dx=5 dy=0 dh=5 dv=0 dx=0 dy=0 dh=0 dv=0
PairPos2: "'kern' Horizontal Kerning in Hebrew lookup 3 per glyph data 2" uni05D8 dx=5 dy=0 dh=5 dv=0 dx=0 dy=0 dh=0 dv=0
PairPos2: "'kern' Horizontal Kerning in Hebrew lookup 3 per glyph data 2" uniFB41 dx=5 dy=0 dh=5 dv=0 dx=0 dy=0 dh=0 dv=0
PairPos2: "'kern' Horizontal Kerning in Hebrew lookup 3 per glyph data 2" uni05E1 dx=5 dy=0 dh=5 dv=0 dx=0 dy=0 dh=0 dv=0
PairPos2: "'kern' Horizontal Kerning in Hebrew lookup 3 per glyph data 2" uniFB3B dx=10 dy=0 dh=10 dv=0 dx=0 dy=0 dh=0 dv=0
PairPos2: "'kern' Horizontal Kerning in Hebrew lookup 3 per glyph data 2" uni05DB dx=10 dy=0 dh=10 dv=0 dx=0 dy=0 dh=0 dv=0
PairPos2: "'kern' Horizontal Kerning in Hebrew lookup 3 per glyph data 2" uniFB33 dx=-20 dy=0 dh=-20 dv=0 dx=0 dy=0 dh=0 dv=0
PairPos2: "'kern' Horizontal Kerning in Hebrew lookup 3 per glyph data 2" uni05D3 dx=-20 dy=0 dh=-20 dv=0 dx=0 dy=0 dh=0 dv=0
PairPos2: "'kern' Horizontal Kerning in Hebrew lookup 3 per glyph data 2" uniFB31 dx=-15 dy=0 dh=-15 dv=0 dx=0 dy=0 dh=0 dv=0
PairPos2: "'kern' Horizontal Kerning in Hebrew lookup 3 per glyph data 2" uni05D1 dx=-15 dy=0 dh=-15 dv=0 dx=0 dy=0 dh=0 dv=0
PairPos2: "'kern' Horizontal Kerning in Hebrew lookup 3 per glyph data 2" uniFB30 dx=-12 dy=0 dh=-12 dv=0 dx=0 dy=0 dh=0 dv=0
PairPos2: "'kern' Horizontal Kerning in Hebrew lookup 3 per glyph data 2" uniFB2F dx=-12 dy=0 dh=-12 dv=0 dx=0 dy=0 dh=0 dv=0
PairPos2: "'kern' Horizontal Kerning in Hebrew lookup 3 per glyph data 2" uniFB2E dx=-12 dy=0 dh=-12 dv=0 dx=0 dy=0 dh=0 dv=0
PairPos2: "'kern' Horizontal Kerning in Hebrew lookup 3 per glyph data 2" uni05D0 dx=-12 dy=0 dh=-12 dv=0 dx=0 dy=0 dh=0 dv=0
PairPos2: "'kern' Horizontal Kerning in Hebrew lookup 3 per glyph data 1" uni05E5 dx=-5 dy=0 dh=-5 dv=0 dx=0 dy=0 dh=0 dv=0
PairPos2: "'kern' Horizontal Kerning in Hebrew lookup 3 per glyph data 1" uniFB36 dx=-10 dy=0 dh=-10 dv=0 dx=0 dy=0 dh=0 dv=0
PairPos2: "'kern' Horizontal Kerning in Hebrew lookup 3 per glyph data 1" uni05D6 dx=-10 dy=0 dh=-10 dv=0 dx=0 dy=0 dh=0 dv=0
PairPos2: "'kern' Horizontal Kerning in Hebrew lookup 3 per glyph data 1" uniFB39 dx=-5 dy=0 dh=-5 dv=0 dx=0 dy=0 dh=0 dv=0
PairPos2: "'kern' Horizontal Kerning in Hebrew lookup 3 per glyph data 1" uni05D9 dx=-5 dy=0 dh=-5 dv=0 dx=0 dy=0 dh=0 dv=0
PairPos2: "'kern' Horizontal Kerning in Hebrew lookup 3 per glyph data 1" uniFB38 dx=-10 dy=0 dh=-10 dv=0 dx=0 dy=0 dh=0 dv=0
PairPos2: "'kern' Horizontal Kerning in Hebrew lookup 3 per glyph data 1" uni05D8 dx=-10 dy=0 dh=-10 dv=0 dx=0 dy=0 dh=0 dv=0
PairPos2: "'kern' Horizontal Kerning in Hebrew lookup 3 per glyph data 1" uniFB41 dx=-7 dy=0 dh=-7 dv=0 dx=0 dy=0 dh=0 dv=0
PairPos2: "'kern' Horizontal Kerning in Hebrew lookup 3 per glyph data 1" uni05E1 dx=-7 dy=0 dh=-7 dv=0 dx=0 dy=0 dh=0 dv=0
PairPos2: "'kern' Horizontal Kerning in Hebrew lookup 3 per glyph data 1" uni05F4 dx=5 dy=0 dh=5 dv=0 dx=0 dy=0 dh=0 dv=0
PairPos2: "'kern' Horizontal Kerning in Hebrew lookup 3 per glyph data 1" uni05F3 dx=5 dy=0 dh=5 dv=0 dx=0 dy=0 dh=0 dv=0
PairPos2: "'kern' Horizontal Kerning in Hebrew lookup 3 per glyph data 1" quoteright dx=5 dy=0 dh=5 dv=0 dx=0 dy=0 dh=0 dv=0
PairPos2: "'kern' Horizontal Kerning in Hebrew lookup 3 per glyph data 1" quotedblright dx=5 dy=0 dh=5 dv=0 dx=0 dy=0 dh=0 dv=0
PairPos2: "'kern' Horizontal Kerning in Hebrew lookup 3 per glyph data 1" quotesingle dx=5 dy=0 dh=5 dv=0 dx=0 dy=0 dh=0 dv=0
PairPos2: "'kern' Horizontal Kerning in Hebrew lookup 3 per glyph data 1" quotedbl dx=5 dy=0 dh=5 dv=0 dx=0 dy=0 dh=0 dv=0
PairPos2: "'kern' Horizontal Kerning in Hebrew lookup 3 per glyph data 1" period dx=10 dy=0 dh=10 dv=0 dx=0 dy=0 dh=0 dv=0
PairPos2: "'kern' Horizontal Kerning in Hebrew lookup 3 per glyph data 1" ellipsis dx=10 dy=0 dh=10 dv=0 dx=0 dy=0 dh=0 dv=0
PairPos2: "'kern' Horizontal Kerning in Hebrew lookup 3 per glyph data 1" uniFB3C dx=-5 dy=0 dh=-5 dv=0 dx=0 dy=0 dh=0 dv=0
PairPos2: "'kern' Horizontal Kerning in Hebrew lookup 3 per glyph data 1" uni05DC dx=-5 dy=0 dh=-5 dv=0 dx=0 dy=0 dh=0 dv=0
PairPos2: "'kern' Horizontal Kerning in Hebrew lookup 3 per glyph data 1" uniFB3B dx=-5 dy=0 dh=-5 dv=0 dx=0 dy=0 dh=0 dv=0
PairPos2: "'kern' Horizontal Kerning in Hebrew lookup 3 per glyph data 1" uni05DB dx=-5 dy=0 dh=-5 dv=0 dx=0 dy=0 dh=0 dv=0
PairPos2: "'kern' Horizontal Kerning in Hebrew lookup 3 per glyph data 1" hyphen dx=-25 dy=0 dh=-25 dv=0 dx=0 dy=0 dh=0 dv=0
PairPos2: "'kern' Horizontal Kerning in Hebrew lookup 3 per glyph data 1" endash dx=-25 dy=0 dh=-25 dv=0 dx=0 dy=0 dh=0 dv=0
PairPos2: "'kern' Horizontal Kerning in Hebrew lookup 3 per glyph data 1" emdash dx=-25 dy=0 dh=-25 dv=0 dx=0 dy=0 dh=0 dv=0
PairPos2: "'kern' Horizontal Kerning in Hebrew lookup 3 per glyph data 1" uniFB33 dx=-4 dy=0 dh=-4 dv=0 dx=0 dy=0 dh=0 dv=0
PairPos2: "'kern' Horizontal Kerning in Hebrew lookup 3 per glyph data 1" uni05D3 dx=-4 dy=0 dh=-4 dv=0 dx=0 dy=0 dh=0 dv=0
PairPos2: "'kern' Horizontal Kerning in Hebrew lookup 3 per glyph data 1" uniFB31 dx=7 dy=0 dh=7 dv=0 dx=0 dy=0 dh=0 dv=0
PairPos2: "'kern' Horizontal Kerning in Hebrew lookup 3 per glyph data 1" uni05D1 dx=7 dy=0 dh=7 dv=0 dx=0 dy=0 dh=0 dv=0
PairPos2: "'kern' Horizontal Kerning in Hebrew lookup 3 per glyph data 1" uniFB30 dx=5 dy=0 dh=5 dv=0 dx=0 dy=0 dh=0 dv=0
PairPos2: "'kern' Horizontal Kerning in Hebrew lookup 3 per glyph data 1" uniFB2F dx=5 dy=0 dh=5 dv=0 dx=0 dy=0 dh=0 dv=0
PairPos2: "'kern' Horizontal Kerning in Hebrew lookup 3 per glyph data 1" uniFB2E dx=5 dy=0 dh=5 dv=0 dx=0 dy=0 dh=0 dv=0
PairPos2: "'kern' Horizontal Kerning in Hebrew lookup 3 per glyph data 1" uni05D0 dx=5 dy=0 dh=5 dv=0 dx=0 dy=0 dh=0 dv=0
EndChar

StartChar: Eogonek
Encoding: 280 280 31
Width: 530
GlyphClass: 2
Flags: W
AnchorPoint: "Anchor-10" 0 0 basechar 0
AnchorPoint: "Anchor-9" 20 666 basechar 0
AnchorPoint: "Anchor-8" 0 0 basechar 0
AnchorPoint: "Anchor-7" 275 666 basechar 0
AnchorPoint: "Anchor-6" 424 0 basechar 0
AnchorPoint: "Anchor-5" 275 0 basechar 0
LayerCount: 2
Fore
SplineSet
478 -120 m 1,1,-1
 473 -197 l 1,2,3
 458 -208 458 -208 436 -214 c 128,-1,4
 414 -220 414 -220 389 -220 c 0,5,6
 336 -220 336 -220 305.5 -193.5 c 128,-1,7
 275 -167 275 -167 275 -122 c 0,8,9
 275 -80 275 -80 300.5 -48.5 c 128,-1,10
 326 -17 326 -17 365 0 c 1,11,-1
 70 0 l 1,12,-1
 70 666 l 1,13,-1
 475 666 l 1,14,-1
 475 540 l 1,15,-1
 213 540 l 1,16,-1
 213 407 l 1,17,-1
 430 407 l 1,18,-1
 430 285 l 1,19,-1
 213 285 l 1,20,-1
 213 126 l 1,21,-1
 475 126 l 1,22,-1
 475 0 l 1,23,24
 426 -15 426 -15 396 -39 c 128,-1,25
 366 -63 366 -63 366 -93 c 0,26,27
 366 -114 366 -114 381.5 -125.5 c 128,-1,28
 397 -137 397 -137 420 -137 c 0,29,0
 450 -137 450 -137 478 -120 c 1,1,-1
EndSplineSet
PairPos2: "'kern' Horizontal Kerning in Hebrew lookup 3 per glyph data 3" uni05F4 dx=12 dy=0 dh=12 dv=0 dx=0 dy=0 dh=0 dv=0
PairPos2: "'kern' Horizontal Kerning in Hebrew lookup 3 per glyph data 3" uni05F3 dx=12 dy=0 dh=12 dv=0 dx=0 dy=0 dh=0 dv=0
PairPos2: "'kern' Horizontal Kerning in Hebrew lookup 3 per glyph data 3" quoteright dx=12 dy=0 dh=12 dv=0 dx=0 dy=0 dh=0 dv=0
PairPos2: "'kern' Horizontal Kerning in Hebrew lookup 3 per glyph data 3" quotedblright dx=12 dy=0 dh=12 dv=0 dx=0 dy=0 dh=0 dv=0
PairPos2: "'kern' Horizontal Kerning in Hebrew lookup 3 per glyph data 3" quotesingle dx=12 dy=0 dh=12 dv=0 dx=0 dy=0 dh=0 dv=0
PairPos2: "'kern' Horizontal Kerning in Hebrew lookup 3 per glyph data 3" quotedbl dx=12 dy=0 dh=12 dv=0 dx=0 dy=0 dh=0 dv=0
PairPos2: "'kern' Horizontal Kerning in Hebrew lookup 3 per glyph data 2" uni05E5 dx=-25 dy=0 dh=-25 dv=0 dx=0 dy=0 dh=0 dv=0
PairPos2: "'kern' Horizontal Kerning in Hebrew lookup 3 per glyph data 2" uniFB36 dx=-25 dy=0 dh=-25 dv=0 dx=0 dy=0 dh=0 dv=0
PairPos2: "'kern' Horizontal Kerning in Hebrew lookup 3 per glyph data 2" uni05D6 dx=-25 dy=0 dh=-25 dv=0 dx=0 dy=0 dh=0 dv=0
PairPos2: "'kern' Horizontal Kerning in Hebrew lookup 3 per glyph data 2" uniFB46 dx=-20 dy=0 dh=-20 dv=0 dx=0 dy=0 dh=0 dv=0
PairPos2: "'kern' Horizontal Kerning in Hebrew lookup 3 per glyph data 2" uni05E6 dx=-20 dy=0 dh=-20 dv=0 dx=0 dy=0 dh=0 dv=0
PairPos2: "'kern' Horizontal Kerning in Hebrew lookup 3 per glyph data 2" uniFB38 dx=5 dy=0 dh=5 dv=0 dx=0 dy=0 dh=0 dv=0
PairPos2: "'kern' Horizontal Kerning in Hebrew lookup 3 per glyph data 2" uni05D8 dx=5 dy=0 dh=5 dv=0 dx=0 dy=0 dh=0 dv=0
PairPos2: "'kern' Horizontal Kerning in Hebrew lookup 3 per glyph data 2" uniFB41 dx=5 dy=0 dh=5 dv=0 dx=0 dy=0 dh=0 dv=0
PairPos2: "'kern' Horizontal Kerning in Hebrew lookup 3 per glyph data 2" uni05E1 dx=5 dy=0 dh=5 dv=0 dx=0 dy=0 dh=0 dv=0
PairPos2: "'kern' Horizontal Kerning in Hebrew lookup 3 per glyph data 2" uniFB3B dx=10 dy=0 dh=10 dv=0 dx=0 dy=0 dh=0 dv=0
PairPos2: "'kern' Horizontal Kerning in Hebrew lookup 3 per glyph data 2" uni05DB dx=10 dy=0 dh=10 dv=0 dx=0 dy=0 dh=0 dv=0
PairPos2: "'kern' Horizontal Kerning in Hebrew lookup 3 per glyph data 2" uniFB33 dx=-20 dy=0 dh=-20 dv=0 dx=0 dy=0 dh=0 dv=0
PairPos2: "'kern' Horizontal Kerning in Hebrew lookup 3 per glyph data 2" uni05D3 dx=-20 dy=0 dh=-20 dv=0 dx=0 dy=0 dh=0 dv=0
PairPos2: "'kern' Horizontal Kerning in Hebrew lookup 3 per glyph data 2" uniFB31 dx=-15 dy=0 dh=-15 dv=0 dx=0 dy=0 dh=0 dv=0
PairPos2: "'kern' Horizontal Kerning in Hebrew lookup 3 per glyph data 2" uni05D1 dx=-15 dy=0 dh=-15 dv=0 dx=0 dy=0 dh=0 dv=0
PairPos2: "'kern' Horizontal Kerning in Hebrew lookup 3 per glyph data 2" uniFB30 dx=-12 dy=0 dh=-12 dv=0 dx=0 dy=0 dh=0 dv=0
PairPos2: "'kern' Horizontal Kerning in Hebrew lookup 3 per glyph data 2" uniFB2F dx=-12 dy=0 dh=-12 dv=0 dx=0 dy=0 dh=0 dv=0
PairPos2: "'kern' Horizontal Kerning in Hebrew lookup 3 per glyph data 2" uniFB2E dx=-12 dy=0 dh=-12 dv=0 dx=0 dy=0 dh=0 dv=0
PairPos2: "'kern' Horizontal Kerning in Hebrew lookup 3 per glyph data 2" uni05D0 dx=-12 dy=0 dh=-12 dv=0 dx=0 dy=0 dh=0 dv=0
PairPos2: "'kern' Horizontal Kerning in Hebrew lookup 3 per glyph data 1" uni05E5 dx=-5 dy=0 dh=-5 dv=0 dx=0 dy=0 dh=0 dv=0
PairPos2: "'kern' Horizontal Kerning in Hebrew lookup 3 per glyph data 1" uniFB36 dx=-10 dy=0 dh=-10 dv=0 dx=0 dy=0 dh=0 dv=0
PairPos2: "'kern' Horizontal Kerning in Hebrew lookup 3 per glyph data 1" uni05D6 dx=-10 dy=0 dh=-10 dv=0 dx=0 dy=0 dh=0 dv=0
PairPos2: "'kern' Horizontal Kerning in Hebrew lookup 3 per glyph data 1" uniFB39 dx=-5 dy=0 dh=-5 dv=0 dx=0 dy=0 dh=0 dv=0
PairPos2: "'kern' Horizontal Kerning in Hebrew lookup 3 per glyph data 1" uni05D9 dx=-5 dy=0 dh=-5 dv=0 dx=0 dy=0 dh=0 dv=0
PairPos2: "'kern' Horizontal Kerning in Hebrew lookup 3 per glyph data 1" uniFB38 dx=-10 dy=0 dh=-10 dv=0 dx=0 dy=0 dh=0 dv=0
PairPos2: "'kern' Horizontal Kerning in Hebrew lookup 3 per glyph data 1" uni05D8 dx=-10 dy=0 dh=-10 dv=0 dx=0 dy=0 dh=0 dv=0
PairPos2: "'kern' Horizontal Kerning in Hebrew lookup 3 per glyph data 1" uniFB41 dx=-7 dy=0 dh=-7 dv=0 dx=0 dy=0 dh=0 dv=0
PairPos2: "'kern' Horizontal Kerning in Hebrew lookup 3 per glyph data 1" uni05E1 dx=-7 dy=0 dh=-7 dv=0 dx=0 dy=0 dh=0 dv=0
PairPos2: "'kern' Horizontal Kerning in Hebrew lookup 3 per glyph data 1" uni05F4 dx=5 dy=0 dh=5 dv=0 dx=0 dy=0 dh=0 dv=0
PairPos2: "'kern' Horizontal Kerning in Hebrew lookup 3 per glyph data 1" uni05F3 dx=5 dy=0 dh=5 dv=0 dx=0 dy=0 dh=0 dv=0
PairPos2: "'kern' Horizontal Kerning in Hebrew lookup 3 per glyph data 1" quoteright dx=5 dy=0 dh=5 dv=0 dx=0 dy=0 dh=0 dv=0
PairPos2: "'kern' Horizontal Kerning in Hebrew lookup 3 per glyph data 1" quotedblright dx=5 dy=0 dh=5 dv=0 dx=0 dy=0 dh=0 dv=0
PairPos2: "'kern' Horizontal Kerning in Hebrew lookup 3 per glyph data 1" quotesingle dx=5 dy=0 dh=5 dv=0 dx=0 dy=0 dh=0 dv=0
PairPos2: "'kern' Horizontal Kerning in Hebrew lookup 3 per glyph data 1" quotedbl dx=5 dy=0 dh=5 dv=0 dx=0 dy=0 dh=0 dv=0
PairPos2: "'kern' Horizontal Kerning in Hebrew lookup 3 per glyph data 1" period dx=10 dy=0 dh=10 dv=0 dx=0 dy=0 dh=0 dv=0
PairPos2: "'kern' Horizontal Kerning in Hebrew lookup 3 per glyph data 1" ellipsis dx=10 dy=0 dh=10 dv=0 dx=0 dy=0 dh=0 dv=0
PairPos2: "'kern' Horizontal Kerning in Hebrew lookup 3 per glyph data 1" uniFB3C dx=-5 dy=0 dh=-5 dv=0 dx=0 dy=0 dh=0 dv=0
PairPos2: "'kern' Horizontal Kerning in Hebrew lookup 3 per glyph data 1" uni05DC dx=-5 dy=0 dh=-5 dv=0 dx=0 dy=0 dh=0 dv=0
PairPos2: "'kern' Horizontal Kerning in Hebrew lookup 3 per glyph data 1" uniFB3B dx=-5 dy=0 dh=-5 dv=0 dx=0 dy=0 dh=0 dv=0
PairPos2: "'kern' Horizontal Kerning in Hebrew lookup 3 per glyph data 1" uni05DB dx=-5 dy=0 dh=-5 dv=0 dx=0 dy=0 dh=0 dv=0
PairPos2: "'kern' Horizontal Kerning in Hebrew lookup 3 per glyph data 1" hyphen dx=-25 dy=0 dh=-25 dv=0 dx=0 dy=0 dh=0 dv=0
PairPos2: "'kern' Horizontal Kerning in Hebrew lookup 3 per glyph data 1" endash dx=-25 dy=0 dh=-25 dv=0 dx=0 dy=0 dh=0 dv=0
PairPos2: "'kern' Horizontal Kerning in Hebrew lookup 3 per glyph data 1" emdash dx=-25 dy=0 dh=-25 dv=0 dx=0 dy=0 dh=0 dv=0
PairPos2: "'kern' Horizontal Kerning in Hebrew lookup 3 per glyph data 1" uniFB33 dx=-4 dy=0 dh=-4 dv=0 dx=0 dy=0 dh=0 dv=0
PairPos2: "'kern' Horizontal Kerning in Hebrew lookup 3 per glyph data 1" uni05D3 dx=-4 dy=0 dh=-4 dv=0 dx=0 dy=0 dh=0 dv=0
PairPos2: "'kern' Horizontal Kerning in Hebrew lookup 3 per glyph data 1" uniFB31 dx=7 dy=0 dh=7 dv=0 dx=0 dy=0 dh=0 dv=0
PairPos2: "'kern' Horizontal Kerning in Hebrew lookup 3 per glyph data 1" uni05D1 dx=7 dy=0 dh=7 dv=0 dx=0 dy=0 dh=0 dv=0
PairPos2: "'kern' Horizontal Kerning in Hebrew lookup 3 per glyph data 1" uniFB30 dx=5 dy=0 dh=5 dv=0 dx=0 dy=0 dh=0 dv=0
PairPos2: "'kern' Horizontal Kerning in Hebrew lookup 3 per glyph data 1" uniFB2F dx=5 dy=0 dh=5 dv=0 dx=0 dy=0 dh=0 dv=0
PairPos2: "'kern' Horizontal Kerning in Hebrew lookup 3 per glyph data 1" uniFB2E dx=5 dy=0 dh=5 dv=0 dx=0 dy=0 dh=0 dv=0
PairPos2: "'kern' Horizontal Kerning in Hebrew lookup 3 per glyph data 1" uni05D0 dx=5 dy=0 dh=5 dv=0 dx=0 dy=0 dh=0 dv=0
EndChar

StartChar: F
Encoding: 70 70 32
Width: 517
GlyphClass: 2
Flags: W
AnchorPoint: "Anchor-10" 0 0 basechar 0
AnchorPoint: "Anchor-9" 0 0 basechar 0
AnchorPoint: "Anchor-8" 0 0 basechar 0
AnchorPoint: "Anchor-7" 279 666 basechar 0
AnchorPoint: "Anchor-6" 0 0 basechar 0
AnchorPoint: "Anchor-5" 141 0 basechar 0
LayerCount: 2
Fore
SplineSet
70 666 m 1,0,-1
 477 666 l 1,1,-1
 477 540 l 1,2,-1
 215 540 l 1,3,-1
 215 388 l 1,4,-1
 432 388 l 1,5,-1
 432 263 l 1,6,-1
 215 263 l 1,7,-1
 215 0 l 1,8,-1
 70 0 l 1,9,-1
 70 666 l 1,0,-1
EndSplineSet
PairPos2: "'kern' Horizontal Kerning in Hebrew lookup 3 per glyph data 3" uni05F4 dx=12 dy=0 dh=12 dv=0 dx=0 dy=0 dh=0 dv=0
PairPos2: "'kern' Horizontal Kerning in Hebrew lookup 3 per glyph data 3" uni05F3 dx=12 dy=0 dh=12 dv=0 dx=0 dy=0 dh=0 dv=0
PairPos2: "'kern' Horizontal Kerning in Hebrew lookup 3 per glyph data 3" quoteright dx=12 dy=0 dh=12 dv=0 dx=0 dy=0 dh=0 dv=0
PairPos2: "'kern' Horizontal Kerning in Hebrew lookup 3 per glyph data 3" quotedblright dx=12 dy=0 dh=12 dv=0 dx=0 dy=0 dh=0 dv=0
PairPos2: "'kern' Horizontal Kerning in Hebrew lookup 3 per glyph data 3" quotesingle dx=12 dy=0 dh=12 dv=0 dx=0 dy=0 dh=0 dv=0
PairPos2: "'kern' Horizontal Kerning in Hebrew lookup 3 per glyph data 3" quotedbl dx=12 dy=0 dh=12 dv=0 dx=0 dy=0 dh=0 dv=0
PairPos2: "'kern' Horizontal Kerning in Hebrew lookup 3 per glyph data 2" uni05E5 dx=-25 dy=0 dh=-25 dv=0 dx=0 dy=0 dh=0 dv=0
PairPos2: "'kern' Horizontal Kerning in Hebrew lookup 3 per glyph data 2" uniFB36 dx=-25 dy=0 dh=-25 dv=0 dx=0 dy=0 dh=0 dv=0
PairPos2: "'kern' Horizontal Kerning in Hebrew lookup 3 per glyph data 2" uni05D6 dx=-25 dy=0 dh=-25 dv=0 dx=0 dy=0 dh=0 dv=0
PairPos2: "'kern' Horizontal Kerning in Hebrew lookup 3 per glyph data 2" uniFB46 dx=-20 dy=0 dh=-20 dv=0 dx=0 dy=0 dh=0 dv=0
PairPos2: "'kern' Horizontal Kerning in Hebrew lookup 3 per glyph data 2" uni05E6 dx=-20 dy=0 dh=-20 dv=0 dx=0 dy=0 dh=0 dv=0
PairPos2: "'kern' Horizontal Kerning in Hebrew lookup 3 per glyph data 2" uniFB38 dx=5 dy=0 dh=5 dv=0 dx=0 dy=0 dh=0 dv=0
PairPos2: "'kern' Horizontal Kerning in Hebrew lookup 3 per glyph data 2" uni05D8 dx=5 dy=0 dh=5 dv=0 dx=0 dy=0 dh=0 dv=0
PairPos2: "'kern' Horizontal Kerning in Hebrew lookup 3 per glyph data 2" uniFB41 dx=5 dy=0 dh=5 dv=0 dx=0 dy=0 dh=0 dv=0
PairPos2: "'kern' Horizontal Kerning in Hebrew lookup 3 per glyph data 2" uni05E1 dx=5 dy=0 dh=5 dv=0 dx=0 dy=0 dh=0 dv=0
PairPos2: "'kern' Horizontal Kerning in Hebrew lookup 3 per glyph data 2" uniFB3B dx=10 dy=0 dh=10 dv=0 dx=0 dy=0 dh=0 dv=0
PairPos2: "'kern' Horizontal Kerning in Hebrew lookup 3 per glyph data 2" uni05DB dx=10 dy=0 dh=10 dv=0 dx=0 dy=0 dh=0 dv=0
PairPos2: "'kern' Horizontal Kerning in Hebrew lookup 3 per glyph data 2" uniFB33 dx=-20 dy=0 dh=-20 dv=0 dx=0 dy=0 dh=0 dv=0
PairPos2: "'kern' Horizontal Kerning in Hebrew lookup 3 per glyph data 2" uni05D3 dx=-20 dy=0 dh=-20 dv=0 dx=0 dy=0 dh=0 dv=0
PairPos2: "'kern' Horizontal Kerning in Hebrew lookup 3 per glyph data 2" uniFB31 dx=-15 dy=0 dh=-15 dv=0 dx=0 dy=0 dh=0 dv=0
PairPos2: "'kern' Horizontal Kerning in Hebrew lookup 3 per glyph data 2" uni05D1 dx=-15 dy=0 dh=-15 dv=0 dx=0 dy=0 dh=0 dv=0
PairPos2: "'kern' Horizontal Kerning in Hebrew lookup 3 per glyph data 2" uniFB30 dx=-12 dy=0 dh=-12 dv=0 dx=0 dy=0 dh=0 dv=0
PairPos2: "'kern' Horizontal Kerning in Hebrew lookup 3 per glyph data 2" uniFB2F dx=-12 dy=0 dh=-12 dv=0 dx=0 dy=0 dh=0 dv=0
PairPos2: "'kern' Horizontal Kerning in Hebrew lookup 3 per glyph data 2" uniFB2E dx=-12 dy=0 dh=-12 dv=0 dx=0 dy=0 dh=0 dv=0
PairPos2: "'kern' Horizontal Kerning in Hebrew lookup 3 per glyph data 2" uni05D0 dx=-12 dy=0 dh=-12 dv=0 dx=0 dy=0 dh=0 dv=0
PairPos2: "'kern' Horizontal Kerning in Hebrew lookup 3 per glyph data 1" uni05E5 dx=-5 dy=0 dh=-5 dv=0 dx=0 dy=0 dh=0 dv=0
PairPos2: "'kern' Horizontal Kerning in Hebrew lookup 3 per glyph data 1" uniFB36 dx=-10 dy=0 dh=-10 dv=0 dx=0 dy=0 dh=0 dv=0
PairPos2: "'kern' Horizontal Kerning in Hebrew lookup 3 per glyph data 1" uni05D6 dx=-10 dy=0 dh=-10 dv=0 dx=0 dy=0 dh=0 dv=0
PairPos2: "'kern' Horizontal Kerning in Hebrew lookup 3 per glyph data 1" uniFB39 dx=-5 dy=0 dh=-5 dv=0 dx=0 dy=0 dh=0 dv=0
PairPos2: "'kern' Horizontal Kerning in Hebrew lookup 3 per glyph data 1" uni05D9 dx=-5 dy=0 dh=-5 dv=0 dx=0 dy=0 dh=0 dv=0
PairPos2: "'kern' Horizontal Kerning in Hebrew lookup 3 per glyph data 1" uniFB38 dx=-10 dy=0 dh=-10 dv=0 dx=0 dy=0 dh=0 dv=0
PairPos2: "'kern' Horizontal Kerning in Hebrew lookup 3 per glyph data 1" uni05D8 dx=-10 dy=0 dh=-10 dv=0 dx=0 dy=0 dh=0 dv=0
PairPos2: "'kern' Horizontal Kerning in Hebrew lookup 3 per glyph data 1" uniFB41 dx=-7 dy=0 dh=-7 dv=0 dx=0 dy=0 dh=0 dv=0
PairPos2: "'kern' Horizontal Kerning in Hebrew lookup 3 per glyph data 1" uni05E1 dx=-7 dy=0 dh=-7 dv=0 dx=0 dy=0 dh=0 dv=0
PairPos2: "'kern' Horizontal Kerning in Hebrew lookup 3 per glyph data 1" uni05F4 dx=5 dy=0 dh=5 dv=0 dx=0 dy=0 dh=0 dv=0
PairPos2: "'kern' Horizontal Kerning in Hebrew lookup 3 per glyph data 1" uni05F3 dx=5 dy=0 dh=5 dv=0 dx=0 dy=0 dh=0 dv=0
PairPos2: "'kern' Horizontal Kerning in Hebrew lookup 3 per glyph data 1" quoteright dx=5 dy=0 dh=5 dv=0 dx=0 dy=0 dh=0 dv=0
PairPos2: "'kern' Horizontal Kerning in Hebrew lookup 3 per glyph data 1" quotedblright dx=5 dy=0 dh=5 dv=0 dx=0 dy=0 dh=0 dv=0
PairPos2: "'kern' Horizontal Kerning in Hebrew lookup 3 per glyph data 1" quotesingle dx=5 dy=0 dh=5 dv=0 dx=0 dy=0 dh=0 dv=0
PairPos2: "'kern' Horizontal Kerning in Hebrew lookup 3 per glyph data 1" quotedbl dx=5 dy=0 dh=5 dv=0 dx=0 dy=0 dh=0 dv=0
PairPos2: "'kern' Horizontal Kerning in Hebrew lookup 3 per glyph data 1" period dx=10 dy=0 dh=10 dv=0 dx=0 dy=0 dh=0 dv=0
PairPos2: "'kern' Horizontal Kerning in Hebrew lookup 3 per glyph data 1" ellipsis dx=10 dy=0 dh=10 dv=0 dx=0 dy=0 dh=0 dv=0
PairPos2: "'kern' Horizontal Kerning in Hebrew lookup 3 per glyph data 1" uniFB3C dx=-5 dy=0 dh=-5 dv=0 dx=0 dy=0 dh=0 dv=0
PairPos2: "'kern' Horizontal Kerning in Hebrew lookup 3 per glyph data 1" uni05DC dx=-5 dy=0 dh=-5 dv=0 dx=0 dy=0 dh=0 dv=0
PairPos2: "'kern' Horizontal Kerning in Hebrew lookup 3 per glyph data 1" uniFB3B dx=-5 dy=0 dh=-5 dv=0 dx=0 dy=0 dh=0 dv=0
PairPos2: "'kern' Horizontal Kerning in Hebrew lookup 3 per glyph data 1" uni05DB dx=-5 dy=0 dh=-5 dv=0 dx=0 dy=0 dh=0 dv=0
PairPos2: "'kern' Horizontal Kerning in Hebrew lookup 3 per glyph data 1" hyphen dx=-25 dy=0 dh=-25 dv=0 dx=0 dy=0 dh=0 dv=0
PairPos2: "'kern' Horizontal Kerning in Hebrew lookup 3 per glyph data 1" endash dx=-25 dy=0 dh=-25 dv=0 dx=0 dy=0 dh=0 dv=0
PairPos2: "'kern' Horizontal Kerning in Hebrew lookup 3 per glyph data 1" emdash dx=-25 dy=0 dh=-25 dv=0 dx=0 dy=0 dh=0 dv=0
PairPos2: "'kern' Horizontal Kerning in Hebrew lookup 3 per glyph data 1" uniFB33 dx=-4 dy=0 dh=-4 dv=0 dx=0 dy=0 dh=0 dv=0
PairPos2: "'kern' Horizontal Kerning in Hebrew lookup 3 per glyph data 1" uni05D3 dx=-4 dy=0 dh=-4 dv=0 dx=0 dy=0 dh=0 dv=0
PairPos2: "'kern' Horizontal Kerning in Hebrew lookup 3 per glyph data 1" uniFB31 dx=7 dy=0 dh=7 dv=0 dx=0 dy=0 dh=0 dv=0
PairPos2: "'kern' Horizontal Kerning in Hebrew lookup 3 per glyph data 1" uni05D1 dx=7 dy=0 dh=7 dv=0 dx=0 dy=0 dh=0 dv=0
PairPos2: "'kern' Horizontal Kerning in Hebrew lookup 3 per glyph data 1" uniFB30 dx=5 dy=0 dh=5 dv=0 dx=0 dy=0 dh=0 dv=0
PairPos2: "'kern' Horizontal Kerning in Hebrew lookup 3 per glyph data 1" uniFB2F dx=5 dy=0 dh=5 dv=0 dx=0 dy=0 dh=0 dv=0
PairPos2: "'kern' Horizontal Kerning in Hebrew lookup 3 per glyph data 1" uniFB2E dx=5 dy=0 dh=5 dv=0 dx=0 dy=0 dh=0 dv=0
PairPos2: "'kern' Horizontal Kerning in Hebrew lookup 3 per glyph data 1" uni05D0 dx=5 dy=0 dh=5 dv=0 dx=0 dy=0 dh=0 dv=0
EndChar

StartChar: G
Encoding: 71 71 33
Width: 688
GlyphClass: 2
Flags: W
AnchorPoint: "Anchor-10" 0 0 basechar 0
AnchorPoint: "Anchor-9" 0 0 basechar 0
AnchorPoint: "Anchor-8" 0 0 basechar 0
AnchorPoint: "Anchor-7" 394 666 basechar 0
AnchorPoint: "Anchor-6" 0 0 basechar 0
AnchorPoint: "Anchor-5" 399 0 basechar 0
LayerCount: 2
Fore
SplineSet
211.5 24.5 m 128,-1,1
 131 64 131 64 88 138 c 128,-1,2
 45 212 45 212 45 314 c 0,3,4
 45 421 45 421 90.5 503 c 128,-1,5
 136 585 136 585 218.5 630 c 128,-1,6
 301 675 301 675 409 675 c 0,7,8
 471 675 471 675 526.5 661 c 128,-1,9
 582 647 582 647 625 621 c 1,10,-1
 590 501 l 1,11,12
 551 525 551 525 503 538.5 c 128,-1,13
 455 552 455 552 409 552 c 0,14,15
 343 552 343 552 292.5 523.5 c 128,-1,16
 242 495 242 495 214.5 443.5 c 128,-1,17
 187 392 187 392 187 324 c 0,18,19
 187 224 187 224 247.5 166.5 c 128,-1,20
 308 109 308 109 413 109 c 0,21,22
 455 109 455 109 491 115 c 1,23,-1
 491 253 l 1,24,-1
 407 253 l 1,25,-1
 407 370 l 1,26,-1
 624 370 l 1,27,-1
 624 24 l 1,28,29
 521 -15 521 -15 403 -15 c 0,30,0
 292 -15 292 -15 211.5 24.5 c 128,-1,1
EndSplineSet
PairPos2: "'kern' Horizontal Kerning in Hebrew lookup 3 per glyph data 3" uni05F4 dx=12 dy=0 dh=12 dv=0 dx=0 dy=0 dh=0 dv=0
PairPos2: "'kern' Horizontal Kerning in Hebrew lookup 3 per glyph data 3" uni05F3 dx=12 dy=0 dh=12 dv=0 dx=0 dy=0 dh=0 dv=0
PairPos2: "'kern' Horizontal Kerning in Hebrew lookup 3 per glyph data 3" quoteright dx=12 dy=0 dh=12 dv=0 dx=0 dy=0 dh=0 dv=0
PairPos2: "'kern' Horizontal Kerning in Hebrew lookup 3 per glyph data 3" quotedblright dx=12 dy=0 dh=12 dv=0 dx=0 dy=0 dh=0 dv=0
PairPos2: "'kern' Horizontal Kerning in Hebrew lookup 3 per glyph data 3" quotesingle dx=12 dy=0 dh=12 dv=0 dx=0 dy=0 dh=0 dv=0
PairPos2: "'kern' Horizontal Kerning in Hebrew lookup 3 per glyph data 3" quotedbl dx=12 dy=0 dh=12 dv=0 dx=0 dy=0 dh=0 dv=0
PairPos2: "'kern' Horizontal Kerning in Hebrew lookup 3 per glyph data 2" uni05E5 dx=-25 dy=0 dh=-25 dv=0 dx=0 dy=0 dh=0 dv=0
PairPos2: "'kern' Horizontal Kerning in Hebrew lookup 3 per glyph data 2" uniFB36 dx=-25 dy=0 dh=-25 dv=0 dx=0 dy=0 dh=0 dv=0
PairPos2: "'kern' Horizontal Kerning in Hebrew lookup 3 per glyph data 2" uni05D6 dx=-25 dy=0 dh=-25 dv=0 dx=0 dy=0 dh=0 dv=0
PairPos2: "'kern' Horizontal Kerning in Hebrew lookup 3 per glyph data 2" uniFB46 dx=-20 dy=0 dh=-20 dv=0 dx=0 dy=0 dh=0 dv=0
PairPos2: "'kern' Horizontal Kerning in Hebrew lookup 3 per glyph data 2" uni05E6 dx=-20 dy=0 dh=-20 dv=0 dx=0 dy=0 dh=0 dv=0
PairPos2: "'kern' Horizontal Kerning in Hebrew lookup 3 per glyph data 2" uniFB38 dx=5 dy=0 dh=5 dv=0 dx=0 dy=0 dh=0 dv=0
PairPos2: "'kern' Horizontal Kerning in Hebrew lookup 3 per glyph data 2" uni05D8 dx=5 dy=0 dh=5 dv=0 dx=0 dy=0 dh=0 dv=0
PairPos2: "'kern' Horizontal Kerning in Hebrew lookup 3 per glyph data 2" uniFB41 dx=5 dy=0 dh=5 dv=0 dx=0 dy=0 dh=0 dv=0
PairPos2: "'kern' Horizontal Kerning in Hebrew lookup 3 per glyph data 2" uni05E1 dx=5 dy=0 dh=5 dv=0 dx=0 dy=0 dh=0 dv=0
PairPos2: "'kern' Horizontal Kerning in Hebrew lookup 3 per glyph data 2" uniFB3B dx=10 dy=0 dh=10 dv=0 dx=0 dy=0 dh=0 dv=0
PairPos2: "'kern' Horizontal Kerning in Hebrew lookup 3 per glyph data 2" uni05DB dx=10 dy=0 dh=10 dv=0 dx=0 dy=0 dh=0 dv=0
PairPos2: "'kern' Horizontal Kerning in Hebrew lookup 3 per glyph data 2" uniFB33 dx=-20 dy=0 dh=-20 dv=0 dx=0 dy=0 dh=0 dv=0
PairPos2: "'kern' Horizontal Kerning in Hebrew lookup 3 per glyph data 2" uni05D3 dx=-20 dy=0 dh=-20 dv=0 dx=0 dy=0 dh=0 dv=0
PairPos2: "'kern' Horizontal Kerning in Hebrew lookup 3 per glyph data 2" uniFB31 dx=-15 dy=0 dh=-15 dv=0 dx=0 dy=0 dh=0 dv=0
PairPos2: "'kern' Horizontal Kerning in Hebrew lookup 3 per glyph data 2" uni05D1 dx=-15 dy=0 dh=-15 dv=0 dx=0 dy=0 dh=0 dv=0
PairPos2: "'kern' Horizontal Kerning in Hebrew lookup 3 per glyph data 2" uniFB30 dx=-12 dy=0 dh=-12 dv=0 dx=0 dy=0 dh=0 dv=0
PairPos2: "'kern' Horizontal Kerning in Hebrew lookup 3 per glyph data 2" uniFB2F dx=-12 dy=0 dh=-12 dv=0 dx=0 dy=0 dh=0 dv=0
PairPos2: "'kern' Horizontal Kerning in Hebrew lookup 3 per glyph data 2" uniFB2E dx=-12 dy=0 dh=-12 dv=0 dx=0 dy=0 dh=0 dv=0
PairPos2: "'kern' Horizontal Kerning in Hebrew lookup 3 per glyph data 2" uni05D0 dx=-12 dy=0 dh=-12 dv=0 dx=0 dy=0 dh=0 dv=0
PairPos2: "'kern' Horizontal Kerning in Hebrew lookup 3 per glyph data 1" uni05E5 dx=-5 dy=0 dh=-5 dv=0 dx=0 dy=0 dh=0 dv=0
PairPos2: "'kern' Horizontal Kerning in Hebrew lookup 3 per glyph data 1" uniFB36 dx=-10 dy=0 dh=-10 dv=0 dx=0 dy=0 dh=0 dv=0
PairPos2: "'kern' Horizontal Kerning in Hebrew lookup 3 per glyph data 1" uni05D6 dx=-10 dy=0 dh=-10 dv=0 dx=0 dy=0 dh=0 dv=0
PairPos2: "'kern' Horizontal Kerning in Hebrew lookup 3 per glyph data 1" uniFB39 dx=-5 dy=0 dh=-5 dv=0 dx=0 dy=0 dh=0 dv=0
PairPos2: "'kern' Horizontal Kerning in Hebrew lookup 3 per glyph data 1" uni05D9 dx=-5 dy=0 dh=-5 dv=0 dx=0 dy=0 dh=0 dv=0
PairPos2: "'kern' Horizontal Kerning in Hebrew lookup 3 per glyph data 1" uniFB38 dx=-10 dy=0 dh=-10 dv=0 dx=0 dy=0 dh=0 dv=0
PairPos2: "'kern' Horizontal Kerning in Hebrew lookup 3 per glyph data 1" uni05D8 dx=-10 dy=0 dh=-10 dv=0 dx=0 dy=0 dh=0 dv=0
PairPos2: "'kern' Horizontal Kerning in Hebrew lookup 3 per glyph data 1" uniFB41 dx=-7 dy=0 dh=-7 dv=0 dx=0 dy=0 dh=0 dv=0
PairPos2: "'kern' Horizontal Kerning in Hebrew lookup 3 per glyph data 1" uni05E1 dx=-7 dy=0 dh=-7 dv=0 dx=0 dy=0 dh=0 dv=0
PairPos2: "'kern' Horizontal Kerning in Hebrew lookup 3 per glyph data 1" uni05F4 dx=5 dy=0 dh=5 dv=0 dx=0 dy=0 dh=0 dv=0
PairPos2: "'kern' Horizontal Kerning in Hebrew lookup 3 per glyph data 1" uni05F3 dx=5 dy=0 dh=5 dv=0 dx=0 dy=0 dh=0 dv=0
PairPos2: "'kern' Horizontal Kerning in Hebrew lookup 3 per glyph data 1" quoteright dx=5 dy=0 dh=5 dv=0 dx=0 dy=0 dh=0 dv=0
PairPos2: "'kern' Horizontal Kerning in Hebrew lookup 3 per glyph data 1" quotedblright dx=5 dy=0 dh=5 dv=0 dx=0 dy=0 dh=0 dv=0
PairPos2: "'kern' Horizontal Kerning in Hebrew lookup 3 per glyph data 1" quotesingle dx=5 dy=0 dh=5 dv=0 dx=0 dy=0 dh=0 dv=0
PairPos2: "'kern' Horizontal Kerning in Hebrew lookup 3 per glyph data 1" quotedbl dx=5 dy=0 dh=5 dv=0 dx=0 dy=0 dh=0 dv=0
PairPos2: "'kern' Horizontal Kerning in Hebrew lookup 3 per glyph data 1" period dx=10 dy=0 dh=10 dv=0 dx=0 dy=0 dh=0 dv=0
PairPos2: "'kern' Horizontal Kerning in Hebrew lookup 3 per glyph data 1" ellipsis dx=10 dy=0 dh=10 dv=0 dx=0 dy=0 dh=0 dv=0
PairPos2: "'kern' Horizontal Kerning in Hebrew lookup 3 per glyph data 1" uniFB3C dx=-5 dy=0 dh=-5 dv=0 dx=0 dy=0 dh=0 dv=0
PairPos2: "'kern' Horizontal Kerning in Hebrew lookup 3 per glyph data 1" uni05DC dx=-5 dy=0 dh=-5 dv=0 dx=0 dy=0 dh=0 dv=0
PairPos2: "'kern' Horizontal Kerning in Hebrew lookup 3 per glyph data 1" uniFB3B dx=-5 dy=0 dh=-5 dv=0 dx=0 dy=0 dh=0 dv=0
PairPos2: "'kern' Horizontal Kerning in Hebrew lookup 3 per glyph data 1" uni05DB dx=-5 dy=0 dh=-5 dv=0 dx=0 dy=0 dh=0 dv=0
PairPos2: "'kern' Horizontal Kerning in Hebrew lookup 3 per glyph data 1" hyphen dx=-25 dy=0 dh=-25 dv=0 dx=0 dy=0 dh=0 dv=0
PairPos2: "'kern' Horizontal Kerning in Hebrew lookup 3 per glyph data 1" endash dx=-25 dy=0 dh=-25 dv=0 dx=0 dy=0 dh=0 dv=0
PairPos2: "'kern' Horizontal Kerning in Hebrew lookup 3 per glyph data 1" emdash dx=-25 dy=0 dh=-25 dv=0 dx=0 dy=0 dh=0 dv=0
PairPos2: "'kern' Horizontal Kerning in Hebrew lookup 3 per glyph data 1" uniFB33 dx=-4 dy=0 dh=-4 dv=0 dx=0 dy=0 dh=0 dv=0
PairPos2: "'kern' Horizontal Kerning in Hebrew lookup 3 per glyph data 1" uni05D3 dx=-4 dy=0 dh=-4 dv=0 dx=0 dy=0 dh=0 dv=0
PairPos2: "'kern' Horizontal Kerning in Hebrew lookup 3 per glyph data 1" uniFB31 dx=7 dy=0 dh=7 dv=0 dx=0 dy=0 dh=0 dv=0
PairPos2: "'kern' Horizontal Kerning in Hebrew lookup 3 per glyph data 1" uni05D1 dx=7 dy=0 dh=7 dv=0 dx=0 dy=0 dh=0 dv=0
PairPos2: "'kern' Horizontal Kerning in Hebrew lookup 3 per glyph data 1" uniFB30 dx=5 dy=0 dh=5 dv=0 dx=0 dy=0 dh=0 dv=0
PairPos2: "'kern' Horizontal Kerning in Hebrew lookup 3 per glyph data 1" uniFB2F dx=5 dy=0 dh=5 dv=0 dx=0 dy=0 dh=0 dv=0
PairPos2: "'kern' Horizontal Kerning in Hebrew lookup 3 per glyph data 1" uniFB2E dx=5 dy=0 dh=5 dv=0 dx=0 dy=0 dh=0 dv=0
PairPos2: "'kern' Horizontal Kerning in Hebrew lookup 3 per glyph data 1" uni05D0 dx=5 dy=0 dh=5 dv=0 dx=0 dy=0 dh=0 dv=0
EndChar

StartChar: H
Encoding: 72 72 37
Width: 716
GlyphClass: 2
Flags: W
AnchorPoint: "Anchor-10" 0 0 basechar 0
AnchorPoint: "Anchor-9" 20 666 basechar 0
AnchorPoint: "Anchor-8" 358 536 basechar 0
AnchorPoint: "Anchor-7" 358 666 basechar 0
AnchorPoint: "Anchor-6" 0 0 basechar 0
AnchorPoint: "Anchor-5" 358 0 basechar 0
LayerCount: 2
Fore
SplineSet
70 666 m 1,0,-1
 216 666 l 1,1,-1
 216 408 l 1,2,-1
 499 408 l 1,3,-1
 499 666 l 1,4,-1
 646 666 l 1,5,-1
 646 0 l 1,6,-1
 499 0 l 1,7,-1
 499 284 l 1,8,-1
 216 284 l 1,9,-1
 216 0 l 1,10,-1
 70 0 l 1,11,-1
 70 666 l 1,0,-1
EndSplineSet
PairPos2: "'kern' Horizontal Kerning in Hebrew lookup 3 per glyph data 3" uni05F4 dx=12 dy=0 dh=12 dv=0 dx=0 dy=0 dh=0 dv=0
PairPos2: "'kern' Horizontal Kerning in Hebrew lookup 3 per glyph data 3" uni05F3 dx=12 dy=0 dh=12 dv=0 dx=0 dy=0 dh=0 dv=0
PairPos2: "'kern' Horizontal Kerning in Hebrew lookup 3 per glyph data 3" quoteright dx=12 dy=0 dh=12 dv=0 dx=0 dy=0 dh=0 dv=0
PairPos2: "'kern' Horizontal Kerning in Hebrew lookup 3 per glyph data 3" quotedblright dx=12 dy=0 dh=12 dv=0 dx=0 dy=0 dh=0 dv=0
PairPos2: "'kern' Horizontal Kerning in Hebrew lookup 3 per glyph data 3" quotesingle dx=12 dy=0 dh=12 dv=0 dx=0 dy=0 dh=0 dv=0
PairPos2: "'kern' Horizontal Kerning in Hebrew lookup 3 per glyph data 3" quotedbl dx=12 dy=0 dh=12 dv=0 dx=0 dy=0 dh=0 dv=0
PairPos2: "'kern' Horizontal Kerning in Hebrew lookup 3 per glyph data 2" uni05E5 dx=-25 dy=0 dh=-25 dv=0 dx=0 dy=0 dh=0 dv=0
PairPos2: "'kern' Horizontal Kerning in Hebrew lookup 3 per glyph data 2" uniFB36 dx=-25 dy=0 dh=-25 dv=0 dx=0 dy=0 dh=0 dv=0
PairPos2: "'kern' Horizontal Kerning in Hebrew lookup 3 per glyph data 2" uni05D6 dx=-25 dy=0 dh=-25 dv=0 dx=0 dy=0 dh=0 dv=0
PairPos2: "'kern' Horizontal Kerning in Hebrew lookup 3 per glyph data 2" uniFB46 dx=-20 dy=0 dh=-20 dv=0 dx=0 dy=0 dh=0 dv=0
PairPos2: "'kern' Horizontal Kerning in Hebrew lookup 3 per glyph data 2" uni05E6 dx=-20 dy=0 dh=-20 dv=0 dx=0 dy=0 dh=0 dv=0
PairPos2: "'kern' Horizontal Kerning in Hebrew lookup 3 per glyph data 2" uniFB38 dx=5 dy=0 dh=5 dv=0 dx=0 dy=0 dh=0 dv=0
PairPos2: "'kern' Horizontal Kerning in Hebrew lookup 3 per glyph data 2" uni05D8 dx=5 dy=0 dh=5 dv=0 dx=0 dy=0 dh=0 dv=0
PairPos2: "'kern' Horizontal Kerning in Hebrew lookup 3 per glyph data 2" uniFB41 dx=5 dy=0 dh=5 dv=0 dx=0 dy=0 dh=0 dv=0
PairPos2: "'kern' Horizontal Kerning in Hebrew lookup 3 per glyph data 2" uni05E1 dx=5 dy=0 dh=5 dv=0 dx=0 dy=0 dh=0 dv=0
PairPos2: "'kern' Horizontal Kerning in Hebrew lookup 3 per glyph data 2" uniFB3B dx=10 dy=0 dh=10 dv=0 dx=0 dy=0 dh=0 dv=0
PairPos2: "'kern' Horizontal Kerning in Hebrew lookup 3 per glyph data 2" uni05DB dx=10 dy=0 dh=10 dv=0 dx=0 dy=0 dh=0 dv=0
PairPos2: "'kern' Horizontal Kerning in Hebrew lookup 3 per glyph data 2" uniFB33 dx=-20 dy=0 dh=-20 dv=0 dx=0 dy=0 dh=0 dv=0
PairPos2: "'kern' Horizontal Kerning in Hebrew lookup 3 per glyph data 2" uni05D3 dx=-20 dy=0 dh=-20 dv=0 dx=0 dy=0 dh=0 dv=0
PairPos2: "'kern' Horizontal Kerning in Hebrew lookup 3 per glyph data 2" uniFB31 dx=-15 dy=0 dh=-15 dv=0 dx=0 dy=0 dh=0 dv=0
PairPos2: "'kern' Horizontal Kerning in Hebrew lookup 3 per glyph data 2" uni05D1 dx=-15 dy=0 dh=-15 dv=0 dx=0 dy=0 dh=0 dv=0
PairPos2: "'kern' Horizontal Kerning in Hebrew lookup 3 per glyph data 2" uniFB30 dx=-12 dy=0 dh=-12 dv=0 dx=0 dy=0 dh=0 dv=0
PairPos2: "'kern' Horizontal Kerning in Hebrew lookup 3 per glyph data 2" uniFB2F dx=-12 dy=0 dh=-12 dv=0 dx=0 dy=0 dh=0 dv=0
PairPos2: "'kern' Horizontal Kerning in Hebrew lookup 3 per glyph data 2" uniFB2E dx=-12 dy=0 dh=-12 dv=0 dx=0 dy=0 dh=0 dv=0
PairPos2: "'kern' Horizontal Kerning in Hebrew lookup 3 per glyph data 2" uni05D0 dx=-12 dy=0 dh=-12 dv=0 dx=0 dy=0 dh=0 dv=0
PairPos2: "'kern' Horizontal Kerning in Hebrew lookup 3 per glyph data 1" uni05E5 dx=-5 dy=0 dh=-5 dv=0 dx=0 dy=0 dh=0 dv=0
PairPos2: "'kern' Horizontal Kerning in Hebrew lookup 3 per glyph data 1" uniFB36 dx=-10 dy=0 dh=-10 dv=0 dx=0 dy=0 dh=0 dv=0
PairPos2: "'kern' Horizontal Kerning in Hebrew lookup 3 per glyph data 1" uni05D6 dx=-10 dy=0 dh=-10 dv=0 dx=0 dy=0 dh=0 dv=0
PairPos2: "'kern' Horizontal Kerning in Hebrew lookup 3 per glyph data 1" uniFB39 dx=-5 dy=0 dh=-5 dv=0 dx=0 dy=0 dh=0 dv=0
PairPos2: "'kern' Horizontal Kerning in Hebrew lookup 3 per glyph data 1" uni05D9 dx=-5 dy=0 dh=-5 dv=0 dx=0 dy=0 dh=0 dv=0
PairPos2: "'kern' Horizontal Kerning in Hebrew lookup 3 per glyph data 1" uniFB38 dx=-10 dy=0 dh=-10 dv=0 dx=0 dy=0 dh=0 dv=0
PairPos2: "'kern' Horizontal Kerning in Hebrew lookup 3 per glyph data 1" uni05D8 dx=-10 dy=0 dh=-10 dv=0 dx=0 dy=0 dh=0 dv=0
PairPos2: "'kern' Horizontal Kerning in Hebrew lookup 3 per glyph data 1" uniFB41 dx=-7 dy=0 dh=-7 dv=0 dx=0 dy=0 dh=0 dv=0
PairPos2: "'kern' Horizontal Kerning in Hebrew lookup 3 per glyph data 1" uni05E1 dx=-7 dy=0 dh=-7 dv=0 dx=0 dy=0 dh=0 dv=0
PairPos2: "'kern' Horizontal Kerning in Hebrew lookup 3 per glyph data 1" uni05F4 dx=5 dy=0 dh=5 dv=0 dx=0 dy=0 dh=0 dv=0
PairPos2: "'kern' Horizontal Kerning in Hebrew lookup 3 per glyph data 1" uni05F3 dx=5 dy=0 dh=5 dv=0 dx=0 dy=0 dh=0 dv=0
PairPos2: "'kern' Horizontal Kerning in Hebrew lookup 3 per glyph data 1" quoteright dx=5 dy=0 dh=5 dv=0 dx=0 dy=0 dh=0 dv=0
PairPos2: "'kern' Horizontal Kerning in Hebrew lookup 3 per glyph data 1" quotedblright dx=5 dy=0 dh=5 dv=0 dx=0 dy=0 dh=0 dv=0
PairPos2: "'kern' Horizontal Kerning in Hebrew lookup 3 per glyph data 1" quotesingle dx=5 dy=0 dh=5 dv=0 dx=0 dy=0 dh=0 dv=0
PairPos2: "'kern' Horizontal Kerning in Hebrew lookup 3 per glyph data 1" quotedbl dx=5 dy=0 dh=5 dv=0 dx=0 dy=0 dh=0 dv=0
PairPos2: "'kern' Horizontal Kerning in Hebrew lookup 3 per glyph data 1" period dx=10 dy=0 dh=10 dv=0 dx=0 dy=0 dh=0 dv=0
PairPos2: "'kern' Horizontal Kerning in Hebrew lookup 3 per glyph data 1" ellipsis dx=10 dy=0 dh=10 dv=0 dx=0 dy=0 dh=0 dv=0
PairPos2: "'kern' Horizontal Kerning in Hebrew lookup 3 per glyph data 1" uniFB3C dx=-5 dy=0 dh=-5 dv=0 dx=0 dy=0 dh=0 dv=0
PairPos2: "'kern' Horizontal Kerning in Hebrew lookup 3 per glyph data 1" uni05DC dx=-5 dy=0 dh=-5 dv=0 dx=0 dy=0 dh=0 dv=0
PairPos2: "'kern' Horizontal Kerning in Hebrew lookup 3 per glyph data 1" uniFB3B dx=-5 dy=0 dh=-5 dv=0 dx=0 dy=0 dh=0 dv=0
PairPos2: "'kern' Horizontal Kerning in Hebrew lookup 3 per glyph data 1" uni05DB dx=-5 dy=0 dh=-5 dv=0 dx=0 dy=0 dh=0 dv=0
PairPos2: "'kern' Horizontal Kerning in Hebrew lookup 3 per glyph data 1" hyphen dx=-25 dy=0 dh=-25 dv=0 dx=0 dy=0 dh=0 dv=0
PairPos2: "'kern' Horizontal Kerning in Hebrew lookup 3 per glyph data 1" endash dx=-25 dy=0 dh=-25 dv=0 dx=0 dy=0 dh=0 dv=0
PairPos2: "'kern' Horizontal Kerning in Hebrew lookup 3 per glyph data 1" emdash dx=-25 dy=0 dh=-25 dv=0 dx=0 dy=0 dh=0 dv=0
PairPos2: "'kern' Horizontal Kerning in Hebrew lookup 3 per glyph data 1" uniFB33 dx=-4 dy=0 dh=-4 dv=0 dx=0 dy=0 dh=0 dv=0
PairPos2: "'kern' Horizontal Kerning in Hebrew lookup 3 per glyph data 1" uni05D3 dx=-4 dy=0 dh=-4 dv=0 dx=0 dy=0 dh=0 dv=0
PairPos2: "'kern' Horizontal Kerning in Hebrew lookup 3 per glyph data 1" uniFB31 dx=7 dy=0 dh=7 dv=0 dx=0 dy=0 dh=0 dv=0
PairPos2: "'kern' Horizontal Kerning in Hebrew lookup 3 per glyph data 1" uni05D1 dx=7 dy=0 dh=7 dv=0 dx=0 dy=0 dh=0 dv=0
PairPos2: "'kern' Horizontal Kerning in Hebrew lookup 3 per glyph data 1" uniFB30 dx=5 dy=0 dh=5 dv=0 dx=0 dy=0 dh=0 dv=0
PairPos2: "'kern' Horizontal Kerning in Hebrew lookup 3 per glyph data 1" uniFB2F dx=5 dy=0 dh=5 dv=0 dx=0 dy=0 dh=0 dv=0
PairPos2: "'kern' Horizontal Kerning in Hebrew lookup 3 per glyph data 1" uniFB2E dx=5 dy=0 dh=5 dv=0 dx=0 dy=0 dh=0 dv=0
PairPos2: "'kern' Horizontal Kerning in Hebrew lookup 3 per glyph data 1" uni05D0 dx=5 dy=0 dh=5 dv=0 dx=0 dy=0 dh=0 dv=0
EndChar

StartChar: Hbar
Encoding: 294 294 38
Width: 716
GlyphClass: 2
Flags: W
AnchorPoint: "Anchor-10" 0 0 basechar 0
AnchorPoint: "Anchor-9" 20 666 basechar 0
AnchorPoint: "Anchor-8" 358 536 basechar 0
AnchorPoint: "Anchor-7" 358 666 basechar 0
AnchorPoint: "Anchor-6" 0 0 basechar 0
AnchorPoint: "Anchor-5" 358 0 basechar 0
LayerCount: 2
Fore
SplineSet
646 666 m 1,0,-1
 646 0 l 1,1,-1
 499 0 l 1,2,-1
 499 284 l 1,3,-1
 216 284 l 1,4,-1
 216 0 l 1,5,-1
 70 0 l 1,6,-1
 70 666 l 1,7,-1
 216 666 l 1,8,-1
 216 578 l 1,9,-1
 499 578 l 1,10,-1
 499 666 l 1,11,-1
 646 666 l 1,0,-1
499 408 m 1,12,-1
 499 493 l 1,13,-1
 216 493 l 1,14,-1
 216 408 l 1,15,-1
 499 408 l 1,12,-1
EndSplineSet
PairPos2: "'kern' Horizontal Kerning in Hebrew lookup 3 per glyph data 3" uni05F4 dx=12 dy=0 dh=12 dv=0 dx=0 dy=0 dh=0 dv=0
PairPos2: "'kern' Horizontal Kerning in Hebrew lookup 3 per glyph data 3" uni05F3 dx=12 dy=0 dh=12 dv=0 dx=0 dy=0 dh=0 dv=0
PairPos2: "'kern' Horizontal Kerning in Hebrew lookup 3 per glyph data 3" quoteright dx=12 dy=0 dh=12 dv=0 dx=0 dy=0 dh=0 dv=0
PairPos2: "'kern' Horizontal Kerning in Hebrew lookup 3 per glyph data 3" quotedblright dx=12 dy=0 dh=12 dv=0 dx=0 dy=0 dh=0 dv=0
PairPos2: "'kern' Horizontal Kerning in Hebrew lookup 3 per glyph data 3" quotesingle dx=12 dy=0 dh=12 dv=0 dx=0 dy=0 dh=0 dv=0
PairPos2: "'kern' Horizontal Kerning in Hebrew lookup 3 per glyph data 3" quotedbl dx=12 dy=0 dh=12 dv=0 dx=0 dy=0 dh=0 dv=0
PairPos2: "'kern' Horizontal Kerning in Hebrew lookup 3 per glyph data 2" uni05E5 dx=-25 dy=0 dh=-25 dv=0 dx=0 dy=0 dh=0 dv=0
PairPos2: "'kern' Horizontal Kerning in Hebrew lookup 3 per glyph data 2" uniFB36 dx=-25 dy=0 dh=-25 dv=0 dx=0 dy=0 dh=0 dv=0
PairPos2: "'kern' Horizontal Kerning in Hebrew lookup 3 per glyph data 2" uni05D6 dx=-25 dy=0 dh=-25 dv=0 dx=0 dy=0 dh=0 dv=0
PairPos2: "'kern' Horizontal Kerning in Hebrew lookup 3 per glyph data 2" uniFB46 dx=-20 dy=0 dh=-20 dv=0 dx=0 dy=0 dh=0 dv=0
PairPos2: "'kern' Horizontal Kerning in Hebrew lookup 3 per glyph data 2" uni05E6 dx=-20 dy=0 dh=-20 dv=0 dx=0 dy=0 dh=0 dv=0
PairPos2: "'kern' Horizontal Kerning in Hebrew lookup 3 per glyph data 2" uniFB38 dx=5 dy=0 dh=5 dv=0 dx=0 dy=0 dh=0 dv=0
PairPos2: "'kern' Horizontal Kerning in Hebrew lookup 3 per glyph data 2" uni05D8 dx=5 dy=0 dh=5 dv=0 dx=0 dy=0 dh=0 dv=0
PairPos2: "'kern' Horizontal Kerning in Hebrew lookup 3 per glyph data 2" uniFB41 dx=5 dy=0 dh=5 dv=0 dx=0 dy=0 dh=0 dv=0
PairPos2: "'kern' Horizontal Kerning in Hebrew lookup 3 per glyph data 2" uni05E1 dx=5 dy=0 dh=5 dv=0 dx=0 dy=0 dh=0 dv=0
PairPos2: "'kern' Horizontal Kerning in Hebrew lookup 3 per glyph data 2" uniFB3B dx=10 dy=0 dh=10 dv=0 dx=0 dy=0 dh=0 dv=0
PairPos2: "'kern' Horizontal Kerning in Hebrew lookup 3 per glyph data 2" uni05DB dx=10 dy=0 dh=10 dv=0 dx=0 dy=0 dh=0 dv=0
PairPos2: "'kern' Horizontal Kerning in Hebrew lookup 3 per glyph data 2" uniFB33 dx=-20 dy=0 dh=-20 dv=0 dx=0 dy=0 dh=0 dv=0
PairPos2: "'kern' Horizontal Kerning in Hebrew lookup 3 per glyph data 2" uni05D3 dx=-20 dy=0 dh=-20 dv=0 dx=0 dy=0 dh=0 dv=0
PairPos2: "'kern' Horizontal Kerning in Hebrew lookup 3 per glyph data 2" uniFB31 dx=-15 dy=0 dh=-15 dv=0 dx=0 dy=0 dh=0 dv=0
PairPos2: "'kern' Horizontal Kerning in Hebrew lookup 3 per glyph data 2" uni05D1 dx=-15 dy=0 dh=-15 dv=0 dx=0 dy=0 dh=0 dv=0
PairPos2: "'kern' Horizontal Kerning in Hebrew lookup 3 per glyph data 2" uniFB30 dx=-12 dy=0 dh=-12 dv=0 dx=0 dy=0 dh=0 dv=0
PairPos2: "'kern' Horizontal Kerning in Hebrew lookup 3 per glyph data 2" uniFB2F dx=-12 dy=0 dh=-12 dv=0 dx=0 dy=0 dh=0 dv=0
PairPos2: "'kern' Horizontal Kerning in Hebrew lookup 3 per glyph data 2" uniFB2E dx=-12 dy=0 dh=-12 dv=0 dx=0 dy=0 dh=0 dv=0
PairPos2: "'kern' Horizontal Kerning in Hebrew lookup 3 per glyph data 2" uni05D0 dx=-12 dy=0 dh=-12 dv=0 dx=0 dy=0 dh=0 dv=0
PairPos2: "'kern' Horizontal Kerning in Hebrew lookup 3 per glyph data 1" uni05E5 dx=-5 dy=0 dh=-5 dv=0 dx=0 dy=0 dh=0 dv=0
PairPos2: "'kern' Horizontal Kerning in Hebrew lookup 3 per glyph data 1" uniFB36 dx=-10 dy=0 dh=-10 dv=0 dx=0 dy=0 dh=0 dv=0
PairPos2: "'kern' Horizontal Kerning in Hebrew lookup 3 per glyph data 1" uni05D6 dx=-10 dy=0 dh=-10 dv=0 dx=0 dy=0 dh=0 dv=0
PairPos2: "'kern' Horizontal Kerning in Hebrew lookup 3 per glyph data 1" uniFB39 dx=-5 dy=0 dh=-5 dv=0 dx=0 dy=0 dh=0 dv=0
PairPos2: "'kern' Horizontal Kerning in Hebrew lookup 3 per glyph data 1" uni05D9 dx=-5 dy=0 dh=-5 dv=0 dx=0 dy=0 dh=0 dv=0
PairPos2: "'kern' Horizontal Kerning in Hebrew lookup 3 per glyph data 1" uniFB38 dx=-10 dy=0 dh=-10 dv=0 dx=0 dy=0 dh=0 dv=0
PairPos2: "'kern' Horizontal Kerning in Hebrew lookup 3 per glyph data 1" uni05D8 dx=-10 dy=0 dh=-10 dv=0 dx=0 dy=0 dh=0 dv=0
PairPos2: "'kern' Horizontal Kerning in Hebrew lookup 3 per glyph data 1" uniFB41 dx=-7 dy=0 dh=-7 dv=0 dx=0 dy=0 dh=0 dv=0
PairPos2: "'kern' Horizontal Kerning in Hebrew lookup 3 per glyph data 1" uni05E1 dx=-7 dy=0 dh=-7 dv=0 dx=0 dy=0 dh=0 dv=0
PairPos2: "'kern' Horizontal Kerning in Hebrew lookup 3 per glyph data 1" uni05F4 dx=5 dy=0 dh=5 dv=0 dx=0 dy=0 dh=0 dv=0
PairPos2: "'kern' Horizontal Kerning in Hebrew lookup 3 per glyph data 1" uni05F3 dx=5 dy=0 dh=5 dv=0 dx=0 dy=0 dh=0 dv=0
PairPos2: "'kern' Horizontal Kerning in Hebrew lookup 3 per glyph data 1" quoteright dx=5 dy=0 dh=5 dv=0 dx=0 dy=0 dh=0 dv=0
PairPos2: "'kern' Horizontal Kerning in Hebrew lookup 3 per glyph data 1" quotedblright dx=5 dy=0 dh=5 dv=0 dx=0 dy=0 dh=0 dv=0
PairPos2: "'kern' Horizontal Kerning in Hebrew lookup 3 per glyph data 1" quotesingle dx=5 dy=0 dh=5 dv=0 dx=0 dy=0 dh=0 dv=0
PairPos2: "'kern' Horizontal Kerning in Hebrew lookup 3 per glyph data 1" quotedbl dx=5 dy=0 dh=5 dv=0 dx=0 dy=0 dh=0 dv=0
PairPos2: "'kern' Horizontal Kerning in Hebrew lookup 3 per glyph data 1" period dx=10 dy=0 dh=10 dv=0 dx=0 dy=0 dh=0 dv=0
PairPos2: "'kern' Horizontal Kerning in Hebrew lookup 3 per glyph data 1" ellipsis dx=10 dy=0 dh=10 dv=0 dx=0 dy=0 dh=0 dv=0
PairPos2: "'kern' Horizontal Kerning in Hebrew lookup 3 per glyph data 1" uniFB3C dx=-5 dy=0 dh=-5 dv=0 dx=0 dy=0 dh=0 dv=0
PairPos2: "'kern' Horizontal Kerning in Hebrew lookup 3 per glyph data 1" uni05DC dx=-5 dy=0 dh=-5 dv=0 dx=0 dy=0 dh=0 dv=0
PairPos2: "'kern' Horizontal Kerning in Hebrew lookup 3 per glyph data 1" uniFB3B dx=-5 dy=0 dh=-5 dv=0 dx=0 dy=0 dh=0 dv=0
PairPos2: "'kern' Horizontal Kerning in Hebrew lookup 3 per glyph data 1" uni05DB dx=-5 dy=0 dh=-5 dv=0 dx=0 dy=0 dh=0 dv=0
PairPos2: "'kern' Horizontal Kerning in Hebrew lookup 3 per glyph data 1" hyphen dx=-25 dy=0 dh=-25 dv=0 dx=0 dy=0 dh=0 dv=0
PairPos2: "'kern' Horizontal Kerning in Hebrew lookup 3 per glyph data 1" endash dx=-25 dy=0 dh=-25 dv=0 dx=0 dy=0 dh=0 dv=0
PairPos2: "'kern' Horizontal Kerning in Hebrew lookup 3 per glyph data 1" emdash dx=-25 dy=0 dh=-25 dv=0 dx=0 dy=0 dh=0 dv=0
PairPos2: "'kern' Horizontal Kerning in Hebrew lookup 3 per glyph data 1" uniFB33 dx=-4 dy=0 dh=-4 dv=0 dx=0 dy=0 dh=0 dv=0
PairPos2: "'kern' Horizontal Kerning in Hebrew lookup 3 per glyph data 1" uni05D3 dx=-4 dy=0 dh=-4 dv=0 dx=0 dy=0 dh=0 dv=0
PairPos2: "'kern' Horizontal Kerning in Hebrew lookup 3 per glyph data 1" uniFB31 dx=7 dy=0 dh=7 dv=0 dx=0 dy=0 dh=0 dv=0
PairPos2: "'kern' Horizontal Kerning in Hebrew lookup 3 per glyph data 1" uni05D1 dx=7 dy=0 dh=7 dv=0 dx=0 dy=0 dh=0 dv=0
PairPos2: "'kern' Horizontal Kerning in Hebrew lookup 3 per glyph data 1" uniFB30 dx=5 dy=0 dh=5 dv=0 dx=0 dy=0 dh=0 dv=0
PairPos2: "'kern' Horizontal Kerning in Hebrew lookup 3 per glyph data 1" uniFB2F dx=5 dy=0 dh=5 dv=0 dx=0 dy=0 dh=0 dv=0
PairPos2: "'kern' Horizontal Kerning in Hebrew lookup 3 per glyph data 1" uniFB2E dx=5 dy=0 dh=5 dv=0 dx=0 dy=0 dh=0 dv=0
PairPos2: "'kern' Horizontal Kerning in Hebrew lookup 3 per glyph data 1" uni05D0 dx=5 dy=0 dh=5 dv=0 dx=0 dy=0 dh=0 dv=0
EndChar

StartChar: I
Encoding: 73 73 39
Width: 301
GlyphClass: 2
Flags: W
AnchorPoint: "Anchor-10" 0 0 basechar 0
AnchorPoint: "Anchor-9" 20 666 basechar 0
AnchorPoint: "Anchor-8" 0 0 basechar 0
AnchorPoint: "Anchor-7" 151 666 basechar 0
AnchorPoint: "Anchor-6" 172 0 basechar 0
AnchorPoint: "Anchor-5" 151 0 basechar 0
LayerCount: 2
Fore
SplineSet
78 666 m 1,0,-1
 223 666 l 1,1,-1
 223 0 l 1,2,-1
 78 0 l 1,3,-1
 78 666 l 1,0,-1
EndSplineSet
PairPos2: "'kern' Horizontal Kerning in Hebrew lookup 3 per glyph data 3" uni05F4 dx=12 dy=0 dh=12 dv=0 dx=0 dy=0 dh=0 dv=0
PairPos2: "'kern' Horizontal Kerning in Hebrew lookup 3 per glyph data 3" uni05F3 dx=12 dy=0 dh=12 dv=0 dx=0 dy=0 dh=0 dv=0
PairPos2: "'kern' Horizontal Kerning in Hebrew lookup 3 per glyph data 3" quoteright dx=12 dy=0 dh=12 dv=0 dx=0 dy=0 dh=0 dv=0
PairPos2: "'kern' Horizontal Kerning in Hebrew lookup 3 per glyph data 3" quotedblright dx=12 dy=0 dh=12 dv=0 dx=0 dy=0 dh=0 dv=0
PairPos2: "'kern' Horizontal Kerning in Hebrew lookup 3 per glyph data 3" quotesingle dx=12 dy=0 dh=12 dv=0 dx=0 dy=0 dh=0 dv=0
PairPos2: "'kern' Horizontal Kerning in Hebrew lookup 3 per glyph data 3" quotedbl dx=12 dy=0 dh=12 dv=0 dx=0 dy=0 dh=0 dv=0
PairPos2: "'kern' Horizontal Kerning in Hebrew lookup 3 per glyph data 2" uni05E5 dx=-25 dy=0 dh=-25 dv=0 dx=0 dy=0 dh=0 dv=0
PairPos2: "'kern' Horizontal Kerning in Hebrew lookup 3 per glyph data 2" uniFB36 dx=-25 dy=0 dh=-25 dv=0 dx=0 dy=0 dh=0 dv=0
PairPos2: "'kern' Horizontal Kerning in Hebrew lookup 3 per glyph data 2" uni05D6 dx=-25 dy=0 dh=-25 dv=0 dx=0 dy=0 dh=0 dv=0
PairPos2: "'kern' Horizontal Kerning in Hebrew lookup 3 per glyph data 2" uniFB46 dx=-20 dy=0 dh=-20 dv=0 dx=0 dy=0 dh=0 dv=0
PairPos2: "'kern' Horizontal Kerning in Hebrew lookup 3 per glyph data 2" uni05E6 dx=-20 dy=0 dh=-20 dv=0 dx=0 dy=0 dh=0 dv=0
PairPos2: "'kern' Horizontal Kerning in Hebrew lookup 3 per glyph data 2" uniFB38 dx=5 dy=0 dh=5 dv=0 dx=0 dy=0 dh=0 dv=0
PairPos2: "'kern' Horizontal Kerning in Hebrew lookup 3 per glyph data 2" uni05D8 dx=5 dy=0 dh=5 dv=0 dx=0 dy=0 dh=0 dv=0
PairPos2: "'kern' Horizontal Kerning in Hebrew lookup 3 per glyph data 2" uniFB41 dx=5 dy=0 dh=5 dv=0 dx=0 dy=0 dh=0 dv=0
PairPos2: "'kern' Horizontal Kerning in Hebrew lookup 3 per glyph data 2" uni05E1 dx=5 dy=0 dh=5 dv=0 dx=0 dy=0 dh=0 dv=0
PairPos2: "'kern' Horizontal Kerning in Hebrew lookup 3 per glyph data 2" uniFB3B dx=10 dy=0 dh=10 dv=0 dx=0 dy=0 dh=0 dv=0
PairPos2: "'kern' Horizontal Kerning in Hebrew lookup 3 per glyph data 2" uni05DB dx=10 dy=0 dh=10 dv=0 dx=0 dy=0 dh=0 dv=0
PairPos2: "'kern' Horizontal Kerning in Hebrew lookup 3 per glyph data 2" uniFB33 dx=-20 dy=0 dh=-20 dv=0 dx=0 dy=0 dh=0 dv=0
PairPos2: "'kern' Horizontal Kerning in Hebrew lookup 3 per glyph data 2" uni05D3 dx=-20 dy=0 dh=-20 dv=0 dx=0 dy=0 dh=0 dv=0
PairPos2: "'kern' Horizontal Kerning in Hebrew lookup 3 per glyph data 2" uniFB31 dx=-15 dy=0 dh=-15 dv=0 dx=0 dy=0 dh=0 dv=0
PairPos2: "'kern' Horizontal Kerning in Hebrew lookup 3 per glyph data 2" uni05D1 dx=-15 dy=0 dh=-15 dv=0 dx=0 dy=0 dh=0 dv=0
PairPos2: "'kern' Horizontal Kerning in Hebrew lookup 3 per glyph data 2" uniFB30 dx=-12 dy=0 dh=-12 dv=0 dx=0 dy=0 dh=0 dv=0
PairPos2: "'kern' Horizontal Kerning in Hebrew lookup 3 per glyph data 2" uniFB2F dx=-12 dy=0 dh=-12 dv=0 dx=0 dy=0 dh=0 dv=0
PairPos2: "'kern' Horizontal Kerning in Hebrew lookup 3 per glyph data 2" uniFB2E dx=-12 dy=0 dh=-12 dv=0 dx=0 dy=0 dh=0 dv=0
PairPos2: "'kern' Horizontal Kerning in Hebrew lookup 3 per glyph data 2" uni05D0 dx=-12 dy=0 dh=-12 dv=0 dx=0 dy=0 dh=0 dv=0
PairPos2: "'kern' Horizontal Kerning in Hebrew lookup 3 per glyph data 1" uni05E5 dx=-5 dy=0 dh=-5 dv=0 dx=0 dy=0 dh=0 dv=0
PairPos2: "'kern' Horizontal Kerning in Hebrew lookup 3 per glyph data 1" uniFB36 dx=-10 dy=0 dh=-10 dv=0 dx=0 dy=0 dh=0 dv=0
PairPos2: "'kern' Horizontal Kerning in Hebrew lookup 3 per glyph data 1" uni05D6 dx=-10 dy=0 dh=-10 dv=0 dx=0 dy=0 dh=0 dv=0
PairPos2: "'kern' Horizontal Kerning in Hebrew lookup 3 per glyph data 1" uniFB39 dx=-5 dy=0 dh=-5 dv=0 dx=0 dy=0 dh=0 dv=0
PairPos2: "'kern' Horizontal Kerning in Hebrew lookup 3 per glyph data 1" uni05D9 dx=-5 dy=0 dh=-5 dv=0 dx=0 dy=0 dh=0 dv=0
PairPos2: "'kern' Horizontal Kerning in Hebrew lookup 3 per glyph data 1" uniFB38 dx=-10 dy=0 dh=-10 dv=0 dx=0 dy=0 dh=0 dv=0
PairPos2: "'kern' Horizontal Kerning in Hebrew lookup 3 per glyph data 1" uni05D8 dx=-10 dy=0 dh=-10 dv=0 dx=0 dy=0 dh=0 dv=0
PairPos2: "'kern' Horizontal Kerning in Hebrew lookup 3 per glyph data 1" uniFB41 dx=-7 dy=0 dh=-7 dv=0 dx=0 dy=0 dh=0 dv=0
PairPos2: "'kern' Horizontal Kerning in Hebrew lookup 3 per glyph data 1" uni05E1 dx=-7 dy=0 dh=-7 dv=0 dx=0 dy=0 dh=0 dv=0
PairPos2: "'kern' Horizontal Kerning in Hebrew lookup 3 per glyph data 1" uni05F4 dx=5 dy=0 dh=5 dv=0 dx=0 dy=0 dh=0 dv=0
PairPos2: "'kern' Horizontal Kerning in Hebrew lookup 3 per glyph data 1" uni05F3 dx=5 dy=0 dh=5 dv=0 dx=0 dy=0 dh=0 dv=0
PairPos2: "'kern' Horizontal Kerning in Hebrew lookup 3 per glyph data 1" quoteright dx=5 dy=0 dh=5 dv=0 dx=0 dy=0 dh=0 dv=0
PairPos2: "'kern' Horizontal Kerning in Hebrew lookup 3 per glyph data 1" quotedblright dx=5 dy=0 dh=5 dv=0 dx=0 dy=0 dh=0 dv=0
PairPos2: "'kern' Horizontal Kerning in Hebrew lookup 3 per glyph data 1" quotesingle dx=5 dy=0 dh=5 dv=0 dx=0 dy=0 dh=0 dv=0
PairPos2: "'kern' Horizontal Kerning in Hebrew lookup 3 per glyph data 1" quotedbl dx=5 dy=0 dh=5 dv=0 dx=0 dy=0 dh=0 dv=0
PairPos2: "'kern' Horizontal Kerning in Hebrew lookup 3 per glyph data 1" period dx=10 dy=0 dh=10 dv=0 dx=0 dy=0 dh=0 dv=0
PairPos2: "'kern' Horizontal Kerning in Hebrew lookup 3 per glyph data 1" ellipsis dx=10 dy=0 dh=10 dv=0 dx=0 dy=0 dh=0 dv=0
PairPos2: "'kern' Horizontal Kerning in Hebrew lookup 3 per glyph data 1" uniFB3C dx=-5 dy=0 dh=-5 dv=0 dx=0 dy=0 dh=0 dv=0
PairPos2: "'kern' Horizontal Kerning in Hebrew lookup 3 per glyph data 1" uni05DC dx=-5 dy=0 dh=-5 dv=0 dx=0 dy=0 dh=0 dv=0
PairPos2: "'kern' Horizontal Kerning in Hebrew lookup 3 per glyph data 1" uniFB3B dx=-5 dy=0 dh=-5 dv=0 dx=0 dy=0 dh=0 dv=0
PairPos2: "'kern' Horizontal Kerning in Hebrew lookup 3 per glyph data 1" uni05DB dx=-5 dy=0 dh=-5 dv=0 dx=0 dy=0 dh=0 dv=0
PairPos2: "'kern' Horizontal Kerning in Hebrew lookup 3 per glyph data 1" hyphen dx=-25 dy=0 dh=-25 dv=0 dx=0 dy=0 dh=0 dv=0
PairPos2: "'kern' Horizontal Kerning in Hebrew lookup 3 per glyph data 1" endash dx=-25 dy=0 dh=-25 dv=0 dx=0 dy=0 dh=0 dv=0
PairPos2: "'kern' Horizontal Kerning in Hebrew lookup 3 per glyph data 1" emdash dx=-25 dy=0 dh=-25 dv=0 dx=0 dy=0 dh=0 dv=0
PairPos2: "'kern' Horizontal Kerning in Hebrew lookup 3 per glyph data 1" uniFB33 dx=-4 dy=0 dh=-4 dv=0 dx=0 dy=0 dh=0 dv=0
PairPos2: "'kern' Horizontal Kerning in Hebrew lookup 3 per glyph data 1" uni05D3 dx=-4 dy=0 dh=-4 dv=0 dx=0 dy=0 dh=0 dv=0
PairPos2: "'kern' Horizontal Kerning in Hebrew lookup 3 per glyph data 1" uniFB31 dx=7 dy=0 dh=7 dv=0 dx=0 dy=0 dh=0 dv=0
PairPos2: "'kern' Horizontal Kerning in Hebrew lookup 3 per glyph data 1" uni05D1 dx=7 dy=0 dh=7 dv=0 dx=0 dy=0 dh=0 dv=0
PairPos2: "'kern' Horizontal Kerning in Hebrew lookup 3 per glyph data 1" uniFB30 dx=5 dy=0 dh=5 dv=0 dx=0 dy=0 dh=0 dv=0
PairPos2: "'kern' Horizontal Kerning in Hebrew lookup 3 per glyph data 1" uniFB2F dx=5 dy=0 dh=5 dv=0 dx=0 dy=0 dh=0 dv=0
PairPos2: "'kern' Horizontal Kerning in Hebrew lookup 3 per glyph data 1" uniFB2E dx=5 dy=0 dh=5 dv=0 dx=0 dy=0 dh=0 dv=0
PairPos2: "'kern' Horizontal Kerning in Hebrew lookup 3 per glyph data 1" uni05D0 dx=5 dy=0 dh=5 dv=0 dx=0 dy=0 dh=0 dv=0
EndChar

StartChar: Iogonek
Encoding: 302 302 46
Width: 301
GlyphClass: 2
Flags: W
LayerCount: 2
Fore
SplineSet
53.5 -193.5 m 128,-1,1
 23 -167 23 -167 23 -122 c 0,2,3
 23 -90 23 -90 38 -64 c 128,-1,4
 53 -38 53 -38 78 -20 c 1,5,-1
 78 666 l 1,6,-1
 223 666 l 1,7,-1
 223 0 l 1,8,9
 174 -15 174 -15 144 -39 c 128,-1,10
 114 -63 114 -63 114 -93 c 0,11,12
 114 -114 114 -114 129.5 -125.5 c 128,-1,13
 145 -137 145 -137 168 -137 c 0,14,15
 198 -137 198 -137 226 -120 c 1,16,-1
 221 -197 l 1,17,18
 206 -208 206 -208 184 -214 c 128,-1,19
 162 -220 162 -220 137 -220 c 0,20,0
 84 -220 84 -220 53.5 -193.5 c 128,-1,1
EndSplineSet
PairPos2: "'kern' Horizontal Kerning in Hebrew lookup 3 per glyph data 3" uni05F4 dx=12 dy=0 dh=12 dv=0 dx=0 dy=0 dh=0 dv=0
PairPos2: "'kern' Horizontal Kerning in Hebrew lookup 3 per glyph data 3" uni05F3 dx=12 dy=0 dh=12 dv=0 dx=0 dy=0 dh=0 dv=0
PairPos2: "'kern' Horizontal Kerning in Hebrew lookup 3 per glyph data 3" quoteright dx=12 dy=0 dh=12 dv=0 dx=0 dy=0 dh=0 dv=0
PairPos2: "'kern' Horizontal Kerning in Hebrew lookup 3 per glyph data 3" quotedblright dx=12 dy=0 dh=12 dv=0 dx=0 dy=0 dh=0 dv=0
PairPos2: "'kern' Horizontal Kerning in Hebrew lookup 3 per glyph data 3" quotesingle dx=12 dy=0 dh=12 dv=0 dx=0 dy=0 dh=0 dv=0
PairPos2: "'kern' Horizontal Kerning in Hebrew lookup 3 per glyph data 3" quotedbl dx=12 dy=0 dh=12 dv=0 dx=0 dy=0 dh=0 dv=0
PairPos2: "'kern' Horizontal Kerning in Hebrew lookup 3 per glyph data 2" uni05E5 dx=-25 dy=0 dh=-25 dv=0 dx=0 dy=0 dh=0 dv=0
PairPos2: "'kern' Horizontal Kerning in Hebrew lookup 3 per glyph data 2" uniFB36 dx=-25 dy=0 dh=-25 dv=0 dx=0 dy=0 dh=0 dv=0
PairPos2: "'kern' Horizontal Kerning in Hebrew lookup 3 per glyph data 2" uni05D6 dx=-25 dy=0 dh=-25 dv=0 dx=0 dy=0 dh=0 dv=0
PairPos2: "'kern' Horizontal Kerning in Hebrew lookup 3 per glyph data 2" uniFB46 dx=-20 dy=0 dh=-20 dv=0 dx=0 dy=0 dh=0 dv=0
PairPos2: "'kern' Horizontal Kerning in Hebrew lookup 3 per glyph data 2" uni05E6 dx=-20 dy=0 dh=-20 dv=0 dx=0 dy=0 dh=0 dv=0
PairPos2: "'kern' Horizontal Kerning in Hebrew lookup 3 per glyph data 2" uniFB38 dx=5 dy=0 dh=5 dv=0 dx=0 dy=0 dh=0 dv=0
PairPos2: "'kern' Horizontal Kerning in Hebrew lookup 3 per glyph data 2" uni05D8 dx=5 dy=0 dh=5 dv=0 dx=0 dy=0 dh=0 dv=0
PairPos2: "'kern' Horizontal Kerning in Hebrew lookup 3 per glyph data 2" uniFB41 dx=5 dy=0 dh=5 dv=0 dx=0 dy=0 dh=0 dv=0
PairPos2: "'kern' Horizontal Kerning in Hebrew lookup 3 per glyph data 2" uni05E1 dx=5 dy=0 dh=5 dv=0 dx=0 dy=0 dh=0 dv=0
PairPos2: "'kern' Horizontal Kerning in Hebrew lookup 3 per glyph data 2" uniFB3B dx=10 dy=0 dh=10 dv=0 dx=0 dy=0 dh=0 dv=0
PairPos2: "'kern' Horizontal Kerning in Hebrew lookup 3 per glyph data 2" uni05DB dx=10 dy=0 dh=10 dv=0 dx=0 dy=0 dh=0 dv=0
PairPos2: "'kern' Horizontal Kerning in Hebrew lookup 3 per glyph data 2" uniFB33 dx=-20 dy=0 dh=-20 dv=0 dx=0 dy=0 dh=0 dv=0
PairPos2: "'kern' Horizontal Kerning in Hebrew lookup 3 per glyph data 2" uni05D3 dx=-20 dy=0 dh=-20 dv=0 dx=0 dy=0 dh=0 dv=0
PairPos2: "'kern' Horizontal Kerning in Hebrew lookup 3 per glyph data 2" uniFB31 dx=-15 dy=0 dh=-15 dv=0 dx=0 dy=0 dh=0 dv=0
PairPos2: "'kern' Horizontal Kerning in Hebrew lookup 3 per glyph data 2" uni05D1 dx=-15 dy=0 dh=-15 dv=0 dx=0 dy=0 dh=0 dv=0
PairPos2: "'kern' Horizontal Kerning in Hebrew lookup 3 per glyph data 2" uniFB30 dx=-12 dy=0 dh=-12 dv=0 dx=0 dy=0 dh=0 dv=0
PairPos2: "'kern' Horizontal Kerning in Hebrew lookup 3 per glyph data 2" uniFB2F dx=-12 dy=0 dh=-12 dv=0 dx=0 dy=0 dh=0 dv=0
PairPos2: "'kern' Horizontal Kerning in Hebrew lookup 3 per glyph data 2" uniFB2E dx=-12 dy=0 dh=-12 dv=0 dx=0 dy=0 dh=0 dv=0
PairPos2: "'kern' Horizontal Kerning in Hebrew lookup 3 per glyph data 2" uni05D0 dx=-12 dy=0 dh=-12 dv=0 dx=0 dy=0 dh=0 dv=0
PairPos2: "'kern' Horizontal Kerning in Hebrew lookup 3 per glyph data 1" uni05E5 dx=-5 dy=0 dh=-5 dv=0 dx=0 dy=0 dh=0 dv=0
PairPos2: "'kern' Horizontal Kerning in Hebrew lookup 3 per glyph data 1" uniFB36 dx=-10 dy=0 dh=-10 dv=0 dx=0 dy=0 dh=0 dv=0
PairPos2: "'kern' Horizontal Kerning in Hebrew lookup 3 per glyph data 1" uni05D6 dx=-10 dy=0 dh=-10 dv=0 dx=0 dy=0 dh=0 dv=0
PairPos2: "'kern' Horizontal Kerning in Hebrew lookup 3 per glyph data 1" uniFB39 dx=-5 dy=0 dh=-5 dv=0 dx=0 dy=0 dh=0 dv=0
PairPos2: "'kern' Horizontal Kerning in Hebrew lookup 3 per glyph data 1" uni05D9 dx=-5 dy=0 dh=-5 dv=0 dx=0 dy=0 dh=0 dv=0
PairPos2: "'kern' Horizontal Kerning in Hebrew lookup 3 per glyph data 1" uniFB38 dx=-10 dy=0 dh=-10 dv=0 dx=0 dy=0 dh=0 dv=0
PairPos2: "'kern' Horizontal Kerning in Hebrew lookup 3 per glyph data 1" uni05D8 dx=-10 dy=0 dh=-10 dv=0 dx=0 dy=0 dh=0 dv=0
PairPos2: "'kern' Horizontal Kerning in Hebrew lookup 3 per glyph data 1" uniFB41 dx=-7 dy=0 dh=-7 dv=0 dx=0 dy=0 dh=0 dv=0
PairPos2: "'kern' Horizontal Kerning in Hebrew lookup 3 per glyph data 1" uni05E1 dx=-7 dy=0 dh=-7 dv=0 dx=0 dy=0 dh=0 dv=0
PairPos2: "'kern' Horizontal Kerning in Hebrew lookup 3 per glyph data 1" uni05F4 dx=5 dy=0 dh=5 dv=0 dx=0 dy=0 dh=0 dv=0
PairPos2: "'kern' Horizontal Kerning in Hebrew lookup 3 per glyph data 1" uni05F3 dx=5 dy=0 dh=5 dv=0 dx=0 dy=0 dh=0 dv=0
PairPos2: "'kern' Horizontal Kerning in Hebrew lookup 3 per glyph data 1" quoteright dx=5 dy=0 dh=5 dv=0 dx=0 dy=0 dh=0 dv=0
PairPos2: "'kern' Horizontal Kerning in Hebrew lookup 3 per glyph data 1" quotedblright dx=5 dy=0 dh=5 dv=0 dx=0 dy=0 dh=0 dv=0
PairPos2: "'kern' Horizontal Kerning in Hebrew lookup 3 per glyph data 1" quotesingle dx=5 dy=0 dh=5 dv=0 dx=0 dy=0 dh=0 dv=0
PairPos2: "'kern' Horizontal Kerning in Hebrew lookup 3 per glyph data 1" quotedbl dx=5 dy=0 dh=5 dv=0 dx=0 dy=0 dh=0 dv=0
PairPos2: "'kern' Horizontal Kerning in Hebrew lookup 3 per glyph data 1" period dx=10 dy=0 dh=10 dv=0 dx=0 dy=0 dh=0 dv=0
PairPos2: "'kern' Horizontal Kerning in Hebrew lookup 3 per glyph data 1" ellipsis dx=10 dy=0 dh=10 dv=0 dx=0 dy=0 dh=0 dv=0
PairPos2: "'kern' Horizontal Kerning in Hebrew lookup 3 per glyph data 1" uniFB3C dx=-5 dy=0 dh=-5 dv=0 dx=0 dy=0 dh=0 dv=0
PairPos2: "'kern' Horizontal Kerning in Hebrew lookup 3 per glyph data 1" uni05DC dx=-5 dy=0 dh=-5 dv=0 dx=0 dy=0 dh=0 dv=0
PairPos2: "'kern' Horizontal Kerning in Hebrew lookup 3 per glyph data 1" uniFB3B dx=-5 dy=0 dh=-5 dv=0 dx=0 dy=0 dh=0 dv=0
PairPos2: "'kern' Horizontal Kerning in Hebrew lookup 3 per glyph data 1" uni05DB dx=-5 dy=0 dh=-5 dv=0 dx=0 dy=0 dh=0 dv=0
PairPos2: "'kern' Horizontal Kerning in Hebrew lookup 3 per glyph data 1" hyphen dx=-25 dy=0 dh=-25 dv=0 dx=0 dy=0 dh=0 dv=0
PairPos2: "'kern' Horizontal Kerning in Hebrew lookup 3 per glyph data 1" endash dx=-25 dy=0 dh=-25 dv=0 dx=0 dy=0 dh=0 dv=0
PairPos2: "'kern' Horizontal Kerning in Hebrew lookup 3 per glyph data 1" emdash dx=-25 dy=0 dh=-25 dv=0 dx=0 dy=0 dh=0 dv=0
PairPos2: "'kern' Horizontal Kerning in Hebrew lookup 3 per glyph data 1" uniFB33 dx=-4 dy=0 dh=-4 dv=0 dx=0 dy=0 dh=0 dv=0
PairPos2: "'kern' Horizontal Kerning in Hebrew lookup 3 per glyph data 1" uni05D3 dx=-4 dy=0 dh=-4 dv=0 dx=0 dy=0 dh=0 dv=0
PairPos2: "'kern' Horizontal Kerning in Hebrew lookup 3 per glyph data 1" uniFB31 dx=7 dy=0 dh=7 dv=0 dx=0 dy=0 dh=0 dv=0
PairPos2: "'kern' Horizontal Kerning in Hebrew lookup 3 per glyph data 1" uni05D1 dx=7 dy=0 dh=7 dv=0 dx=0 dy=0 dh=0 dv=0
PairPos2: "'kern' Horizontal Kerning in Hebrew lookup 3 per glyph data 1" uniFB30 dx=5 dy=0 dh=5 dv=0 dx=0 dy=0 dh=0 dv=0
PairPos2: "'kern' Horizontal Kerning in Hebrew lookup 3 per glyph data 1" uniFB2F dx=5 dy=0 dh=5 dv=0 dx=0 dy=0 dh=0 dv=0
PairPos2: "'kern' Horizontal Kerning in Hebrew lookup 3 per glyph data 1" uniFB2E dx=5 dy=0 dh=5 dv=0 dx=0 dy=0 dh=0 dv=0
PairPos2: "'kern' Horizontal Kerning in Hebrew lookup 3 per glyph data 1" uni05D0 dx=5 dy=0 dh=5 dv=0 dx=0 dy=0 dh=0 dv=0
EndChar

StartChar: J
Encoding: 74 74 47
Width: 338
GlyphClass: 2
Flags: W
AnchorPoint: "Anchor-10" 0 0 basechar 0
AnchorPoint: "Anchor-9" 0 0 basechar 0
AnchorPoint: "Anchor-8" 0 0 basechar 0
AnchorPoint: "Anchor-7" 181 666 basechar 0
AnchorPoint: "Anchor-6" 0 0 basechar 0
AnchorPoint: "Anchor-5" 169 0 basechar 0
LayerCount: 2
Fore
SplineSet
-13 6 m 1,1,-1
 25 127 l 1,2,3
 55 111 55 111 78 111 c 0,4,5
 128 111 128 111 128 173 c 2,6,-1
 128 666 l 1,7,-1
 268 666 l 1,8,-1
 268 161 l 2,9,10
 268 80 268 80 220.5 32.5 c 128,-1,11
 173 -15 173 -15 93 -15 c 0,12,0
 35 -15 35 -15 -13 6 c 1,1,-1
EndSplineSet
PairPos2: "'kern' Horizontal Kerning in Hebrew lookup 3 per glyph data 3" uni05F4 dx=12 dy=0 dh=12 dv=0 dx=0 dy=0 dh=0 dv=0
PairPos2: "'kern' Horizontal Kerning in Hebrew lookup 3 per glyph data 3" uni05F3 dx=12 dy=0 dh=12 dv=0 dx=0 dy=0 dh=0 dv=0
PairPos2: "'kern' Horizontal Kerning in Hebrew lookup 3 per glyph data 3" quoteright dx=12 dy=0 dh=12 dv=0 dx=0 dy=0 dh=0 dv=0
PairPos2: "'kern' Horizontal Kerning in Hebrew lookup 3 per glyph data 3" quotedblright dx=12 dy=0 dh=12 dv=0 dx=0 dy=0 dh=0 dv=0
PairPos2: "'kern' Horizontal Kerning in Hebrew lookup 3 per glyph data 3" quotesingle dx=12 dy=0 dh=12 dv=0 dx=0 dy=0 dh=0 dv=0
PairPos2: "'kern' Horizontal Kerning in Hebrew lookup 3 per glyph data 3" quotedbl dx=12 dy=0 dh=12 dv=0 dx=0 dy=0 dh=0 dv=0
PairPos2: "'kern' Horizontal Kerning in Hebrew lookup 3 per glyph data 2" uni05E5 dx=-25 dy=0 dh=-25 dv=0 dx=0 dy=0 dh=0 dv=0
PairPos2: "'kern' Horizontal Kerning in Hebrew lookup 3 per glyph data 2" uniFB36 dx=-25 dy=0 dh=-25 dv=0 dx=0 dy=0 dh=0 dv=0
PairPos2: "'kern' Horizontal Kerning in Hebrew lookup 3 per glyph data 2" uni05D6 dx=-25 dy=0 dh=-25 dv=0 dx=0 dy=0 dh=0 dv=0
PairPos2: "'kern' Horizontal Kerning in Hebrew lookup 3 per glyph data 2" uniFB46 dx=-20 dy=0 dh=-20 dv=0 dx=0 dy=0 dh=0 dv=0
PairPos2: "'kern' Horizontal Kerning in Hebrew lookup 3 per glyph data 2" uni05E6 dx=-20 dy=0 dh=-20 dv=0 dx=0 dy=0 dh=0 dv=0
PairPos2: "'kern' Horizontal Kerning in Hebrew lookup 3 per glyph data 2" uniFB38 dx=5 dy=0 dh=5 dv=0 dx=0 dy=0 dh=0 dv=0
PairPos2: "'kern' Horizontal Kerning in Hebrew lookup 3 per glyph data 2" uni05D8 dx=5 dy=0 dh=5 dv=0 dx=0 dy=0 dh=0 dv=0
PairPos2: "'kern' Horizontal Kerning in Hebrew lookup 3 per glyph data 2" uniFB41 dx=5 dy=0 dh=5 dv=0 dx=0 dy=0 dh=0 dv=0
PairPos2: "'kern' Horizontal Kerning in Hebrew lookup 3 per glyph data 2" uni05E1 dx=5 dy=0 dh=5 dv=0 dx=0 dy=0 dh=0 dv=0
PairPos2: "'kern' Horizontal Kerning in Hebrew lookup 3 per glyph data 2" uniFB3B dx=10 dy=0 dh=10 dv=0 dx=0 dy=0 dh=0 dv=0
PairPos2: "'kern' Horizontal Kerning in Hebrew lookup 3 per glyph data 2" uni05DB dx=10 dy=0 dh=10 dv=0 dx=0 dy=0 dh=0 dv=0
PairPos2: "'kern' Horizontal Kerning in Hebrew lookup 3 per glyph data 2" uniFB33 dx=-20 dy=0 dh=-20 dv=0 dx=0 dy=0 dh=0 dv=0
PairPos2: "'kern' Horizontal Kerning in Hebrew lookup 3 per glyph data 2" uni05D3 dx=-20 dy=0 dh=-20 dv=0 dx=0 dy=0 dh=0 dv=0
PairPos2: "'kern' Horizontal Kerning in Hebrew lookup 3 per glyph data 2" uniFB31 dx=-15 dy=0 dh=-15 dv=0 dx=0 dy=0 dh=0 dv=0
PairPos2: "'kern' Horizontal Kerning in Hebrew lookup 3 per glyph data 2" uni05D1 dx=-15 dy=0 dh=-15 dv=0 dx=0 dy=0 dh=0 dv=0
PairPos2: "'kern' Horizontal Kerning in Hebrew lookup 3 per glyph data 2" uniFB30 dx=-12 dy=0 dh=-12 dv=0 dx=0 dy=0 dh=0 dv=0
PairPos2: "'kern' Horizontal Kerning in Hebrew lookup 3 per glyph data 2" uniFB2F dx=-12 dy=0 dh=-12 dv=0 dx=0 dy=0 dh=0 dv=0
PairPos2: "'kern' Horizontal Kerning in Hebrew lookup 3 per glyph data 2" uniFB2E dx=-12 dy=0 dh=-12 dv=0 dx=0 dy=0 dh=0 dv=0
PairPos2: "'kern' Horizontal Kerning in Hebrew lookup 3 per glyph data 2" uni05D0 dx=-12 dy=0 dh=-12 dv=0 dx=0 dy=0 dh=0 dv=0
PairPos2: "'kern' Horizontal Kerning in Hebrew lookup 3 per glyph data 1" uni05E5 dx=-5 dy=0 dh=-5 dv=0 dx=0 dy=0 dh=0 dv=0
PairPos2: "'kern' Horizontal Kerning in Hebrew lookup 3 per glyph data 1" uniFB36 dx=-10 dy=0 dh=-10 dv=0 dx=0 dy=0 dh=0 dv=0
PairPos2: "'kern' Horizontal Kerning in Hebrew lookup 3 per glyph data 1" uni05D6 dx=-10 dy=0 dh=-10 dv=0 dx=0 dy=0 dh=0 dv=0
PairPos2: "'kern' Horizontal Kerning in Hebrew lookup 3 per glyph data 1" uniFB39 dx=-5 dy=0 dh=-5 dv=0 dx=0 dy=0 dh=0 dv=0
PairPos2: "'kern' Horizontal Kerning in Hebrew lookup 3 per glyph data 1" uni05D9 dx=-5 dy=0 dh=-5 dv=0 dx=0 dy=0 dh=0 dv=0
PairPos2: "'kern' Horizontal Kerning in Hebrew lookup 3 per glyph data 1" uniFB38 dx=-10 dy=0 dh=-10 dv=0 dx=0 dy=0 dh=0 dv=0
PairPos2: "'kern' Horizontal Kerning in Hebrew lookup 3 per glyph data 1" uni05D8 dx=-10 dy=0 dh=-10 dv=0 dx=0 dy=0 dh=0 dv=0
PairPos2: "'kern' Horizontal Kerning in Hebrew lookup 3 per glyph data 1" uniFB41 dx=-7 dy=0 dh=-7 dv=0 dx=0 dy=0 dh=0 dv=0
PairPos2: "'kern' Horizontal Kerning in Hebrew lookup 3 per glyph data 1" uni05E1 dx=-7 dy=0 dh=-7 dv=0 dx=0 dy=0 dh=0 dv=0
PairPos2: "'kern' Horizontal Kerning in Hebrew lookup 3 per glyph data 1" uni05F4 dx=5 dy=0 dh=5 dv=0 dx=0 dy=0 dh=0 dv=0
PairPos2: "'kern' Horizontal Kerning in Hebrew lookup 3 per glyph data 1" uni05F3 dx=5 dy=0 dh=5 dv=0 dx=0 dy=0 dh=0 dv=0
PairPos2: "'kern' Horizontal Kerning in Hebrew lookup 3 per glyph data 1" quoteright dx=5 dy=0 dh=5 dv=0 dx=0 dy=0 dh=0 dv=0
PairPos2: "'kern' Horizontal Kerning in Hebrew lookup 3 per glyph data 1" quotedblright dx=5 dy=0 dh=5 dv=0 dx=0 dy=0 dh=0 dv=0
PairPos2: "'kern' Horizontal Kerning in Hebrew lookup 3 per glyph data 1" quotesingle dx=5 dy=0 dh=5 dv=0 dx=0 dy=0 dh=0 dv=0
PairPos2: "'kern' Horizontal Kerning in Hebrew lookup 3 per glyph data 1" quotedbl dx=5 dy=0 dh=5 dv=0 dx=0 dy=0 dh=0 dv=0
PairPos2: "'kern' Horizontal Kerning in Hebrew lookup 3 per glyph data 1" period dx=10 dy=0 dh=10 dv=0 dx=0 dy=0 dh=0 dv=0
PairPos2: "'kern' Horizontal Kerning in Hebrew lookup 3 per glyph data 1" ellipsis dx=10 dy=0 dh=10 dv=0 dx=0 dy=0 dh=0 dv=0
PairPos2: "'kern' Horizontal Kerning in Hebrew lookup 3 per glyph data 1" uniFB3C dx=-5 dy=0 dh=-5 dv=0 dx=0 dy=0 dh=0 dv=0
PairPos2: "'kern' Horizontal Kerning in Hebrew lookup 3 per glyph data 1" uni05DC dx=-5 dy=0 dh=-5 dv=0 dx=0 dy=0 dh=0 dv=0
PairPos2: "'kern' Horizontal Kerning in Hebrew lookup 3 per glyph data 1" uniFB3B dx=-5 dy=0 dh=-5 dv=0 dx=0 dy=0 dh=0 dv=0
PairPos2: "'kern' Horizontal Kerning in Hebrew lookup 3 per glyph data 1" uni05DB dx=-5 dy=0 dh=-5 dv=0 dx=0 dy=0 dh=0 dv=0
PairPos2: "'kern' Horizontal Kerning in Hebrew lookup 3 per glyph data 1" hyphen dx=-25 dy=0 dh=-25 dv=0 dx=0 dy=0 dh=0 dv=0
PairPos2: "'kern' Horizontal Kerning in Hebrew lookup 3 per glyph data 1" endash dx=-25 dy=0 dh=-25 dv=0 dx=0 dy=0 dh=0 dv=0
PairPos2: "'kern' Horizontal Kerning in Hebrew lookup 3 per glyph data 1" emdash dx=-25 dy=0 dh=-25 dv=0 dx=0 dy=0 dh=0 dv=0
PairPos2: "'kern' Horizontal Kerning in Hebrew lookup 3 per glyph data 1" uniFB33 dx=-4 dy=0 dh=-4 dv=0 dx=0 dy=0 dh=0 dv=0
PairPos2: "'kern' Horizontal Kerning in Hebrew lookup 3 per glyph data 1" uni05D3 dx=-4 dy=0 dh=-4 dv=0 dx=0 dy=0 dh=0 dv=0
PairPos2: "'kern' Horizontal Kerning in Hebrew lookup 3 per glyph data 1" uniFB31 dx=7 dy=0 dh=7 dv=0 dx=0 dy=0 dh=0 dv=0
PairPos2: "'kern' Horizontal Kerning in Hebrew lookup 3 per glyph data 1" uni05D1 dx=7 dy=0 dh=7 dv=0 dx=0 dy=0 dh=0 dv=0
PairPos2: "'kern' Horizontal Kerning in Hebrew lookup 3 per glyph data 1" uniFB30 dx=5 dy=0 dh=5 dv=0 dx=0 dy=0 dh=0 dv=0
PairPos2: "'kern' Horizontal Kerning in Hebrew lookup 3 per glyph data 1" uniFB2F dx=5 dy=0 dh=5 dv=0 dx=0 dy=0 dh=0 dv=0
PairPos2: "'kern' Horizontal Kerning in Hebrew lookup 3 per glyph data 1" uniFB2E dx=5 dy=0 dh=5 dv=0 dx=0 dy=0 dh=0 dv=0
PairPos2: "'kern' Horizontal Kerning in Hebrew lookup 3 per glyph data 1" uni05D0 dx=5 dy=0 dh=5 dv=0 dx=0 dy=0 dh=0 dv=0
EndChar

StartChar: K
Encoding: 75 75 48
Width: 615
GlyphClass: 2
Flags: W
AnchorPoint: "Anchor-10" 0 0 basechar 0
AnchorPoint: "Anchor-9" 0 0 basechar 0
AnchorPoint: "Anchor-8" 0 0 basechar 0
AnchorPoint: "Anchor-7" 308 666 basechar 0
AnchorPoint: "Anchor-6" 0 0 basechar 0
AnchorPoint: "Anchor-5" 308 0 basechar 0
LayerCount: 2
Fore
SplineSet
70 666 m 1,0,-1
 215 666 l 1,1,-1
 215 408 l 1,2,-1
 432 666 l 1,3,-1
 605 666 l 1,4,-1
 331 350 l 1,5,-1
 591 0 l 1,6,-1
 415 0 l 1,7,-1
 215 269 l 1,8,-1
 215 0 l 1,9,-1
 70 0 l 1,10,-1
 70 666 l 1,0,-1
EndSplineSet
PairPos2: "'kern' Horizontal Kerning in Hebrew lookup 3 per glyph data 3" uni05F4 dx=12 dy=0 dh=12 dv=0 dx=0 dy=0 dh=0 dv=0
PairPos2: "'kern' Horizontal Kerning in Hebrew lookup 3 per glyph data 3" uni05F3 dx=12 dy=0 dh=12 dv=0 dx=0 dy=0 dh=0 dv=0
PairPos2: "'kern' Horizontal Kerning in Hebrew lookup 3 per glyph data 3" quoteright dx=12 dy=0 dh=12 dv=0 dx=0 dy=0 dh=0 dv=0
PairPos2: "'kern' Horizontal Kerning in Hebrew lookup 3 per glyph data 3" quotedblright dx=12 dy=0 dh=12 dv=0 dx=0 dy=0 dh=0 dv=0
PairPos2: "'kern' Horizontal Kerning in Hebrew lookup 3 per glyph data 3" quotesingle dx=12 dy=0 dh=12 dv=0 dx=0 dy=0 dh=0 dv=0
PairPos2: "'kern' Horizontal Kerning in Hebrew lookup 3 per glyph data 3" quotedbl dx=12 dy=0 dh=12 dv=0 dx=0 dy=0 dh=0 dv=0
PairPos2: "'kern' Horizontal Kerning in Hebrew lookup 3 per glyph data 2" uni05E5 dx=-25 dy=0 dh=-25 dv=0 dx=0 dy=0 dh=0 dv=0
PairPos2: "'kern' Horizontal Kerning in Hebrew lookup 3 per glyph data 2" uniFB36 dx=-25 dy=0 dh=-25 dv=0 dx=0 dy=0 dh=0 dv=0
PairPos2: "'kern' Horizontal Kerning in Hebrew lookup 3 per glyph data 2" uni05D6 dx=-25 dy=0 dh=-25 dv=0 dx=0 dy=0 dh=0 dv=0
PairPos2: "'kern' Horizontal Kerning in Hebrew lookup 3 per glyph data 2" uniFB46 dx=-20 dy=0 dh=-20 dv=0 dx=0 dy=0 dh=0 dv=0
PairPos2: "'kern' Horizontal Kerning in Hebrew lookup 3 per glyph data 2" uni05E6 dx=-20 dy=0 dh=-20 dv=0 dx=0 dy=0 dh=0 dv=0
PairPos2: "'kern' Horizontal Kerning in Hebrew lookup 3 per glyph data 2" uniFB38 dx=5 dy=0 dh=5 dv=0 dx=0 dy=0 dh=0 dv=0
PairPos2: "'kern' Horizontal Kerning in Hebrew lookup 3 per glyph data 2" uni05D8 dx=5 dy=0 dh=5 dv=0 dx=0 dy=0 dh=0 dv=0
PairPos2: "'kern' Horizontal Kerning in Hebrew lookup 3 per glyph data 2" uniFB41 dx=5 dy=0 dh=5 dv=0 dx=0 dy=0 dh=0 dv=0
PairPos2: "'kern' Horizontal Kerning in Hebrew lookup 3 per glyph data 2" uni05E1 dx=5 dy=0 dh=5 dv=0 dx=0 dy=0 dh=0 dv=0
PairPos2: "'kern' Horizontal Kerning in Hebrew lookup 3 per glyph data 2" uniFB3B dx=10 dy=0 dh=10 dv=0 dx=0 dy=0 dh=0 dv=0
PairPos2: "'kern' Horizontal Kerning in Hebrew lookup 3 per glyph data 2" uni05DB dx=10 dy=0 dh=10 dv=0 dx=0 dy=0 dh=0 dv=0
PairPos2: "'kern' Horizontal Kerning in Hebrew lookup 3 per glyph data 2" uniFB33 dx=-20 dy=0 dh=-20 dv=0 dx=0 dy=0 dh=0 dv=0
PairPos2: "'kern' Horizontal Kerning in Hebrew lookup 3 per glyph data 2" uni05D3 dx=-20 dy=0 dh=-20 dv=0 dx=0 dy=0 dh=0 dv=0
PairPos2: "'kern' Horizontal Kerning in Hebrew lookup 3 per glyph data 2" uniFB31 dx=-15 dy=0 dh=-15 dv=0 dx=0 dy=0 dh=0 dv=0
PairPos2: "'kern' Horizontal Kerning in Hebrew lookup 3 per glyph data 2" uni05D1 dx=-15 dy=0 dh=-15 dv=0 dx=0 dy=0 dh=0 dv=0
PairPos2: "'kern' Horizontal Kerning in Hebrew lookup 3 per glyph data 2" uniFB30 dx=-12 dy=0 dh=-12 dv=0 dx=0 dy=0 dh=0 dv=0
PairPos2: "'kern' Horizontal Kerning in Hebrew lookup 3 per glyph data 2" uniFB2F dx=-12 dy=0 dh=-12 dv=0 dx=0 dy=0 dh=0 dv=0
PairPos2: "'kern' Horizontal Kerning in Hebrew lookup 3 per glyph data 2" uniFB2E dx=-12 dy=0 dh=-12 dv=0 dx=0 dy=0 dh=0 dv=0
PairPos2: "'kern' Horizontal Kerning in Hebrew lookup 3 per glyph data 2" uni05D0 dx=-12 dy=0 dh=-12 dv=0 dx=0 dy=0 dh=0 dv=0
PairPos2: "'kern' Horizontal Kerning in Hebrew lookup 3 per glyph data 1" uni05E5 dx=-5 dy=0 dh=-5 dv=0 dx=0 dy=0 dh=0 dv=0
PairPos2: "'kern' Horizontal Kerning in Hebrew lookup 3 per glyph data 1" uniFB36 dx=-10 dy=0 dh=-10 dv=0 dx=0 dy=0 dh=0 dv=0
PairPos2: "'kern' Horizontal Kerning in Hebrew lookup 3 per glyph data 1" uni05D6 dx=-10 dy=0 dh=-10 dv=0 dx=0 dy=0 dh=0 dv=0
PairPos2: "'kern' Horizontal Kerning in Hebrew lookup 3 per glyph data 1" uniFB39 dx=-5 dy=0 dh=-5 dv=0 dx=0 dy=0 dh=0 dv=0
PairPos2: "'kern' Horizontal Kerning in Hebrew lookup 3 per glyph data 1" uni05D9 dx=-5 dy=0 dh=-5 dv=0 dx=0 dy=0 dh=0 dv=0
PairPos2: "'kern' Horizontal Kerning in Hebrew lookup 3 per glyph data 1" uniFB38 dx=-10 dy=0 dh=-10 dv=0 dx=0 dy=0 dh=0 dv=0
PairPos2: "'kern' Horizontal Kerning in Hebrew lookup 3 per glyph data 1" uni05D8 dx=-10 dy=0 dh=-10 dv=0 dx=0 dy=0 dh=0 dv=0
PairPos2: "'kern' Horizontal Kerning in Hebrew lookup 3 per glyph data 1" uniFB41 dx=-7 dy=0 dh=-7 dv=0 dx=0 dy=0 dh=0 dv=0
PairPos2: "'kern' Horizontal Kerning in Hebrew lookup 3 per glyph data 1" uni05E1 dx=-7 dy=0 dh=-7 dv=0 dx=0 dy=0 dh=0 dv=0
PairPos2: "'kern' Horizontal Kerning in Hebrew lookup 3 per glyph data 1" uni05F4 dx=5 dy=0 dh=5 dv=0 dx=0 dy=0 dh=0 dv=0
PairPos2: "'kern' Horizontal Kerning in Hebrew lookup 3 per glyph data 1" uni05F3 dx=5 dy=0 dh=5 dv=0 dx=0 dy=0 dh=0 dv=0
PairPos2: "'kern' Horizontal Kerning in Hebrew lookup 3 per glyph data 1" quoteright dx=5 dy=0 dh=5 dv=0 dx=0 dy=0 dh=0 dv=0
PairPos2: "'kern' Horizontal Kerning in Hebrew lookup 3 per glyph data 1" quotedblright dx=5 dy=0 dh=5 dv=0 dx=0 dy=0 dh=0 dv=0
PairPos2: "'kern' Horizontal Kerning in Hebrew lookup 3 per glyph data 1" quotesingle dx=5 dy=0 dh=5 dv=0 dx=0 dy=0 dh=0 dv=0
PairPos2: "'kern' Horizontal Kerning in Hebrew lookup 3 per glyph data 1" quotedbl dx=5 dy=0 dh=5 dv=0 dx=0 dy=0 dh=0 dv=0
PairPos2: "'kern' Horizontal Kerning in Hebrew lookup 3 per glyph data 1" period dx=10 dy=0 dh=10 dv=0 dx=0 dy=0 dh=0 dv=0
PairPos2: "'kern' Horizontal Kerning in Hebrew lookup 3 per glyph data 1" ellipsis dx=10 dy=0 dh=10 dv=0 dx=0 dy=0 dh=0 dv=0
PairPos2: "'kern' Horizontal Kerning in Hebrew lookup 3 per glyph data 1" uniFB3C dx=-5 dy=0 dh=-5 dv=0 dx=0 dy=0 dh=0 dv=0
PairPos2: "'kern' Horizontal Kerning in Hebrew lookup 3 per glyph data 1" uni05DC dx=-5 dy=0 dh=-5 dv=0 dx=0 dy=0 dh=0 dv=0
PairPos2: "'kern' Horizontal Kerning in Hebrew lookup 3 per glyph data 1" uniFB3B dx=-5 dy=0 dh=-5 dv=0 dx=0 dy=0 dh=0 dv=0
PairPos2: "'kern' Horizontal Kerning in Hebrew lookup 3 per glyph data 1" uni05DB dx=-5 dy=0 dh=-5 dv=0 dx=0 dy=0 dh=0 dv=0
PairPos2: "'kern' Horizontal Kerning in Hebrew lookup 3 per glyph data 1" hyphen dx=-25 dy=0 dh=-25 dv=0 dx=0 dy=0 dh=0 dv=0
PairPos2: "'kern' Horizontal Kerning in Hebrew lookup 3 per glyph data 1" endash dx=-25 dy=0 dh=-25 dv=0 dx=0 dy=0 dh=0 dv=0
PairPos2: "'kern' Horizontal Kerning in Hebrew lookup 3 per glyph data 1" emdash dx=-25 dy=0 dh=-25 dv=0 dx=0 dy=0 dh=0 dv=0
PairPos2: "'kern' Horizontal Kerning in Hebrew lookup 3 per glyph data 1" uniFB33 dx=-4 dy=0 dh=-4 dv=0 dx=0 dy=0 dh=0 dv=0
PairPos2: "'kern' Horizontal Kerning in Hebrew lookup 3 per glyph data 1" uni05D3 dx=-4 dy=0 dh=-4 dv=0 dx=0 dy=0 dh=0 dv=0
PairPos2: "'kern' Horizontal Kerning in Hebrew lookup 3 per glyph data 1" uniFB31 dx=7 dy=0 dh=7 dv=0 dx=0 dy=0 dh=0 dv=0
PairPos2: "'kern' Horizontal Kerning in Hebrew lookup 3 per glyph data 1" uni05D1 dx=7 dy=0 dh=7 dv=0 dx=0 dy=0 dh=0 dv=0
PairPos2: "'kern' Horizontal Kerning in Hebrew lookup 3 per glyph data 1" uniFB30 dx=5 dy=0 dh=5 dv=0 dx=0 dy=0 dh=0 dv=0
PairPos2: "'kern' Horizontal Kerning in Hebrew lookup 3 per glyph data 1" uniFB2F dx=5 dy=0 dh=5 dv=0 dx=0 dy=0 dh=0 dv=0
PairPos2: "'kern' Horizontal Kerning in Hebrew lookup 3 per glyph data 1" uniFB2E dx=5 dy=0 dh=5 dv=0 dx=0 dy=0 dh=0 dv=0
PairPos2: "'kern' Horizontal Kerning in Hebrew lookup 3 per glyph data 1" uni05D0 dx=5 dy=0 dh=5 dv=0 dx=0 dy=0 dh=0 dv=0
EndChar

StartChar: L
Encoding: 76 76 50
Width: 485
GlyphClass: 2
Flags: W
AnchorPoint: "Anchor-10" 465 666 basechar 0
AnchorPoint: "Anchor-9" 0 0 basechar 0
AnchorPoint: "Anchor-8" 151 363 basechar 0
AnchorPoint: "Anchor-7" 143 666 basechar 0
AnchorPoint: "Anchor-6" 0 0 basechar 0
AnchorPoint: "Anchor-5" 261 0 basechar 0
LayerCount: 2
Fore
SplineSet
70 666 m 1,0,-1
 215 666 l 1,1,-1
 215 126 l 1,2,-1
 455 126 l 1,3,-1
 455 0 l 1,4,-1
 70 0 l 1,5,-1
 70 666 l 1,0,-1
EndSplineSet
PairPos2: "'kern' Horizontal Kerning in Hebrew lookup 3 per glyph data 3" uni05F4 dx=12 dy=0 dh=12 dv=0 dx=0 dy=0 dh=0 dv=0
PairPos2: "'kern' Horizontal Kerning in Hebrew lookup 3 per glyph data 3" uni05F3 dx=12 dy=0 dh=12 dv=0 dx=0 dy=0 dh=0 dv=0
PairPos2: "'kern' Horizontal Kerning in Hebrew lookup 3 per glyph data 3" quoteright dx=12 dy=0 dh=12 dv=0 dx=0 dy=0 dh=0 dv=0
PairPos2: "'kern' Horizontal Kerning in Hebrew lookup 3 per glyph data 3" quotedblright dx=12 dy=0 dh=12 dv=0 dx=0 dy=0 dh=0 dv=0
PairPos2: "'kern' Horizontal Kerning in Hebrew lookup 3 per glyph data 3" quotesingle dx=12 dy=0 dh=12 dv=0 dx=0 dy=0 dh=0 dv=0
PairPos2: "'kern' Horizontal Kerning in Hebrew lookup 3 per glyph data 3" quotedbl dx=12 dy=0 dh=12 dv=0 dx=0 dy=0 dh=0 dv=0
PairPos2: "'kern' Horizontal Kerning in Hebrew lookup 3 per glyph data 2" uni05E5 dx=-25 dy=0 dh=-25 dv=0 dx=0 dy=0 dh=0 dv=0
PairPos2: "'kern' Horizontal Kerning in Hebrew lookup 3 per glyph data 2" uniFB36 dx=-25 dy=0 dh=-25 dv=0 dx=0 dy=0 dh=0 dv=0
PairPos2: "'kern' Horizontal Kerning in Hebrew lookup 3 per glyph data 2" uni05D6 dx=-25 dy=0 dh=-25 dv=0 dx=0 dy=0 dh=0 dv=0
PairPos2: "'kern' Horizontal Kerning in Hebrew lookup 3 per glyph data 2" uniFB46 dx=-20 dy=0 dh=-20 dv=0 dx=0 dy=0 dh=0 dv=0
PairPos2: "'kern' Horizontal Kerning in Hebrew lookup 3 per glyph data 2" uni05E6 dx=-20 dy=0 dh=-20 dv=0 dx=0 dy=0 dh=0 dv=0
PairPos2: "'kern' Horizontal Kerning in Hebrew lookup 3 per glyph data 2" uniFB38 dx=5 dy=0 dh=5 dv=0 dx=0 dy=0 dh=0 dv=0
PairPos2: "'kern' Horizontal Kerning in Hebrew lookup 3 per glyph data 2" uni05D8 dx=5 dy=0 dh=5 dv=0 dx=0 dy=0 dh=0 dv=0
PairPos2: "'kern' Horizontal Kerning in Hebrew lookup 3 per glyph data 2" uniFB41 dx=5 dy=0 dh=5 dv=0 dx=0 dy=0 dh=0 dv=0
PairPos2: "'kern' Horizontal Kerning in Hebrew lookup 3 per glyph data 2" uni05E1 dx=5 dy=0 dh=5 dv=0 dx=0 dy=0 dh=0 dv=0
PairPos2: "'kern' Horizontal Kerning in Hebrew lookup 3 per glyph data 2" uniFB3B dx=10 dy=0 dh=10 dv=0 dx=0 dy=0 dh=0 dv=0
PairPos2: "'kern' Horizontal Kerning in Hebrew lookup 3 per glyph data 2" uni05DB dx=10 dy=0 dh=10 dv=0 dx=0 dy=0 dh=0 dv=0
PairPos2: "'kern' Horizontal Kerning in Hebrew lookup 3 per glyph data 2" uniFB33 dx=-20 dy=0 dh=-20 dv=0 dx=0 dy=0 dh=0 dv=0
PairPos2: "'kern' Horizontal Kerning in Hebrew lookup 3 per glyph data 2" uni05D3 dx=-20 dy=0 dh=-20 dv=0 dx=0 dy=0 dh=0 dv=0
PairPos2: "'kern' Horizontal Kerning in Hebrew lookup 3 per glyph data 2" uniFB31 dx=-15 dy=0 dh=-15 dv=0 dx=0 dy=0 dh=0 dv=0
PairPos2: "'kern' Horizontal Kerning in Hebrew lookup 3 per glyph data 2" uni05D1 dx=-15 dy=0 dh=-15 dv=0 dx=0 dy=0 dh=0 dv=0
PairPos2: "'kern' Horizontal Kerning in Hebrew lookup 3 per glyph data 2" uniFB30 dx=-12 dy=0 dh=-12 dv=0 dx=0 dy=0 dh=0 dv=0
PairPos2: "'kern' Horizontal Kerning in Hebrew lookup 3 per glyph data 2" uniFB2F dx=-12 dy=0 dh=-12 dv=0 dx=0 dy=0 dh=0 dv=0
PairPos2: "'kern' Horizontal Kerning in Hebrew lookup 3 per glyph data 2" uniFB2E dx=-12 dy=0 dh=-12 dv=0 dx=0 dy=0 dh=0 dv=0
PairPos2: "'kern' Horizontal Kerning in Hebrew lookup 3 per glyph data 2" uni05D0 dx=-12 dy=0 dh=-12 dv=0 dx=0 dy=0 dh=0 dv=0
PairPos2: "'kern' Horizontal Kerning in Hebrew lookup 3 per glyph data 1" uni05E5 dx=-5 dy=0 dh=-5 dv=0 dx=0 dy=0 dh=0 dv=0
PairPos2: "'kern' Horizontal Kerning in Hebrew lookup 3 per glyph data 1" uniFB36 dx=-10 dy=0 dh=-10 dv=0 dx=0 dy=0 dh=0 dv=0
PairPos2: "'kern' Horizontal Kerning in Hebrew lookup 3 per glyph data 1" uni05D6 dx=-10 dy=0 dh=-10 dv=0 dx=0 dy=0 dh=0 dv=0
PairPos2: "'kern' Horizontal Kerning in Hebrew lookup 3 per glyph data 1" uniFB39 dx=-5 dy=0 dh=-5 dv=0 dx=0 dy=0 dh=0 dv=0
PairPos2: "'kern' Horizontal Kerning in Hebrew lookup 3 per glyph data 1" uni05D9 dx=-5 dy=0 dh=-5 dv=0 dx=0 dy=0 dh=0 dv=0
PairPos2: "'kern' Horizontal Kerning in Hebrew lookup 3 per glyph data 1" uniFB38 dx=-10 dy=0 dh=-10 dv=0 dx=0 dy=0 dh=0 dv=0
PairPos2: "'kern' Horizontal Kerning in Hebrew lookup 3 per glyph data 1" uni05D8 dx=-10 dy=0 dh=-10 dv=0 dx=0 dy=0 dh=0 dv=0
PairPos2: "'kern' Horizontal Kerning in Hebrew lookup 3 per glyph data 1" uniFB41 dx=-7 dy=0 dh=-7 dv=0 dx=0 dy=0 dh=0 dv=0
PairPos2: "'kern' Horizontal Kerning in Hebrew lookup 3 per glyph data 1" uni05E1 dx=-7 dy=0 dh=-7 dv=0 dx=0 dy=0 dh=0 dv=0
PairPos2: "'kern' Horizontal Kerning in Hebrew lookup 3 per glyph data 1" uni05F4 dx=5 dy=0 dh=5 dv=0 dx=0 dy=0 dh=0 dv=0
PairPos2: "'kern' Horizontal Kerning in Hebrew lookup 3 per glyph data 1" uni05F3 dx=5 dy=0 dh=5 dv=0 dx=0 dy=0 dh=0 dv=0
PairPos2: "'kern' Horizontal Kerning in Hebrew lookup 3 per glyph data 1" quoteright dx=5 dy=0 dh=5 dv=0 dx=0 dy=0 dh=0 dv=0
PairPos2: "'kern' Horizontal Kerning in Hebrew lookup 3 per glyph data 1" quotedblright dx=5 dy=0 dh=5 dv=0 dx=0 dy=0 dh=0 dv=0
PairPos2: "'kern' Horizontal Kerning in Hebrew lookup 3 per glyph data 1" quotesingle dx=5 dy=0 dh=5 dv=0 dx=0 dy=0 dh=0 dv=0
PairPos2: "'kern' Horizontal Kerning in Hebrew lookup 3 per glyph data 1" quotedbl dx=5 dy=0 dh=5 dv=0 dx=0 dy=0 dh=0 dv=0
PairPos2: "'kern' Horizontal Kerning in Hebrew lookup 3 per glyph data 1" period dx=10 dy=0 dh=10 dv=0 dx=0 dy=0 dh=0 dv=0
PairPos2: "'kern' Horizontal Kerning in Hebrew lookup 3 per glyph data 1" ellipsis dx=10 dy=0 dh=10 dv=0 dx=0 dy=0 dh=0 dv=0
PairPos2: "'kern' Horizontal Kerning in Hebrew lookup 3 per glyph data 1" uniFB3C dx=-5 dy=0 dh=-5 dv=0 dx=0 dy=0 dh=0 dv=0
PairPos2: "'kern' Horizontal Kerning in Hebrew lookup 3 per glyph data 1" uni05DC dx=-5 dy=0 dh=-5 dv=0 dx=0 dy=0 dh=0 dv=0
PairPos2: "'kern' Horizontal Kerning in Hebrew lookup 3 per glyph data 1" uniFB3B dx=-5 dy=0 dh=-5 dv=0 dx=0 dy=0 dh=0 dv=0
PairPos2: "'kern' Horizontal Kerning in Hebrew lookup 3 per glyph data 1" uni05DB dx=-5 dy=0 dh=-5 dv=0 dx=0 dy=0 dh=0 dv=0
PairPos2: "'kern' Horizontal Kerning in Hebrew lookup 3 per glyph data 1" hyphen dx=-25 dy=0 dh=-25 dv=0 dx=0 dy=0 dh=0 dv=0
PairPos2: "'kern' Horizontal Kerning in Hebrew lookup 3 per glyph data 1" endash dx=-25 dy=0 dh=-25 dv=0 dx=0 dy=0 dh=0 dv=0
PairPos2: "'kern' Horizontal Kerning in Hebrew lookup 3 per glyph data 1" emdash dx=-25 dy=0 dh=-25 dv=0 dx=0 dy=0 dh=0 dv=0
PairPos2: "'kern' Horizontal Kerning in Hebrew lookup 3 per glyph data 1" uniFB33 dx=-4 dy=0 dh=-4 dv=0 dx=0 dy=0 dh=0 dv=0
PairPos2: "'kern' Horizontal Kerning in Hebrew lookup 3 per glyph data 1" uni05D3 dx=-4 dy=0 dh=-4 dv=0 dx=0 dy=0 dh=0 dv=0
PairPos2: "'kern' Horizontal Kerning in Hebrew lookup 3 per glyph data 1" uniFB31 dx=7 dy=0 dh=7 dv=0 dx=0 dy=0 dh=0 dv=0
PairPos2: "'kern' Horizontal Kerning in Hebrew lookup 3 per glyph data 1" uni05D1 dx=7 dy=0 dh=7 dv=0 dx=0 dy=0 dh=0 dv=0
PairPos2: "'kern' Horizontal Kerning in Hebrew lookup 3 per glyph data 1" uniFB30 dx=5 dy=0 dh=5 dv=0 dx=0 dy=0 dh=0 dv=0
PairPos2: "'kern' Horizontal Kerning in Hebrew lookup 3 per glyph data 1" uniFB2F dx=5 dy=0 dh=5 dv=0 dx=0 dy=0 dh=0 dv=0
PairPos2: "'kern' Horizontal Kerning in Hebrew lookup 3 per glyph data 1" uniFB2E dx=5 dy=0 dh=5 dv=0 dx=0 dy=0 dh=0 dv=0
PairPos2: "'kern' Horizontal Kerning in Hebrew lookup 3 per glyph data 1" uni05D0 dx=5 dy=0 dh=5 dv=0 dx=0 dy=0 dh=0 dv=0
EndChar

StartChar: Lcaron
Encoding: 317 317 52
Width: 505
GlyphClass: 2
Flags: W
LayerCount: 2
Fore
SplineSet
324 484 m 1,0,1
 355 521 355 521 370 561 c 1,2,-1
 332 609 l 1,3,4
 329 642 329 642 348 666 c 0,5,6
 370 691 370 691 404 691 c 0,7,8
 434 691 434 691 455.5 668 c 128,-1,9
 477 645 477 645 477 609 c 0,10,11
 477 564 477 564 440.5 520.5 c 128,-1,12
 404 477 404 477 350 449 c 1,13,-1
 324 484 l 1,0,1
70 666 m 1,14,-1
 215 666 l 1,15,-1
 215 126 l 1,16,-1
 455 126 l 1,17,-1
 455 0 l 1,18,-1
 70 0 l 1,19,-1
 70 666 l 1,14,-1
EndSplineSet
PairPos2: "'kern' Horizontal Kerning in Hebrew lookup 3 per glyph data 3" uni05F4 dx=12 dy=0 dh=12 dv=0 dx=0 dy=0 dh=0 dv=0
PairPos2: "'kern' Horizontal Kerning in Hebrew lookup 3 per glyph data 3" uni05F3 dx=12 dy=0 dh=12 dv=0 dx=0 dy=0 dh=0 dv=0
PairPos2: "'kern' Horizontal Kerning in Hebrew lookup 3 per glyph data 3" quoteright dx=12 dy=0 dh=12 dv=0 dx=0 dy=0 dh=0 dv=0
PairPos2: "'kern' Horizontal Kerning in Hebrew lookup 3 per glyph data 3" quotedblright dx=12 dy=0 dh=12 dv=0 dx=0 dy=0 dh=0 dv=0
PairPos2: "'kern' Horizontal Kerning in Hebrew lookup 3 per glyph data 3" quotesingle dx=12 dy=0 dh=12 dv=0 dx=0 dy=0 dh=0 dv=0
PairPos2: "'kern' Horizontal Kerning in Hebrew lookup 3 per glyph data 3" quotedbl dx=12 dy=0 dh=12 dv=0 dx=0 dy=0 dh=0 dv=0
PairPos2: "'kern' Horizontal Kerning in Hebrew lookup 3 per glyph data 2" uni05E5 dx=-25 dy=0 dh=-25 dv=0 dx=0 dy=0 dh=0 dv=0
PairPos2: "'kern' Horizontal Kerning in Hebrew lookup 3 per glyph data 2" uniFB36 dx=-25 dy=0 dh=-25 dv=0 dx=0 dy=0 dh=0 dv=0
PairPos2: "'kern' Horizontal Kerning in Hebrew lookup 3 per glyph data 2" uni05D6 dx=-25 dy=0 dh=-25 dv=0 dx=0 dy=0 dh=0 dv=0
PairPos2: "'kern' Horizontal Kerning in Hebrew lookup 3 per glyph data 2" uniFB46 dx=-20 dy=0 dh=-20 dv=0 dx=0 dy=0 dh=0 dv=0
PairPos2: "'kern' Horizontal Kerning in Hebrew lookup 3 per glyph data 2" uni05E6 dx=-20 dy=0 dh=-20 dv=0 dx=0 dy=0 dh=0 dv=0
PairPos2: "'kern' Horizontal Kerning in Hebrew lookup 3 per glyph data 2" uniFB38 dx=5 dy=0 dh=5 dv=0 dx=0 dy=0 dh=0 dv=0
PairPos2: "'kern' Horizontal Kerning in Hebrew lookup 3 per glyph data 2" uni05D8 dx=5 dy=0 dh=5 dv=0 dx=0 dy=0 dh=0 dv=0
PairPos2: "'kern' Horizontal Kerning in Hebrew lookup 3 per glyph data 2" uniFB41 dx=5 dy=0 dh=5 dv=0 dx=0 dy=0 dh=0 dv=0
PairPos2: "'kern' Horizontal Kerning in Hebrew lookup 3 per glyph data 2" uni05E1 dx=5 dy=0 dh=5 dv=0 dx=0 dy=0 dh=0 dv=0
PairPos2: "'kern' Horizontal Kerning in Hebrew lookup 3 per glyph data 2" uniFB3B dx=10 dy=0 dh=10 dv=0 dx=0 dy=0 dh=0 dv=0
PairPos2: "'kern' Horizontal Kerning in Hebrew lookup 3 per glyph data 2" uni05DB dx=10 dy=0 dh=10 dv=0 dx=0 dy=0 dh=0 dv=0
PairPos2: "'kern' Horizontal Kerning in Hebrew lookup 3 per glyph data 2" uniFB33 dx=-20 dy=0 dh=-20 dv=0 dx=0 dy=0 dh=0 dv=0
PairPos2: "'kern' Horizontal Kerning in Hebrew lookup 3 per glyph data 2" uni05D3 dx=-20 dy=0 dh=-20 dv=0 dx=0 dy=0 dh=0 dv=0
PairPos2: "'kern' Horizontal Kerning in Hebrew lookup 3 per glyph data 2" uniFB31 dx=-15 dy=0 dh=-15 dv=0 dx=0 dy=0 dh=0 dv=0
PairPos2: "'kern' Horizontal Kerning in Hebrew lookup 3 per glyph data 2" uni05D1 dx=-15 dy=0 dh=-15 dv=0 dx=0 dy=0 dh=0 dv=0
PairPos2: "'kern' Horizontal Kerning in Hebrew lookup 3 per glyph data 2" uniFB30 dx=-12 dy=0 dh=-12 dv=0 dx=0 dy=0 dh=0 dv=0
PairPos2: "'kern' Horizontal Kerning in Hebrew lookup 3 per glyph data 2" uniFB2F dx=-12 dy=0 dh=-12 dv=0 dx=0 dy=0 dh=0 dv=0
PairPos2: "'kern' Horizontal Kerning in Hebrew lookup 3 per glyph data 2" uniFB2E dx=-12 dy=0 dh=-12 dv=0 dx=0 dy=0 dh=0 dv=0
PairPos2: "'kern' Horizontal Kerning in Hebrew lookup 3 per glyph data 2" uni05D0 dx=-12 dy=0 dh=-12 dv=0 dx=0 dy=0 dh=0 dv=0
PairPos2: "'kern' Horizontal Kerning in Hebrew lookup 3 per glyph data 1" uni05E5 dx=-5 dy=0 dh=-5 dv=0 dx=0 dy=0 dh=0 dv=0
PairPos2: "'kern' Horizontal Kerning in Hebrew lookup 3 per glyph data 1" uniFB36 dx=-10 dy=0 dh=-10 dv=0 dx=0 dy=0 dh=0 dv=0
PairPos2: "'kern' Horizontal Kerning in Hebrew lookup 3 per glyph data 1" uni05D6 dx=-10 dy=0 dh=-10 dv=0 dx=0 dy=0 dh=0 dv=0
PairPos2: "'kern' Horizontal Kerning in Hebrew lookup 3 per glyph data 1" uniFB39 dx=-5 dy=0 dh=-5 dv=0 dx=0 dy=0 dh=0 dv=0
PairPos2: "'kern' Horizontal Kerning in Hebrew lookup 3 per glyph data 1" uni05D9 dx=-5 dy=0 dh=-5 dv=0 dx=0 dy=0 dh=0 dv=0
PairPos2: "'kern' Horizontal Kerning in Hebrew lookup 3 per glyph data 1" uniFB38 dx=-10 dy=0 dh=-10 dv=0 dx=0 dy=0 dh=0 dv=0
PairPos2: "'kern' Horizontal Kerning in Hebrew lookup 3 per glyph data 1" uni05D8 dx=-10 dy=0 dh=-10 dv=0 dx=0 dy=0 dh=0 dv=0
PairPos2: "'kern' Horizontal Kerning in Hebrew lookup 3 per glyph data 1" uniFB41 dx=-7 dy=0 dh=-7 dv=0 dx=0 dy=0 dh=0 dv=0
PairPos2: "'kern' Horizontal Kerning in Hebrew lookup 3 per glyph data 1" uni05E1 dx=-7 dy=0 dh=-7 dv=0 dx=0 dy=0 dh=0 dv=0
PairPos2: "'kern' Horizontal Kerning in Hebrew lookup 3 per glyph data 1" uni05F4 dx=5 dy=0 dh=5 dv=0 dx=0 dy=0 dh=0 dv=0
PairPos2: "'kern' Horizontal Kerning in Hebrew lookup 3 per glyph data 1" uni05F3 dx=5 dy=0 dh=5 dv=0 dx=0 dy=0 dh=0 dv=0
PairPos2: "'kern' Horizontal Kerning in Hebrew lookup 3 per glyph data 1" quoteright dx=5 dy=0 dh=5 dv=0 dx=0 dy=0 dh=0 dv=0
PairPos2: "'kern' Horizontal Kerning in Hebrew lookup 3 per glyph data 1" quotedblright dx=5 dy=0 dh=5 dv=0 dx=0 dy=0 dh=0 dv=0
PairPos2: "'kern' Horizontal Kerning in Hebrew lookup 3 per glyph data 1" quotesingle dx=5 dy=0 dh=5 dv=0 dx=0 dy=0 dh=0 dv=0
PairPos2: "'kern' Horizontal Kerning in Hebrew lookup 3 per glyph data 1" quotedbl dx=5 dy=0 dh=5 dv=0 dx=0 dy=0 dh=0 dv=0
PairPos2: "'kern' Horizontal Kerning in Hebrew lookup 3 per glyph data 1" period dx=10 dy=0 dh=10 dv=0 dx=0 dy=0 dh=0 dv=0
PairPos2: "'kern' Horizontal Kerning in Hebrew lookup 3 per glyph data 1" ellipsis dx=10 dy=0 dh=10 dv=0 dx=0 dy=0 dh=0 dv=0
PairPos2: "'kern' Horizontal Kerning in Hebrew lookup 3 per glyph data 1" uniFB3C dx=-5 dy=0 dh=-5 dv=0 dx=0 dy=0 dh=0 dv=0
PairPos2: "'kern' Horizontal Kerning in Hebrew lookup 3 per glyph data 1" uni05DC dx=-5 dy=0 dh=-5 dv=0 dx=0 dy=0 dh=0 dv=0
PairPos2: "'kern' Horizontal Kerning in Hebrew lookup 3 per glyph data 1" uniFB3B dx=-5 dy=0 dh=-5 dv=0 dx=0 dy=0 dh=0 dv=0
PairPos2: "'kern' Horizontal Kerning in Hebrew lookup 3 per glyph data 1" uni05DB dx=-5 dy=0 dh=-5 dv=0 dx=0 dy=0 dh=0 dv=0
PairPos2: "'kern' Horizontal Kerning in Hebrew lookup 3 per glyph data 1" hyphen dx=-25 dy=0 dh=-25 dv=0 dx=0 dy=0 dh=0 dv=0
PairPos2: "'kern' Horizontal Kerning in Hebrew lookup 3 per glyph data 1" endash dx=-25 dy=0 dh=-25 dv=0 dx=0 dy=0 dh=0 dv=0
PairPos2: "'kern' Horizontal Kerning in Hebrew lookup 3 per glyph data 1" emdash dx=-25 dy=0 dh=-25 dv=0 dx=0 dy=0 dh=0 dv=0
PairPos2: "'kern' Horizontal Kerning in Hebrew lookup 3 per glyph data 1" uniFB33 dx=-4 dy=0 dh=-4 dv=0 dx=0 dy=0 dh=0 dv=0
PairPos2: "'kern' Horizontal Kerning in Hebrew lookup 3 per glyph data 1" uni05D3 dx=-4 dy=0 dh=-4 dv=0 dx=0 dy=0 dh=0 dv=0
PairPos2: "'kern' Horizontal Kerning in Hebrew lookup 3 per glyph data 1" uniFB31 dx=7 dy=0 dh=7 dv=0 dx=0 dy=0 dh=0 dv=0
PairPos2: "'kern' Horizontal Kerning in Hebrew lookup 3 per glyph data 1" uni05D1 dx=7 dy=0 dh=7 dv=0 dx=0 dy=0 dh=0 dv=0
PairPos2: "'kern' Horizontal Kerning in Hebrew lookup 3 per glyph data 1" uniFB30 dx=5 dy=0 dh=5 dv=0 dx=0 dy=0 dh=0 dv=0
PairPos2: "'kern' Horizontal Kerning in Hebrew lookup 3 per glyph data 1" uniFB2F dx=5 dy=0 dh=5 dv=0 dx=0 dy=0 dh=0 dv=0
PairPos2: "'kern' Horizontal Kerning in Hebrew lookup 3 per glyph data 1" uniFB2E dx=5 dy=0 dh=5 dv=0 dx=0 dy=0 dh=0 dv=0
PairPos2: "'kern' Horizontal Kerning in Hebrew lookup 3 per glyph data 1" uni05D0 dx=5 dy=0 dh=5 dv=0 dx=0 dy=0 dh=0 dv=0
EndChar

StartChar: Lslash
Encoding: 321 321 54
Width: 485
GlyphClass: 2
Flags: W
AnchorPoint: "Anchor-10" 465 666 basechar 0
AnchorPoint: "Anchor-9" 0 0 basechar 0
AnchorPoint: "Anchor-8" 151 363 basechar 0
AnchorPoint: "Anchor-7" 143 666 basechar 0
AnchorPoint: "Anchor-6" 0 0 basechar 0
AnchorPoint: "Anchor-5" 261 0 basechar 0
LayerCount: 2
Fore
SplineSet
455 126 m 1,0,-1
 455 0 l 1,1,-1
 70 0 l 1,2,-1
 70 246 l 1,3,-1
 16 206 l 1,4,-1
 -3 303 l 1,5,-1
 70 358 l 1,6,-1
 70 666 l 1,7,-1
 215 666 l 1,8,-1
 215 466 l 1,9,-1
 286 519 l 1,10,-1
 305 422 l 1,11,-1
 215 355 l 1,12,-1
 215 126 l 1,13,-1
 455 126 l 1,0,-1
EndSplineSet
PairPos2: "'kern' Horizontal Kerning in Hebrew lookup 3 per glyph data 3" uni05F4 dx=12 dy=0 dh=12 dv=0 dx=0 dy=0 dh=0 dv=0
PairPos2: "'kern' Horizontal Kerning in Hebrew lookup 3 per glyph data 3" uni05F3 dx=12 dy=0 dh=12 dv=0 dx=0 dy=0 dh=0 dv=0
PairPos2: "'kern' Horizontal Kerning in Hebrew lookup 3 per glyph data 3" quoteright dx=12 dy=0 dh=12 dv=0 dx=0 dy=0 dh=0 dv=0
PairPos2: "'kern' Horizontal Kerning in Hebrew lookup 3 per glyph data 3" quotedblright dx=12 dy=0 dh=12 dv=0 dx=0 dy=0 dh=0 dv=0
PairPos2: "'kern' Horizontal Kerning in Hebrew lookup 3 per glyph data 3" quotesingle dx=12 dy=0 dh=12 dv=0 dx=0 dy=0 dh=0 dv=0
PairPos2: "'kern' Horizontal Kerning in Hebrew lookup 3 per glyph data 3" quotedbl dx=12 dy=0 dh=12 dv=0 dx=0 dy=0 dh=0 dv=0
PairPos2: "'kern' Horizontal Kerning in Hebrew lookup 3 per glyph data 2" uni05E5 dx=-25 dy=0 dh=-25 dv=0 dx=0 dy=0 dh=0 dv=0
PairPos2: "'kern' Horizontal Kerning in Hebrew lookup 3 per glyph data 2" uniFB36 dx=-25 dy=0 dh=-25 dv=0 dx=0 dy=0 dh=0 dv=0
PairPos2: "'kern' Horizontal Kerning in Hebrew lookup 3 per glyph data 2" uni05D6 dx=-25 dy=0 dh=-25 dv=0 dx=0 dy=0 dh=0 dv=0
PairPos2: "'kern' Horizontal Kerning in Hebrew lookup 3 per glyph data 2" uniFB46 dx=-20 dy=0 dh=-20 dv=0 dx=0 dy=0 dh=0 dv=0
PairPos2: "'kern' Horizontal Kerning in Hebrew lookup 3 per glyph data 2" uni05E6 dx=-20 dy=0 dh=-20 dv=0 dx=0 dy=0 dh=0 dv=0
PairPos2: "'kern' Horizontal Kerning in Hebrew lookup 3 per glyph data 2" uniFB38 dx=5 dy=0 dh=5 dv=0 dx=0 dy=0 dh=0 dv=0
PairPos2: "'kern' Horizontal Kerning in Hebrew lookup 3 per glyph data 2" uni05D8 dx=5 dy=0 dh=5 dv=0 dx=0 dy=0 dh=0 dv=0
PairPos2: "'kern' Horizontal Kerning in Hebrew lookup 3 per glyph data 2" uniFB41 dx=5 dy=0 dh=5 dv=0 dx=0 dy=0 dh=0 dv=0
PairPos2: "'kern' Horizontal Kerning in Hebrew lookup 3 per glyph data 2" uni05E1 dx=5 dy=0 dh=5 dv=0 dx=0 dy=0 dh=0 dv=0
PairPos2: "'kern' Horizontal Kerning in Hebrew lookup 3 per glyph data 2" uniFB3B dx=10 dy=0 dh=10 dv=0 dx=0 dy=0 dh=0 dv=0
PairPos2: "'kern' Horizontal Kerning in Hebrew lookup 3 per glyph data 2" uni05DB dx=10 dy=0 dh=10 dv=0 dx=0 dy=0 dh=0 dv=0
PairPos2: "'kern' Horizontal Kerning in Hebrew lookup 3 per glyph data 2" uniFB33 dx=-20 dy=0 dh=-20 dv=0 dx=0 dy=0 dh=0 dv=0
PairPos2: "'kern' Horizontal Kerning in Hebrew lookup 3 per glyph data 2" uni05D3 dx=-20 dy=0 dh=-20 dv=0 dx=0 dy=0 dh=0 dv=0
PairPos2: "'kern' Horizontal Kerning in Hebrew lookup 3 per glyph data 2" uniFB31 dx=-15 dy=0 dh=-15 dv=0 dx=0 dy=0 dh=0 dv=0
PairPos2: "'kern' Horizontal Kerning in Hebrew lookup 3 per glyph data 2" uni05D1 dx=-15 dy=0 dh=-15 dv=0 dx=0 dy=0 dh=0 dv=0
PairPos2: "'kern' Horizontal Kerning in Hebrew lookup 3 per glyph data 2" uniFB30 dx=-12 dy=0 dh=-12 dv=0 dx=0 dy=0 dh=0 dv=0
PairPos2: "'kern' Horizontal Kerning in Hebrew lookup 3 per glyph data 2" uniFB2F dx=-12 dy=0 dh=-12 dv=0 dx=0 dy=0 dh=0 dv=0
PairPos2: "'kern' Horizontal Kerning in Hebrew lookup 3 per glyph data 2" uniFB2E dx=-12 dy=0 dh=-12 dv=0 dx=0 dy=0 dh=0 dv=0
PairPos2: "'kern' Horizontal Kerning in Hebrew lookup 3 per glyph data 2" uni05D0 dx=-12 dy=0 dh=-12 dv=0 dx=0 dy=0 dh=0 dv=0
PairPos2: "'kern' Horizontal Kerning in Hebrew lookup 3 per glyph data 1" uni05E5 dx=-5 dy=0 dh=-5 dv=0 dx=0 dy=0 dh=0 dv=0
PairPos2: "'kern' Horizontal Kerning in Hebrew lookup 3 per glyph data 1" uniFB36 dx=-10 dy=0 dh=-10 dv=0 dx=0 dy=0 dh=0 dv=0
PairPos2: "'kern' Horizontal Kerning in Hebrew lookup 3 per glyph data 1" uni05D6 dx=-10 dy=0 dh=-10 dv=0 dx=0 dy=0 dh=0 dv=0
PairPos2: "'kern' Horizontal Kerning in Hebrew lookup 3 per glyph data 1" uniFB39 dx=-5 dy=0 dh=-5 dv=0 dx=0 dy=0 dh=0 dv=0
PairPos2: "'kern' Horizontal Kerning in Hebrew lookup 3 per glyph data 1" uni05D9 dx=-5 dy=0 dh=-5 dv=0 dx=0 dy=0 dh=0 dv=0
PairPos2: "'kern' Horizontal Kerning in Hebrew lookup 3 per glyph data 1" uniFB38 dx=-10 dy=0 dh=-10 dv=0 dx=0 dy=0 dh=0 dv=0
PairPos2: "'kern' Horizontal Kerning in Hebrew lookup 3 per glyph data 1" uni05D8 dx=-10 dy=0 dh=-10 dv=0 dx=0 dy=0 dh=0 dv=0
PairPos2: "'kern' Horizontal Kerning in Hebrew lookup 3 per glyph data 1" uniFB41 dx=-7 dy=0 dh=-7 dv=0 dx=0 dy=0 dh=0 dv=0
PairPos2: "'kern' Horizontal Kerning in Hebrew lookup 3 per glyph data 1" uni05E1 dx=-7 dy=0 dh=-7 dv=0 dx=0 dy=0 dh=0 dv=0
PairPos2: "'kern' Horizontal Kerning in Hebrew lookup 3 per glyph data 1" uni05F4 dx=5 dy=0 dh=5 dv=0 dx=0 dy=0 dh=0 dv=0
PairPos2: "'kern' Horizontal Kerning in Hebrew lookup 3 per glyph data 1" uni05F3 dx=5 dy=0 dh=5 dv=0 dx=0 dy=0 dh=0 dv=0
PairPos2: "'kern' Horizontal Kerning in Hebrew lookup 3 per glyph data 1" quoteright dx=5 dy=0 dh=5 dv=0 dx=0 dy=0 dh=0 dv=0
PairPos2: "'kern' Horizontal Kerning in Hebrew lookup 3 per glyph data 1" quotedblright dx=5 dy=0 dh=5 dv=0 dx=0 dy=0 dh=0 dv=0
PairPos2: "'kern' Horizontal Kerning in Hebrew lookup 3 per glyph data 1" quotesingle dx=5 dy=0 dh=5 dv=0 dx=0 dy=0 dh=0 dv=0
PairPos2: "'kern' Horizontal Kerning in Hebrew lookup 3 per glyph data 1" quotedbl dx=5 dy=0 dh=5 dv=0 dx=0 dy=0 dh=0 dv=0
PairPos2: "'kern' Horizontal Kerning in Hebrew lookup 3 per glyph data 1" period dx=10 dy=0 dh=10 dv=0 dx=0 dy=0 dh=0 dv=0
PairPos2: "'kern' Horizontal Kerning in Hebrew lookup 3 per glyph data 1" ellipsis dx=10 dy=0 dh=10 dv=0 dx=0 dy=0 dh=0 dv=0
PairPos2: "'kern' Horizontal Kerning in Hebrew lookup 3 per glyph data 1" uniFB3C dx=-5 dy=0 dh=-5 dv=0 dx=0 dy=0 dh=0 dv=0
PairPos2: "'kern' Horizontal Kerning in Hebrew lookup 3 per glyph data 1" uni05DC dx=-5 dy=0 dh=-5 dv=0 dx=0 dy=0 dh=0 dv=0
PairPos2: "'kern' Horizontal Kerning in Hebrew lookup 3 per glyph data 1" uniFB3B dx=-5 dy=0 dh=-5 dv=0 dx=0 dy=0 dh=0 dv=0
PairPos2: "'kern' Horizontal Kerning in Hebrew lookup 3 per glyph data 1" uni05DB dx=-5 dy=0 dh=-5 dv=0 dx=0 dy=0 dh=0 dv=0
PairPos2: "'kern' Horizontal Kerning in Hebrew lookup 3 per glyph data 1" hyphen dx=-25 dy=0 dh=-25 dv=0 dx=0 dy=0 dh=0 dv=0
PairPos2: "'kern' Horizontal Kerning in Hebrew lookup 3 per glyph data 1" endash dx=-25 dy=0 dh=-25 dv=0 dx=0 dy=0 dh=0 dv=0
PairPos2: "'kern' Horizontal Kerning in Hebrew lookup 3 per glyph data 1" emdash dx=-25 dy=0 dh=-25 dv=0 dx=0 dy=0 dh=0 dv=0
PairPos2: "'kern' Horizontal Kerning in Hebrew lookup 3 per glyph data 1" uniFB33 dx=-4 dy=0 dh=-4 dv=0 dx=0 dy=0 dh=0 dv=0
PairPos2: "'kern' Horizontal Kerning in Hebrew lookup 3 per glyph data 1" uni05D3 dx=-4 dy=0 dh=-4 dv=0 dx=0 dy=0 dh=0 dv=0
PairPos2: "'kern' Horizontal Kerning in Hebrew lookup 3 per glyph data 1" uniFB31 dx=7 dy=0 dh=7 dv=0 dx=0 dy=0 dh=0 dv=0
PairPos2: "'kern' Horizontal Kerning in Hebrew lookup 3 per glyph data 1" uni05D1 dx=7 dy=0 dh=7 dv=0 dx=0 dy=0 dh=0 dv=0
PairPos2: "'kern' Horizontal Kerning in Hebrew lookup 3 per glyph data 1" uniFB30 dx=5 dy=0 dh=5 dv=0 dx=0 dy=0 dh=0 dv=0
PairPos2: "'kern' Horizontal Kerning in Hebrew lookup 3 per glyph data 1" uniFB2F dx=5 dy=0 dh=5 dv=0 dx=0 dy=0 dh=0 dv=0
PairPos2: "'kern' Horizontal Kerning in Hebrew lookup 3 per glyph data 1" uniFB2E dx=5 dy=0 dh=5 dv=0 dx=0 dy=0 dh=0 dv=0
PairPos2: "'kern' Horizontal Kerning in Hebrew lookup 3 per glyph data 1" uni05D0 dx=5 dy=0 dh=5 dv=0 dx=0 dy=0 dh=0 dv=0
EndChar

StartChar: M
Encoding: 77 77 55
Width: 911
GlyphClass: 2
Flags: W
AnchorPoint: "Anchor-10" 0 0 basechar 0
AnchorPoint: "Anchor-9" 0 0 basechar 0
AnchorPoint: "Anchor-8" 0 0 basechar 0
AnchorPoint: "Anchor-7" 453 666 basechar 0
AnchorPoint: "Anchor-6" 0 0 basechar 0
AnchorPoint: "Anchor-5" 453 0 basechar 0
LayerCount: 2
Fore
SplineSet
216 470 m 1,0,-1
 174 0 l 1,1,-1
 45 0 l 1,2,-1
 108 666 l 1,3,-1
 288 666 l 1,4,-1
 458 188 l 1,5,-1
 623 666 l 1,6,-1
 803 666 l 1,7,-1
 864 0 l 1,8,-1
 734 0 l 1,9,-1
 688 468 l 1,10,-1
 512 -7 l 1,11,-1
 393 -18 l 1,12,-1
 216 470 l 1,0,-1
EndSplineSet
PairPos2: "'kern' Horizontal Kerning in Hebrew lookup 3 per glyph data 3" uni05F4 dx=12 dy=0 dh=12 dv=0 dx=0 dy=0 dh=0 dv=0
PairPos2: "'kern' Horizontal Kerning in Hebrew lookup 3 per glyph data 3" uni05F3 dx=12 dy=0 dh=12 dv=0 dx=0 dy=0 dh=0 dv=0
PairPos2: "'kern' Horizontal Kerning in Hebrew lookup 3 per glyph data 3" quoteright dx=12 dy=0 dh=12 dv=0 dx=0 dy=0 dh=0 dv=0
PairPos2: "'kern' Horizontal Kerning in Hebrew lookup 3 per glyph data 3" quotedblright dx=12 dy=0 dh=12 dv=0 dx=0 dy=0 dh=0 dv=0
PairPos2: "'kern' Horizontal Kerning in Hebrew lookup 3 per glyph data 3" quotesingle dx=12 dy=0 dh=12 dv=0 dx=0 dy=0 dh=0 dv=0
PairPos2: "'kern' Horizontal Kerning in Hebrew lookup 3 per glyph data 3" quotedbl dx=12 dy=0 dh=12 dv=0 dx=0 dy=0 dh=0 dv=0
PairPos2: "'kern' Horizontal Kerning in Hebrew lookup 3 per glyph data 2" uni05E5 dx=-25 dy=0 dh=-25 dv=0 dx=0 dy=0 dh=0 dv=0
PairPos2: "'kern' Horizontal Kerning in Hebrew lookup 3 per glyph data 2" uniFB36 dx=-25 dy=0 dh=-25 dv=0 dx=0 dy=0 dh=0 dv=0
PairPos2: "'kern' Horizontal Kerning in Hebrew lookup 3 per glyph data 2" uni05D6 dx=-25 dy=0 dh=-25 dv=0 dx=0 dy=0 dh=0 dv=0
PairPos2: "'kern' Horizontal Kerning in Hebrew lookup 3 per glyph data 2" uniFB46 dx=-20 dy=0 dh=-20 dv=0 dx=0 dy=0 dh=0 dv=0
PairPos2: "'kern' Horizontal Kerning in Hebrew lookup 3 per glyph data 2" uni05E6 dx=-20 dy=0 dh=-20 dv=0 dx=0 dy=0 dh=0 dv=0
PairPos2: "'kern' Horizontal Kerning in Hebrew lookup 3 per glyph data 2" uniFB38 dx=5 dy=0 dh=5 dv=0 dx=0 dy=0 dh=0 dv=0
PairPos2: "'kern' Horizontal Kerning in Hebrew lookup 3 per glyph data 2" uni05D8 dx=5 dy=0 dh=5 dv=0 dx=0 dy=0 dh=0 dv=0
PairPos2: "'kern' Horizontal Kerning in Hebrew lookup 3 per glyph data 2" uniFB41 dx=5 dy=0 dh=5 dv=0 dx=0 dy=0 dh=0 dv=0
PairPos2: "'kern' Horizontal Kerning in Hebrew lookup 3 per glyph data 2" uni05E1 dx=5 dy=0 dh=5 dv=0 dx=0 dy=0 dh=0 dv=0
PairPos2: "'kern' Horizontal Kerning in Hebrew lookup 3 per glyph data 2" uniFB3B dx=10 dy=0 dh=10 dv=0 dx=0 dy=0 dh=0 dv=0
PairPos2: "'kern' Horizontal Kerning in Hebrew lookup 3 per glyph data 2" uni05DB dx=10 dy=0 dh=10 dv=0 dx=0 dy=0 dh=0 dv=0
PairPos2: "'kern' Horizontal Kerning in Hebrew lookup 3 per glyph data 2" uniFB33 dx=-20 dy=0 dh=-20 dv=0 dx=0 dy=0 dh=0 dv=0
PairPos2: "'kern' Horizontal Kerning in Hebrew lookup 3 per glyph data 2" uni05D3 dx=-20 dy=0 dh=-20 dv=0 dx=0 dy=0 dh=0 dv=0
PairPos2: "'kern' Horizontal Kerning in Hebrew lookup 3 per glyph data 2" uniFB31 dx=-15 dy=0 dh=-15 dv=0 dx=0 dy=0 dh=0 dv=0
PairPos2: "'kern' Horizontal Kerning in Hebrew lookup 3 per glyph data 2" uni05D1 dx=-15 dy=0 dh=-15 dv=0 dx=0 dy=0 dh=0 dv=0
PairPos2: "'kern' Horizontal Kerning in Hebrew lookup 3 per glyph data 2" uniFB30 dx=-12 dy=0 dh=-12 dv=0 dx=0 dy=0 dh=0 dv=0
PairPos2: "'kern' Horizontal Kerning in Hebrew lookup 3 per glyph data 2" uniFB2F dx=-12 dy=0 dh=-12 dv=0 dx=0 dy=0 dh=0 dv=0
PairPos2: "'kern' Horizontal Kerning in Hebrew lookup 3 per glyph data 2" uniFB2E dx=-12 dy=0 dh=-12 dv=0 dx=0 dy=0 dh=0 dv=0
PairPos2: "'kern' Horizontal Kerning in Hebrew lookup 3 per glyph data 2" uni05D0 dx=-12 dy=0 dh=-12 dv=0 dx=0 dy=0 dh=0 dv=0
PairPos2: "'kern' Horizontal Kerning in Hebrew lookup 3 per glyph data 1" uni05E5 dx=-5 dy=0 dh=-5 dv=0 dx=0 dy=0 dh=0 dv=0
PairPos2: "'kern' Horizontal Kerning in Hebrew lookup 3 per glyph data 1" uniFB36 dx=-10 dy=0 dh=-10 dv=0 dx=0 dy=0 dh=0 dv=0
PairPos2: "'kern' Horizontal Kerning in Hebrew lookup 3 per glyph data 1" uni05D6 dx=-10 dy=0 dh=-10 dv=0 dx=0 dy=0 dh=0 dv=0
PairPos2: "'kern' Horizontal Kerning in Hebrew lookup 3 per glyph data 1" uniFB39 dx=-5 dy=0 dh=-5 dv=0 dx=0 dy=0 dh=0 dv=0
PairPos2: "'kern' Horizontal Kerning in Hebrew lookup 3 per glyph data 1" uni05D9 dx=-5 dy=0 dh=-5 dv=0 dx=0 dy=0 dh=0 dv=0
PairPos2: "'kern' Horizontal Kerning in Hebrew lookup 3 per glyph data 1" uniFB38 dx=-10 dy=0 dh=-10 dv=0 dx=0 dy=0 dh=0 dv=0
PairPos2: "'kern' Horizontal Kerning in Hebrew lookup 3 per glyph data 1" uni05D8 dx=-10 dy=0 dh=-10 dv=0 dx=0 dy=0 dh=0 dv=0
PairPos2: "'kern' Horizontal Kerning in Hebrew lookup 3 per glyph data 1" uniFB41 dx=-7 dy=0 dh=-7 dv=0 dx=0 dy=0 dh=0 dv=0
PairPos2: "'kern' Horizontal Kerning in Hebrew lookup 3 per glyph data 1" uni05E1 dx=-7 dy=0 dh=-7 dv=0 dx=0 dy=0 dh=0 dv=0
PairPos2: "'kern' Horizontal Kerning in Hebrew lookup 3 per glyph data 1" uni05F4 dx=5 dy=0 dh=5 dv=0 dx=0 dy=0 dh=0 dv=0
PairPos2: "'kern' Horizontal Kerning in Hebrew lookup 3 per glyph data 1" uni05F3 dx=5 dy=0 dh=5 dv=0 dx=0 dy=0 dh=0 dv=0
PairPos2: "'kern' Horizontal Kerning in Hebrew lookup 3 per glyph data 1" quoteright dx=5 dy=0 dh=5 dv=0 dx=0 dy=0 dh=0 dv=0
PairPos2: "'kern' Horizontal Kerning in Hebrew lookup 3 per glyph data 1" quotedblright dx=5 dy=0 dh=5 dv=0 dx=0 dy=0 dh=0 dv=0
PairPos2: "'kern' Horizontal Kerning in Hebrew lookup 3 per glyph data 1" quotesingle dx=5 dy=0 dh=5 dv=0 dx=0 dy=0 dh=0 dv=0
PairPos2: "'kern' Horizontal Kerning in Hebrew lookup 3 per glyph data 1" quotedbl dx=5 dy=0 dh=5 dv=0 dx=0 dy=0 dh=0 dv=0
PairPos2: "'kern' Horizontal Kerning in Hebrew lookup 3 per glyph data 1" period dx=10 dy=0 dh=10 dv=0 dx=0 dy=0 dh=0 dv=0
PairPos2: "'kern' Horizontal Kerning in Hebrew lookup 3 per glyph data 1" ellipsis dx=10 dy=0 dh=10 dv=0 dx=0 dy=0 dh=0 dv=0
PairPos2: "'kern' Horizontal Kerning in Hebrew lookup 3 per glyph data 1" uniFB3C dx=-5 dy=0 dh=-5 dv=0 dx=0 dy=0 dh=0 dv=0
PairPos2: "'kern' Horizontal Kerning in Hebrew lookup 3 per glyph data 1" uni05DC dx=-5 dy=0 dh=-5 dv=0 dx=0 dy=0 dh=0 dv=0
PairPos2: "'kern' Horizontal Kerning in Hebrew lookup 3 per glyph data 1" uniFB3B dx=-5 dy=0 dh=-5 dv=0 dx=0 dy=0 dh=0 dv=0
PairPos2: "'kern' Horizontal Kerning in Hebrew lookup 3 per glyph data 1" uni05DB dx=-5 dy=0 dh=-5 dv=0 dx=0 dy=0 dh=0 dv=0
PairPos2: "'kern' Horizontal Kerning in Hebrew lookup 3 per glyph data 1" hyphen dx=-25 dy=0 dh=-25 dv=0 dx=0 dy=0 dh=0 dv=0
PairPos2: "'kern' Horizontal Kerning in Hebrew lookup 3 per glyph data 1" endash dx=-25 dy=0 dh=-25 dv=0 dx=0 dy=0 dh=0 dv=0
PairPos2: "'kern' Horizontal Kerning in Hebrew lookup 3 per glyph data 1" emdash dx=-25 dy=0 dh=-25 dv=0 dx=0 dy=0 dh=0 dv=0
PairPos2: "'kern' Horizontal Kerning in Hebrew lookup 3 per glyph data 1" uniFB33 dx=-4 dy=0 dh=-4 dv=0 dx=0 dy=0 dh=0 dv=0
PairPos2: "'kern' Horizontal Kerning in Hebrew lookup 3 per glyph data 1" uni05D3 dx=-4 dy=0 dh=-4 dv=0 dx=0 dy=0 dh=0 dv=0
PairPos2: "'kern' Horizontal Kerning in Hebrew lookup 3 per glyph data 1" uniFB31 dx=7 dy=0 dh=7 dv=0 dx=0 dy=0 dh=0 dv=0
PairPos2: "'kern' Horizontal Kerning in Hebrew lookup 3 per glyph data 1" uni05D1 dx=7 dy=0 dh=7 dv=0 dx=0 dy=0 dh=0 dv=0
PairPos2: "'kern' Horizontal Kerning in Hebrew lookup 3 per glyph data 1" uniFB30 dx=5 dy=0 dh=5 dv=0 dx=0 dy=0 dh=0 dv=0
PairPos2: "'kern' Horizontal Kerning in Hebrew lookup 3 per glyph data 1" uniFB2F dx=5 dy=0 dh=5 dv=0 dx=0 dy=0 dh=0 dv=0
PairPos2: "'kern' Horizontal Kerning in Hebrew lookup 3 per glyph data 1" uniFB2E dx=5 dy=0 dh=5 dv=0 dx=0 dy=0 dh=0 dv=0
PairPos2: "'kern' Horizontal Kerning in Hebrew lookup 3 per glyph data 1" uni05D0 dx=5 dy=0 dh=5 dv=0 dx=0 dy=0 dh=0 dv=0
EndChar

StartChar: N
Encoding: 78 78 56
Width: 719
GlyphClass: 2
Flags: W
AnchorPoint: "Anchor-10" 0 0 basechar 0
AnchorPoint: "Anchor-9" 0 0 basechar 0
AnchorPoint: "Anchor-8" 0 0 basechar 0
AnchorPoint: "Anchor-7" 360 666 basechar 0
AnchorPoint: "Anchor-6" 0 0 basechar 0
AnchorPoint: "Anchor-5" 360 0 basechar 0
LayerCount: 2
Fore
SplineSet
70 666 m 1,0,-1
 240 666 l 1,1,-1
 516 199 l 1,2,-1
 516 666 l 1,3,-1
 649 666 l 1,4,-1
 649 0 l 1,5,-1
 481 0 l 1,6,-1
 203 470 l 1,7,-1
 203 0 l 1,8,-1
 70 0 l 1,9,-1
 70 666 l 1,0,-1
EndSplineSet
PairPos2: "'kern' Horizontal Kerning in Hebrew lookup 3 per glyph data 3" uni05F4 dx=12 dy=0 dh=12 dv=0 dx=0 dy=0 dh=0 dv=0
PairPos2: "'kern' Horizontal Kerning in Hebrew lookup 3 per glyph data 3" uni05F3 dx=12 dy=0 dh=12 dv=0 dx=0 dy=0 dh=0 dv=0
PairPos2: "'kern' Horizontal Kerning in Hebrew lookup 3 per glyph data 3" quoteright dx=12 dy=0 dh=12 dv=0 dx=0 dy=0 dh=0 dv=0
PairPos2: "'kern' Horizontal Kerning in Hebrew lookup 3 per glyph data 3" quotedblright dx=12 dy=0 dh=12 dv=0 dx=0 dy=0 dh=0 dv=0
PairPos2: "'kern' Horizontal Kerning in Hebrew lookup 3 per glyph data 3" quotesingle dx=12 dy=0 dh=12 dv=0 dx=0 dy=0 dh=0 dv=0
PairPos2: "'kern' Horizontal Kerning in Hebrew lookup 3 per glyph data 3" quotedbl dx=12 dy=0 dh=12 dv=0 dx=0 dy=0 dh=0 dv=0
PairPos2: "'kern' Horizontal Kerning in Hebrew lookup 3 per glyph data 2" uni05E5 dx=-25 dy=0 dh=-25 dv=0 dx=0 dy=0 dh=0 dv=0
PairPos2: "'kern' Horizontal Kerning in Hebrew lookup 3 per glyph data 2" uniFB36 dx=-25 dy=0 dh=-25 dv=0 dx=0 dy=0 dh=0 dv=0
PairPos2: "'kern' Horizontal Kerning in Hebrew lookup 3 per glyph data 2" uni05D6 dx=-25 dy=0 dh=-25 dv=0 dx=0 dy=0 dh=0 dv=0
PairPos2: "'kern' Horizontal Kerning in Hebrew lookup 3 per glyph data 2" uniFB46 dx=-20 dy=0 dh=-20 dv=0 dx=0 dy=0 dh=0 dv=0
PairPos2: "'kern' Horizontal Kerning in Hebrew lookup 3 per glyph data 2" uni05E6 dx=-20 dy=0 dh=-20 dv=0 dx=0 dy=0 dh=0 dv=0
PairPos2: "'kern' Horizontal Kerning in Hebrew lookup 3 per glyph data 2" uniFB38 dx=5 dy=0 dh=5 dv=0 dx=0 dy=0 dh=0 dv=0
PairPos2: "'kern' Horizontal Kerning in Hebrew lookup 3 per glyph data 2" uni05D8 dx=5 dy=0 dh=5 dv=0 dx=0 dy=0 dh=0 dv=0
PairPos2: "'kern' Horizontal Kerning in Hebrew lookup 3 per glyph data 2" uniFB41 dx=5 dy=0 dh=5 dv=0 dx=0 dy=0 dh=0 dv=0
PairPos2: "'kern' Horizontal Kerning in Hebrew lookup 3 per glyph data 2" uni05E1 dx=5 dy=0 dh=5 dv=0 dx=0 dy=0 dh=0 dv=0
PairPos2: "'kern' Horizontal Kerning in Hebrew lookup 3 per glyph data 2" uniFB3B dx=10 dy=0 dh=10 dv=0 dx=0 dy=0 dh=0 dv=0
PairPos2: "'kern' Horizontal Kerning in Hebrew lookup 3 per glyph data 2" uni05DB dx=10 dy=0 dh=10 dv=0 dx=0 dy=0 dh=0 dv=0
PairPos2: "'kern' Horizontal Kerning in Hebrew lookup 3 per glyph data 2" uniFB33 dx=-20 dy=0 dh=-20 dv=0 dx=0 dy=0 dh=0 dv=0
PairPos2: "'kern' Horizontal Kerning in Hebrew lookup 3 per glyph data 2" uni05D3 dx=-20 dy=0 dh=-20 dv=0 dx=0 dy=0 dh=0 dv=0
PairPos2: "'kern' Horizontal Kerning in Hebrew lookup 3 per glyph data 2" uniFB31 dx=-15 dy=0 dh=-15 dv=0 dx=0 dy=0 dh=0 dv=0
PairPos2: "'kern' Horizontal Kerning in Hebrew lookup 3 per glyph data 2" uni05D1 dx=-15 dy=0 dh=-15 dv=0 dx=0 dy=0 dh=0 dv=0
PairPos2: "'kern' Horizontal Kerning in Hebrew lookup 3 per glyph data 2" uniFB30 dx=-12 dy=0 dh=-12 dv=0 dx=0 dy=0 dh=0 dv=0
PairPos2: "'kern' Horizontal Kerning in Hebrew lookup 3 per glyph data 2" uniFB2F dx=-12 dy=0 dh=-12 dv=0 dx=0 dy=0 dh=0 dv=0
PairPos2: "'kern' Horizontal Kerning in Hebrew lookup 3 per glyph data 2" uniFB2E dx=-12 dy=0 dh=-12 dv=0 dx=0 dy=0 dh=0 dv=0
PairPos2: "'kern' Horizontal Kerning in Hebrew lookup 3 per glyph data 2" uni05D0 dx=-12 dy=0 dh=-12 dv=0 dx=0 dy=0 dh=0 dv=0
PairPos2: "'kern' Horizontal Kerning in Hebrew lookup 3 per glyph data 1" uni05E5 dx=-5 dy=0 dh=-5 dv=0 dx=0 dy=0 dh=0 dv=0
PairPos2: "'kern' Horizontal Kerning in Hebrew lookup 3 per glyph data 1" uniFB36 dx=-10 dy=0 dh=-10 dv=0 dx=0 dy=0 dh=0 dv=0
PairPos2: "'kern' Horizontal Kerning in Hebrew lookup 3 per glyph data 1" uni05D6 dx=-10 dy=0 dh=-10 dv=0 dx=0 dy=0 dh=0 dv=0
PairPos2: "'kern' Horizontal Kerning in Hebrew lookup 3 per glyph data 1" uniFB39 dx=-5 dy=0 dh=-5 dv=0 dx=0 dy=0 dh=0 dv=0
PairPos2: "'kern' Horizontal Kerning in Hebrew lookup 3 per glyph data 1" uni05D9 dx=-5 dy=0 dh=-5 dv=0 dx=0 dy=0 dh=0 dv=0
PairPos2: "'kern' Horizontal Kerning in Hebrew lookup 3 per glyph data 1" uniFB38 dx=-10 dy=0 dh=-10 dv=0 dx=0 dy=0 dh=0 dv=0
PairPos2: "'kern' Horizontal Kerning in Hebrew lookup 3 per glyph data 1" uni05D8 dx=-10 dy=0 dh=-10 dv=0 dx=0 dy=0 dh=0 dv=0
PairPos2: "'kern' Horizontal Kerning in Hebrew lookup 3 per glyph data 1" uniFB41 dx=-7 dy=0 dh=-7 dv=0 dx=0 dy=0 dh=0 dv=0
PairPos2: "'kern' Horizontal Kerning in Hebrew lookup 3 per glyph data 1" uni05E1 dx=-7 dy=0 dh=-7 dv=0 dx=0 dy=0 dh=0 dv=0
PairPos2: "'kern' Horizontal Kerning in Hebrew lookup 3 per glyph data 1" uni05F4 dx=5 dy=0 dh=5 dv=0 dx=0 dy=0 dh=0 dv=0
PairPos2: "'kern' Horizontal Kerning in Hebrew lookup 3 per glyph data 1" uni05F3 dx=5 dy=0 dh=5 dv=0 dx=0 dy=0 dh=0 dv=0
PairPos2: "'kern' Horizontal Kerning in Hebrew lookup 3 per glyph data 1" quoteright dx=5 dy=0 dh=5 dv=0 dx=0 dy=0 dh=0 dv=0
PairPos2: "'kern' Horizontal Kerning in Hebrew lookup 3 per glyph data 1" quotedblright dx=5 dy=0 dh=5 dv=0 dx=0 dy=0 dh=0 dv=0
PairPos2: "'kern' Horizontal Kerning in Hebrew lookup 3 per glyph data 1" quotesingle dx=5 dy=0 dh=5 dv=0 dx=0 dy=0 dh=0 dv=0
PairPos2: "'kern' Horizontal Kerning in Hebrew lookup 3 per glyph data 1" quotedbl dx=5 dy=0 dh=5 dv=0 dx=0 dy=0 dh=0 dv=0
PairPos2: "'kern' Horizontal Kerning in Hebrew lookup 3 per glyph data 1" period dx=10 dy=0 dh=10 dv=0 dx=0 dy=0 dh=0 dv=0
PairPos2: "'kern' Horizontal Kerning in Hebrew lookup 3 per glyph data 1" ellipsis dx=10 dy=0 dh=10 dv=0 dx=0 dy=0 dh=0 dv=0
PairPos2: "'kern' Horizontal Kerning in Hebrew lookup 3 per glyph data 1" uniFB3C dx=-5 dy=0 dh=-5 dv=0 dx=0 dy=0 dh=0 dv=0
PairPos2: "'kern' Horizontal Kerning in Hebrew lookup 3 per glyph data 1" uni05DC dx=-5 dy=0 dh=-5 dv=0 dx=0 dy=0 dh=0 dv=0
PairPos2: "'kern' Horizontal Kerning in Hebrew lookup 3 per glyph data 1" uniFB3B dx=-5 dy=0 dh=-5 dv=0 dx=0 dy=0 dh=0 dv=0
PairPos2: "'kern' Horizontal Kerning in Hebrew lookup 3 per glyph data 1" uni05DB dx=-5 dy=0 dh=-5 dv=0 dx=0 dy=0 dh=0 dv=0
PairPos2: "'kern' Horizontal Kerning in Hebrew lookup 3 per glyph data 1" hyphen dx=-25 dy=0 dh=-25 dv=0 dx=0 dy=0 dh=0 dv=0
PairPos2: "'kern' Horizontal Kerning in Hebrew lookup 3 per glyph data 1" endash dx=-25 dy=0 dh=-25 dv=0 dx=0 dy=0 dh=0 dv=0
PairPos2: "'kern' Horizontal Kerning in Hebrew lookup 3 per glyph data 1" emdash dx=-25 dy=0 dh=-25 dv=0 dx=0 dy=0 dh=0 dv=0
PairPos2: "'kern' Horizontal Kerning in Hebrew lookup 3 per glyph data 1" uniFB33 dx=-4 dy=0 dh=-4 dv=0 dx=0 dy=0 dh=0 dv=0
PairPos2: "'kern' Horizontal Kerning in Hebrew lookup 3 per glyph data 1" uni05D3 dx=-4 dy=0 dh=-4 dv=0 dx=0 dy=0 dh=0 dv=0
PairPos2: "'kern' Horizontal Kerning in Hebrew lookup 3 per glyph data 1" uniFB31 dx=7 dy=0 dh=7 dv=0 dx=0 dy=0 dh=0 dv=0
PairPos2: "'kern' Horizontal Kerning in Hebrew lookup 3 per glyph data 1" uni05D1 dx=7 dy=0 dh=7 dv=0 dx=0 dy=0 dh=0 dv=0
PairPos2: "'kern' Horizontal Kerning in Hebrew lookup 3 per glyph data 1" uniFB30 dx=5 dy=0 dh=5 dv=0 dx=0 dy=0 dh=0 dv=0
PairPos2: "'kern' Horizontal Kerning in Hebrew lookup 3 per glyph data 1" uniFB2F dx=5 dy=0 dh=5 dv=0 dx=0 dy=0 dh=0 dv=0
PairPos2: "'kern' Horizontal Kerning in Hebrew lookup 3 per glyph data 1" uniFB2E dx=5 dy=0 dh=5 dv=0 dx=0 dy=0 dh=0 dv=0
PairPos2: "'kern' Horizontal Kerning in Hebrew lookup 3 per glyph data 1" uni05D0 dx=5 dy=0 dh=5 dv=0 dx=0 dy=0 dh=0 dv=0
EndChar

StartChar: Eng
Encoding: 330 330 60
Width: 719
GlyphClass: 2
Flags: W
LayerCount: 2
Fore
SplineSet
373 -214 m 1,1,-1
 411 -96 l 1,2,3
 435 -107 435 -107 457 -107 c 0,4,5
 509 -107 509 -107 509 -46 c 2,6,-1
 509 0 l 1,7,-1
 481 0 l 1,8,-1
 203 470 l 1,9,-1
 203 0 l 1,10,-1
 70 0 l 1,11,-1
 70 666 l 1,12,-1
 240 666 l 1,13,-1
 516 199 l 1,14,-1
 516 666 l 1,15,-1
 649 666 l 1,16,-1
 649 -57 l 2,17,18
 649 -138 649 -138 601.5 -185.5 c 128,-1,19
 554 -233 554 -233 474 -233 c 0,20,0
 428 -233 428 -233 373 -214 c 1,1,-1
EndSplineSet
PairPos2: "'kern' Horizontal Kerning in Hebrew lookup 3 per glyph data 3" uni05F4 dx=12 dy=0 dh=12 dv=0 dx=0 dy=0 dh=0 dv=0
PairPos2: "'kern' Horizontal Kerning in Hebrew lookup 3 per glyph data 3" uni05F3 dx=12 dy=0 dh=12 dv=0 dx=0 dy=0 dh=0 dv=0
PairPos2: "'kern' Horizontal Kerning in Hebrew lookup 3 per glyph data 3" quoteright dx=12 dy=0 dh=12 dv=0 dx=0 dy=0 dh=0 dv=0
PairPos2: "'kern' Horizontal Kerning in Hebrew lookup 3 per glyph data 3" quotedblright dx=12 dy=0 dh=12 dv=0 dx=0 dy=0 dh=0 dv=0
PairPos2: "'kern' Horizontal Kerning in Hebrew lookup 3 per glyph data 3" quotesingle dx=12 dy=0 dh=12 dv=0 dx=0 dy=0 dh=0 dv=0
PairPos2: "'kern' Horizontal Kerning in Hebrew lookup 3 per glyph data 3" quotedbl dx=12 dy=0 dh=12 dv=0 dx=0 dy=0 dh=0 dv=0
PairPos2: "'kern' Horizontal Kerning in Hebrew lookup 3 per glyph data 2" uni05E5 dx=-25 dy=0 dh=-25 dv=0 dx=0 dy=0 dh=0 dv=0
PairPos2: "'kern' Horizontal Kerning in Hebrew lookup 3 per glyph data 2" uniFB36 dx=-25 dy=0 dh=-25 dv=0 dx=0 dy=0 dh=0 dv=0
PairPos2: "'kern' Horizontal Kerning in Hebrew lookup 3 per glyph data 2" uni05D6 dx=-25 dy=0 dh=-25 dv=0 dx=0 dy=0 dh=0 dv=0
PairPos2: "'kern' Horizontal Kerning in Hebrew lookup 3 per glyph data 2" uniFB46 dx=-20 dy=0 dh=-20 dv=0 dx=0 dy=0 dh=0 dv=0
PairPos2: "'kern' Horizontal Kerning in Hebrew lookup 3 per glyph data 2" uni05E6 dx=-20 dy=0 dh=-20 dv=0 dx=0 dy=0 dh=0 dv=0
PairPos2: "'kern' Horizontal Kerning in Hebrew lookup 3 per glyph data 2" uniFB38 dx=5 dy=0 dh=5 dv=0 dx=0 dy=0 dh=0 dv=0
PairPos2: "'kern' Horizontal Kerning in Hebrew lookup 3 per glyph data 2" uni05D8 dx=5 dy=0 dh=5 dv=0 dx=0 dy=0 dh=0 dv=0
PairPos2: "'kern' Horizontal Kerning in Hebrew lookup 3 per glyph data 2" uniFB41 dx=5 dy=0 dh=5 dv=0 dx=0 dy=0 dh=0 dv=0
PairPos2: "'kern' Horizontal Kerning in Hebrew lookup 3 per glyph data 2" uni05E1 dx=5 dy=0 dh=5 dv=0 dx=0 dy=0 dh=0 dv=0
PairPos2: "'kern' Horizontal Kerning in Hebrew lookup 3 per glyph data 2" uniFB3B dx=10 dy=0 dh=10 dv=0 dx=0 dy=0 dh=0 dv=0
PairPos2: "'kern' Horizontal Kerning in Hebrew lookup 3 per glyph data 2" uni05DB dx=10 dy=0 dh=10 dv=0 dx=0 dy=0 dh=0 dv=0
PairPos2: "'kern' Horizontal Kerning in Hebrew lookup 3 per glyph data 2" uniFB33 dx=-20 dy=0 dh=-20 dv=0 dx=0 dy=0 dh=0 dv=0
PairPos2: "'kern' Horizontal Kerning in Hebrew lookup 3 per glyph data 2" uni05D3 dx=-20 dy=0 dh=-20 dv=0 dx=0 dy=0 dh=0 dv=0
PairPos2: "'kern' Horizontal Kerning in Hebrew lookup 3 per glyph data 2" uniFB31 dx=-15 dy=0 dh=-15 dv=0 dx=0 dy=0 dh=0 dv=0
PairPos2: "'kern' Horizontal Kerning in Hebrew lookup 3 per glyph data 2" uni05D1 dx=-15 dy=0 dh=-15 dv=0 dx=0 dy=0 dh=0 dv=0
PairPos2: "'kern' Horizontal Kerning in Hebrew lookup 3 per glyph data 2" uniFB30 dx=-12 dy=0 dh=-12 dv=0 dx=0 dy=0 dh=0 dv=0
PairPos2: "'kern' Horizontal Kerning in Hebrew lookup 3 per glyph data 2" uniFB2F dx=-12 dy=0 dh=-12 dv=0 dx=0 dy=0 dh=0 dv=0
PairPos2: "'kern' Horizontal Kerning in Hebrew lookup 3 per glyph data 2" uniFB2E dx=-12 dy=0 dh=-12 dv=0 dx=0 dy=0 dh=0 dv=0
PairPos2: "'kern' Horizontal Kerning in Hebrew lookup 3 per glyph data 2" uni05D0 dx=-12 dy=0 dh=-12 dv=0 dx=0 dy=0 dh=0 dv=0
PairPos2: "'kern' Horizontal Kerning in Hebrew lookup 3 per glyph data 1" uni05E5 dx=-5 dy=0 dh=-5 dv=0 dx=0 dy=0 dh=0 dv=0
PairPos2: "'kern' Horizontal Kerning in Hebrew lookup 3 per glyph data 1" uniFB36 dx=-10 dy=0 dh=-10 dv=0 dx=0 dy=0 dh=0 dv=0
PairPos2: "'kern' Horizontal Kerning in Hebrew lookup 3 per glyph data 1" uni05D6 dx=-10 dy=0 dh=-10 dv=0 dx=0 dy=0 dh=0 dv=0
PairPos2: "'kern' Horizontal Kerning in Hebrew lookup 3 per glyph data 1" uniFB39 dx=-5 dy=0 dh=-5 dv=0 dx=0 dy=0 dh=0 dv=0
PairPos2: "'kern' Horizontal Kerning in Hebrew lookup 3 per glyph data 1" uni05D9 dx=-5 dy=0 dh=-5 dv=0 dx=0 dy=0 dh=0 dv=0
PairPos2: "'kern' Horizontal Kerning in Hebrew lookup 3 per glyph data 1" uniFB38 dx=-10 dy=0 dh=-10 dv=0 dx=0 dy=0 dh=0 dv=0
PairPos2: "'kern' Horizontal Kerning in Hebrew lookup 3 per glyph data 1" uni05D8 dx=-10 dy=0 dh=-10 dv=0 dx=0 dy=0 dh=0 dv=0
PairPos2: "'kern' Horizontal Kerning in Hebrew lookup 3 per glyph data 1" uniFB41 dx=-7 dy=0 dh=-7 dv=0 dx=0 dy=0 dh=0 dv=0
PairPos2: "'kern' Horizontal Kerning in Hebrew lookup 3 per glyph data 1" uni05E1 dx=-7 dy=0 dh=-7 dv=0 dx=0 dy=0 dh=0 dv=0
PairPos2: "'kern' Horizontal Kerning in Hebrew lookup 3 per glyph data 1" uni05F4 dx=5 dy=0 dh=5 dv=0 dx=0 dy=0 dh=0 dv=0
PairPos2: "'kern' Horizontal Kerning in Hebrew lookup 3 per glyph data 1" uni05F3 dx=5 dy=0 dh=5 dv=0 dx=0 dy=0 dh=0 dv=0
PairPos2: "'kern' Horizontal Kerning in Hebrew lookup 3 per glyph data 1" quoteright dx=5 dy=0 dh=5 dv=0 dx=0 dy=0 dh=0 dv=0
PairPos2: "'kern' Horizontal Kerning in Hebrew lookup 3 per glyph data 1" quotedblright dx=5 dy=0 dh=5 dv=0 dx=0 dy=0 dh=0 dv=0
PairPos2: "'kern' Horizontal Kerning in Hebrew lookup 3 per glyph data 1" quotesingle dx=5 dy=0 dh=5 dv=0 dx=0 dy=0 dh=0 dv=0
PairPos2: "'kern' Horizontal Kerning in Hebrew lookup 3 per glyph data 1" quotedbl dx=5 dy=0 dh=5 dv=0 dx=0 dy=0 dh=0 dv=0
PairPos2: "'kern' Horizontal Kerning in Hebrew lookup 3 per glyph data 1" period dx=10 dy=0 dh=10 dv=0 dx=0 dy=0 dh=0 dv=0
PairPos2: "'kern' Horizontal Kerning in Hebrew lookup 3 per glyph data 1" ellipsis dx=10 dy=0 dh=10 dv=0 dx=0 dy=0 dh=0 dv=0
PairPos2: "'kern' Horizontal Kerning in Hebrew lookup 3 per glyph data 1" uniFB3C dx=-5 dy=0 dh=-5 dv=0 dx=0 dy=0 dh=0 dv=0
PairPos2: "'kern' Horizontal Kerning in Hebrew lookup 3 per glyph data 1" uni05DC dx=-5 dy=0 dh=-5 dv=0 dx=0 dy=0 dh=0 dv=0
PairPos2: "'kern' Horizontal Kerning in Hebrew lookup 3 per glyph data 1" uniFB3B dx=-5 dy=0 dh=-5 dv=0 dx=0 dy=0 dh=0 dv=0
PairPos2: "'kern' Horizontal Kerning in Hebrew lookup 3 per glyph data 1" uni05DB dx=-5 dy=0 dh=-5 dv=0 dx=0 dy=0 dh=0 dv=0
PairPos2: "'kern' Horizontal Kerning in Hebrew lookup 3 per glyph data 1" hyphen dx=-25 dy=0 dh=-25 dv=0 dx=0 dy=0 dh=0 dv=0
PairPos2: "'kern' Horizontal Kerning in Hebrew lookup 3 per glyph data 1" endash dx=-25 dy=0 dh=-25 dv=0 dx=0 dy=0 dh=0 dv=0
PairPos2: "'kern' Horizontal Kerning in Hebrew lookup 3 per glyph data 1" emdash dx=-25 dy=0 dh=-25 dv=0 dx=0 dy=0 dh=0 dv=0
PairPos2: "'kern' Horizontal Kerning in Hebrew lookup 3 per glyph data 1" uniFB33 dx=-4 dy=0 dh=-4 dv=0 dx=0 dy=0 dh=0 dv=0
PairPos2: "'kern' Horizontal Kerning in Hebrew lookup 3 per glyph data 1" uni05D3 dx=-4 dy=0 dh=-4 dv=0 dx=0 dy=0 dh=0 dv=0
PairPos2: "'kern' Horizontal Kerning in Hebrew lookup 3 per glyph data 1" uniFB31 dx=7 dy=0 dh=7 dv=0 dx=0 dy=0 dh=0 dv=0
PairPos2: "'kern' Horizontal Kerning in Hebrew lookup 3 per glyph data 1" uni05D1 dx=7 dy=0 dh=7 dv=0 dx=0 dy=0 dh=0 dv=0
PairPos2: "'kern' Horizontal Kerning in Hebrew lookup 3 per glyph data 1" uniFB30 dx=5 dy=0 dh=5 dv=0 dx=0 dy=0 dh=0 dv=0
PairPos2: "'kern' Horizontal Kerning in Hebrew lookup 3 per glyph data 1" uniFB2F dx=5 dy=0 dh=5 dv=0 dx=0 dy=0 dh=0 dv=0
PairPos2: "'kern' Horizontal Kerning in Hebrew lookup 3 per glyph data 1" uniFB2E dx=5 dy=0 dh=5 dv=0 dx=0 dy=0 dh=0 dv=0
PairPos2: "'kern' Horizontal Kerning in Hebrew lookup 3 per glyph data 1" uni05D0 dx=5 dy=0 dh=5 dv=0 dx=0 dy=0 dh=0 dv=0
EndChar

